Lexend-0.ufo
<glyph name="exclam" format="2">
  <advance width="236"/>
  <unicode hex="0021"/>
  <note>
exclam
</note>
  <outline>
    <contour>
      <point x="87" y="241" type="curve"/>
      <point x="147" y="241" type="line"/>
      <point x="161" y="351"/>
      <point x="171" y="500"/>
      <point x="171" y="630" type="curve" smooth="yes"/>
      <point x="171" y="700" type="line"/>
      <point x="63" y="700" type="line"/>
      <point x="63" y="630" type="line" smooth="yes"/>
      <point x="63" y="500"/>
      <point x="74" y="351"/>
    </contour>
    <component base="period"/>
  </outline>
</glyph>
<glyph name="quotedbl" format="2">
  <advance width="412"/>
  <unicode hex="0022"/>
  <note>
quotedbl
</note>
  <outline>
    <contour>
      <point x="60" y="700" type="line"/>
      <point x="37" y="442" type="line"/>
      <point x="97" y="442" type="line"/>
      <point x="178" y="700" type="line"/>
    </contour>
    <contour>
      <point x="269" y="700" type="line"/>
      <point x="245" y="442" type="line"/>
      <point x="305" y="442" type="line"/>
      <point x="385" y="700" type="line"/>
    </contour>
  </outline>
</glyph>
<glyph name="dollar" format="2">
  <advance width="624"/>
  <unicode hex="0024"/>
  <note>
dollar
</note>
  <anchor x="321" y="0" name="bottom"/>
  <anchor x="321" y="700" name="top"/>
  <outline>
    <contour>
      <point x="351" y="330" type="line"/>
      <point x="254" y="363" type="line"/>
      <point x="254" y="-91" type="line"/>
      <point x="351" y="-91" type="line"/>
    </contour>
    <contour>
      <point x="294" y="363" type="line"/>
      <point x="391" y="330" type="line"/>
      <point x="391" y="782" type="line"/>
      <point x="294" y="782" type="line"/>
    </contour>
    <component base="S"/>
  </outline>
</glyph>
<glyph name="percent" format="2">
  <advance width="839"/>
  <unicode hex="0025"/>
  <note>
percent
</note>
  <outline>
    <contour>
      <point x="193" y="329" type="curve"/>
      <point x="284" y="329"/>
      <point x="347" y="414"/>
      <point x="347" y="518" type="curve"/>
      <point x="347" y="624"/>
      <point x="288" y="709"/>
      <point x="194" y="709" type="curve"/>
      <point x="99" y="709"/>
      <point x="40" y="624"/>
      <point x="40" y="518" type="curve"/>
      <point x="40" y="413"/>
      <point x="99" y="329"/>
    </contour>
    <contour>
      <point x="194" y="404" type="curve"/>
      <point x="148" y="404"/>
      <point x="123" y="452"/>
      <point x="123" y="518" type="curve"/>
      <point x="123" y="583"/>
      <point x="147" y="633"/>
      <point x="193" y="633" type="curve"/>
      <point x="239" y="633"/>
      <point x="263" y="584"/>
      <point x="263" y="518" type="curve"/>
      <point x="263" y="453"/>
      <point x="240" y="404"/>
    </contour>
    <contour>
      <point x="636" y="-9" type="curve"/>
      <point x="726" y="-9"/>
      <point x="789" y="76"/>
      <point x="789" y="180" type="curve"/>
      <point x="789" y="286"/>
      <point x="730" y="371"/>
      <point x="636" y="371" type="curve"/>
      <point x="541" y="371"/>
      <point x="482" y="286"/>
      <point x="482" y="180" type="curve"/>
      <point x="482" y="75"/>
      <point x="545" y="-9"/>
    </contour>
    <contour>
      <point x="636" y="65" type="curve"/>
      <point x="590" y="65"/>
      <point x="565" y="114"/>
      <point x="565" y="180" type="curve"/>
      <point x="565" y="245"/>
      <point x="589" y="295"/>
      <point x="636" y="295" type="curve"/>
      <point x="681" y="295"/>
      <point x="706" y="246"/>
      <point x="706" y="180" type="curve"/>
      <point x="706" y="115"/>
      <point x="682" y="65"/>
    </contour>
    <component base="fraction" xOffset="109"/>
  </outline>
</glyph>
<glyph name="ampersand" format="2">
  <advance width="739"/>
  <unicode hex="0026"/>
  <note>
ampersand
</note>
  <outline>
    <contour>
      <point x="306" y="-10" type="curve" smooth="yes"/>
      <point x="516" y="-10"/>
      <point x="623" y="161"/>
      <point x="646" y="329" type="curve"/>
      <point x="554" y="329" type="line"/>
      <point x="535" y="209"/>
      <point x="463" y="85"/>
      <point x="326" y="85" type="curve" smooth="yes"/>
      <point x="208" y="85"/>
      <point x="159" y="156"/>
      <point x="159" y="227" type="curve" smooth="yes"/>
      <point x="159" y="289"/>
      <point x="188" y="340"/>
      <point x="285" y="361" type="curve"/>
      <point x="221" y="438" type="line"/>
      <point x="104" y="394"/>
      <point x="50" y="312"/>
      <point x="50" y="212" type="curve" smooth="yes"/>
      <point x="50" y="98"/>
      <point x="157" y="-10"/>
    </contour>
    <contour>
      <point x="575" y="0" type="curve"/>
      <point x="709" y="0" type="line"/>
      <point x="682" y="27"/>
      <point x="626" y="90"/>
      <point x="566" y="156" type="curve"/>
      <point x="547" y="177" type="line"/>
      <point x="398" y="343" type="line"/>
      <point x="352" y="393"/>
      <point x="280" y="474"/>
      <point x="280" y="535" type="curve" smooth="yes"/>
      <point x="280" y="581"/>
      <point x="306" y="617"/>
      <point x="375" y="617" type="curve" smooth="yes"/>
      <point x="428" y="617"/>
      <point x="464" y="591"/>
      <point x="490" y="529" type="curve"/>
      <point x="568" y="579" type="line"/>
      <point x="543" y="654"/>
      <point x="468" y="710"/>
      <point x="375" y="710" type="curve" smooth="yes"/>
      <point x="246" y="710"/>
      <point x="168" y="628"/>
      <point x="168" y="532" type="curve" smooth="yes"/>
      <point x="168" y="458"/>
      <point x="225" y="387"/>
      <point x="295" y="308" type="curve"/>
      <point x="484" y="97" type="line"/>
      <point x="500" y="80" type="line"/>
      <point x="523" y="54"/>
      <point x="548" y="28"/>
    </contour>
  </outline>
</glyph>
<glyph name="quotesingle" format="2">
  <advance width="205"/>
  <unicode hex="0027"/>
  <note>
quotesingle
</note>
  <outline>
    <contour>
      <point x="60" y="700" type="line"/>
      <point x="37" y="442" type="line"/>
      <point x="97" y="442" type="line"/>
      <point x="178" y="700" type="line"/>
    </contour>
  </outline>
</glyph>
<glyph name="parenleft" format="2">
  <advance width="366"/>
  <unicode hex="0028"/>
  <note>
parenleft
</note>
  <outline>
    <contour>
      <point x="40" y="258" type="curve" smooth="yes"/>
      <point x="40" y="81"/>
      <point x="120" y="-80"/>
      <point x="290" y="-186" type="curve"/>
      <point x="346" y="-124" type="line"/>
      <point x="202" y="-23"/>
      <point x="137" y="115"/>
      <point x="137" y="258" type="curve" smooth="yes"/>
      <point x="137" y="401"/>
      <point x="202" y="539"/>
      <point x="346" y="640" type="curve"/>
      <point x="291" y="702" type="line"/>
      <point x="121" y="596"/>
      <point x="40" y="435"/>
    </contour>
  </outline>
</glyph>
<glyph name="comma" format="2">
  <advance width="267"/>
  <unicode hex="002C"/>
  <note>
comma
</note>
  <outline>
    <contour>
      <point x="221" y="4" type="curve" smooth="yes"/>
      <point x="221" y="77"/>
      <point x="177" y="117"/>
      <point x="132" y="117" type="curve"/>
      <point x="98" y="117"/>
      <point x="71" y="97"/>
      <point x="71" y="64" type="curve"/>
      <point x="71" y="11"/>
      <point x="129" y="-1"/>
      <point x="129" y="-42" type="curve" smooth="yes"/>
      <point x="129" y="-68"/>
      <point x="96" y="-106"/>
      <point x="50" y="-133" type="curve"/>
      <point x="88" y="-179" type="line"/>
      <point x="156" y="-153"/>
      <point x="221" y="-81"/>
    </contour>
  </outline>
</glyph>
<glyph name="hyphen" format="2">
  <advance width="394"/>
  <unicode hex="002D"/>
  <note>
hyphen
</note>
  <outline>
    <contour>
      <point x="53" y="235" type="line"/>
      <point x="341" y="235" type="line"/>
      <point x="341" y="337" type="line"/>
      <point x="53" y="337" type="line"/>
    </contour>
  </outline>
</glyph>
<glyph name="period" format="2">
  <advance width="228"/>
  <unicode hex="002E"/>
  <note>
period
</note>
  <outline>
    <contour>
      <point x="114" y="-11" type="curve" smooth="yes"/>
      <point x="161" y="-11"/>
      <point x="183" y="26"/>
      <point x="183" y="64" type="curve" smooth="yes"/>
      <point x="183" y="109"/>
      <point x="161" y="139"/>
      <point x="114" y="139" type="curve" smooth="yes"/>
      <point x="67" y="139"/>
      <point x="45" y="102"/>
      <point x="45" y="64" type="curve" smooth="yes"/>
      <point x="45" y="19"/>
      <point x="67" y="-11"/>
    </contour>
  </outline>
</glyph>
<glyph name="zero" format="2">
  <advance width="607"/>
  <unicode hex="0030"/>
  <outline>
    <contour>
      <point x="303" y="-10" type="curve"/>
      <point x="472" y="-10"/>
      <point x="561" y="141"/>
      <point x="561" y="350" type="curve"/>
      <point x="561" y="559"/>
      <point x="472" y="710"/>
      <point x="303" y="710" type="curve"/>
      <point x="135" y="710"/>
      <point x="46" y="559"/>
      <point x="46" y="350" type="curve"/>
      <point x="46" y="141"/>
      <point x="135" y="-10"/>
    </contour>
    <contour>
      <point x="303" y="88" type="curve"/>
      <point x="207" y="88"/>
      <point x="150" y="182"/>
      <point x="150" y="350" type="curve"/>
      <point x="150" y="518"/>
      <point x="207" y="612"/>
      <point x="303" y="612" type="curve"/>
      <point x="399" y="612"/>
      <point x="456" y="518"/>
      <point x="456" y="350" type="curve"/>
      <point x="456" y="182"/>
      <point x="399" y="88"/>
    </contour>
  </outline>
</glyph>
<glyph name="two" format="2">
  <advance width="548"/>
  <unicode hex="0032"/>
  <outline>
    <contour>
      <point x="516" y="104" type="line"/>
      <point x="172" y="104" type="line"/>
      <point x="192" y="74" type="line"/>
      <point x="351" y="247" type="line" smooth="yes"/>
      <point x="431" y="335"/>
      <point x="494" y="425"/>
      <point x="494" y="517" type="curve" smooth="yes"/>
      <point x="494" y="636"/>
      <point x="405" y="710"/>
      <point x="291" y="710" type="curve" smooth="yes"/>
      <point x="184" y="710"/>
      <point x="87" y="649"/>
      <point x="51" y="525" type="curve"/>
      <point x="134" y="473" type="line"/>
      <point x="164" y="570"/>
      <point x="232" y="610"/>
      <point x="278" y="610" type="curve"/>
      <point x="341" y="610"/>
      <point x="383" y="575"/>
      <point x="383" y="509" type="curve"/>
      <point x="383" y="445"/>
      <point x="329" y="384"/>
      <point x="274" y="323" type="curve" smooth="yes"/>
      <point x="60" y="82" type="line"/>
      <point x="93" y="0" type="line"/>
      <point x="516" y="0" type="line"/>
    </contour>
  </outline>
</glyph>
<glyph name="three" format="2">
  <advance width="529"/>
  <unicode hex="0033"/>
  <outline>
    <contour>
      <point x="104" y="191" type="curve"/>
      <point x="20" y="138" type="line"/>
      <point x="70" y="55"/>
      <point x="132" y="-10"/>
      <point x="251" y="-10" type="curve"/>
      <point x="377" y="-10"/>
      <point x="494" y="82"/>
      <point x="494" y="227" type="curve"/>
      <point x="494" y="350"/>
      <point x="398" y="443"/>
      <point x="283" y="443" type="curve"/>
      <point x="267" y="443"/>
      <point x="236" y="437"/>
      <point x="226" y="432" type="curve"/>
      <point x="251" y="406" type="line"/>
      <point x="480" y="660" type="line"/>
      <point x="460" y="700" type="line"/>
      <point x="59" y="700" type="line"/>
      <point x="59" y="600" type="line"/>
      <point x="357" y="600" type="line"/>
      <point x="336" y="631" type="line"/>
      <point x="120" y="393" type="line"/>
      <point x="150" y="314" type="line"/>
      <point x="186" y="329"/>
      <point x="230" y="344"/>
      <point x="271" y="344" type="curve" smooth="yes"/>
      <point x="334" y="344"/>
      <point x="390" y="311"/>
      <point x="390" y="221" type="curve"/>
      <point x="390" y="132"/>
      <point x="318" y="85"/>
      <point x="259" y="85" type="curve" smooth="yes"/>
      <point x="182" y="85"/>
      <point x="134" y="146"/>
    </contour>
  </outline>
</glyph>
<glyph name="five" format="2">
  <advance width="568"/>
  <unicode hex="0035"/>
  <outline>
    <contour>
      <point x="257" y="-7" type="curve"/>
      <point x="398" y="-7"/>
      <point x="508" y="98"/>
      <point x="508" y="238" type="curve" smooth="yes"/>
      <point x="508" y="379"/>
      <point x="405" y="468"/>
      <point x="284" y="468" type="curve"/>
      <point x="227" y="468"/>
      <point x="158" y="445"/>
      <point x="140" y="426" type="curve"/>
      <point x="165" y="397" type="line"/>
      <point x="198" y="619" type="line"/>
      <point x="177" y="600" type="line"/>
      <point x="487" y="600" type="line"/>
      <point x="487" y="700" type="line"/>
      <point x="109" y="700" type="line"/>
      <point x="68" y="403" type="line"/>
      <point x="125" y="326" type="line"/>
      <point x="151" y="339"/>
      <point x="197" y="368"/>
      <point x="265" y="368" type="curve"/>
      <point x="341" y="368"/>
      <point x="403" y="310"/>
      <point x="403" y="228" type="curve"/>
      <point x="403" y="153"/>
      <point x="341" y="92"/>
      <point x="257" y="92" type="curve"/>
      <point x="189" y="92"/>
      <point x="147" y="129"/>
      <point x="99" y="182" type="curve"/>
      <point x="39" y="115" type="line"/>
      <point x="83" y="45"/>
      <point x="155" y="-7"/>
    </contour>
  </outline>
</glyph>
<glyph name="six" format="2">
  <advance width="557"/>
  <unicode hex="0036"/>
  <outline>
    <contour>
      <point x="283" y="0" type="curve"/>
      <point x="430" y="0"/>
      <point x="522" y="118"/>
      <point x="522" y="260" type="curve" smooth="yes"/>
      <point x="522" y="382"/>
      <point x="426" y="489"/>
      <point x="308" y="489" type="curve" smooth="yes"/>
      <point x="211" y="489"/>
      <point x="148" y="428"/>
      <point x="108" y="363" type="curve"/>
      <point x="132" y="260" type="line"/>
      <point x="150" y="336"/>
      <point x="199" y="433"/>
      <point x="249" y="517" type="curve" smooth="yes"/>
      <point x="359" y="702" type="line"/>
      <point x="355" y="712" type="line"/>
      <point x="250" y="712" type="line"/>
      <point x="159" y="558" type="line" smooth="yes"/>
      <point x="102" y="462"/>
      <point x="40" y="336"/>
      <point x="40" y="247" type="curve" smooth="yes"/>
      <point x="40" y="100"/>
      <point x="149" y="0"/>
    </contour>
    <contour>
      <point x="283" y="100" type="curve"/>
      <point x="196" y="100"/>
      <point x="144" y="170"/>
      <point x="144" y="248" type="curve" smooth="yes"/>
      <point x="144" y="321"/>
      <point x="197" y="389"/>
      <point x="285" y="389" type="curve" smooth="yes"/>
      <point x="364" y="389"/>
      <point x="418" y="316"/>
      <point x="418" y="247" type="curve" smooth="yes"/>
      <point x="418" y="154"/>
      <point x="355" y="100"/>
    </contour>
  </outline>
</glyph>
<glyph name="seven" format="2">
  <advance width="542"/>
  <unicode hex="0037"/>
  <outline>
    <contour>
      <point x="112" y="0" type="line"/>
      <point x="228" y="0" type="line"/>
      <point x="507" y="631" type="line"/>
      <point x="493" y="700" type="line"/>
      <point x="60" y="700" type="line"/>
      <point x="60" y="600" type="line"/>
      <point x="414" y="600" type="line"/>
      <point x="402" y="632" type="line"/>
    </contour>
  </outline>
</glyph>
<glyph name="eight" format="2">
  <advance width="579"/>
  <unicode hex="0038"/>
  <outline>
    <contour>
      <point x="395" y="364" type="line"/>
      <point x="445" y="384"/>
      <point x="508" y="425"/>
      <point x="508" y="509" type="curve" smooth="yes"/>
      <point x="508" y="613"/>
      <point x="412" y="700"/>
      <point x="289" y="700" type="curve"/>
      <point x="166" y="700"/>
      <point x="70" y="613"/>
      <point x="70" y="509" type="curve" smooth="yes"/>
      <point x="70" y="432"/>
      <point x="126" y="385"/>
      <point x="182" y="364" type="curve"/>
      <point x="188" y="385" type="line"/>
      <point x="123" y="356"/>
      <point x="53" y="301"/>
      <point x="53" y="200" type="curve" smooth="yes"/>
      <point x="53" y="88"/>
      <point x="157" y="-3"/>
      <point x="289" y="-3" type="curve"/>
      <point x="422" y="-3"/>
      <point x="526" y="88"/>
      <point x="526" y="200" type="curve" smooth="yes"/>
      <point x="526" y="278"/>
      <point x="471" y="349"/>
      <point x="392" y="381" type="curve"/>
    </contour>
    <contour>
      <point x="177" y="506" type="curve"/>
      <point x="177" y="558"/>
      <point x="224" y="600"/>
      <point x="289" y="600" type="curve"/>
      <point x="354" y="600"/>
      <point x="401" y="558"/>
      <point x="401" y="506" type="curve"/>
      <point x="401" y="452"/>
      <point x="351" y="414"/>
      <point x="289" y="414" type="curve" smooth="yes"/>
      <point x="227" y="414"/>
      <point x="177" y="452"/>
    </contour>
    <contour>
      <point x="289" y="97" type="curve"/>
      <point x="215" y="97"/>
      <point x="160" y="144"/>
      <point x="160" y="204" type="curve"/>
      <point x="160" y="272"/>
      <point x="218" y="318"/>
      <point x="289" y="318" type="curve" smooth="yes"/>
      <point x="361" y="318"/>
      <point x="419" y="272"/>
      <point x="419" y="204" type="curve"/>
      <point x="419" y="144"/>
      <point x="364" y="97"/>
    </contour>
  </outline>
</glyph>
<glyph name="nine" format="2">
  <advance width="551"/>
  <unicode hex="0039"/>
  <outline>
    <contour>
      <point x="274" y="712" type="curve"/>
      <point x="138" y="712"/>
      <point x="30" y="608"/>
      <point x="30" y="462" type="curve" smooth="yes"/>
      <point x="30" y="344"/>
      <point x="126" y="243"/>
      <point x="241" y="243" type="curve"/>
      <point x="324" y="243"/>
      <point x="393" y="299"/>
      <point x="435" y="369" type="curve"/>
      <point x="432" y="452" type="line"/>
      <point x="224" y="10" type="line"/>
      <point x="228" y="0" type="line"/>
      <point x="334" y="0" type="line"/>
      <point x="417" y="174" type="line" smooth="yes"/>
      <point x="469" y="284"/>
      <point x="516" y="392"/>
      <point x="516" y="478" type="curve" smooth="yes"/>
      <point x="516" y="610"/>
      <point x="405" y="712"/>
    </contour>
    <contour>
      <point x="266" y="612" type="curve"/>
      <point x="350" y="612"/>
      <point x="400" y="547"/>
      <point x="400" y="474" type="curve" smooth="yes"/>
      <point x="400" y="406"/>
      <point x="349" y="343"/>
      <point x="264" y="343" type="curve" smooth="yes"/>
      <point x="191" y="343"/>
      <point x="141" y="411"/>
      <point x="141" y="475" type="curve" smooth="yes"/>
      <point x="141" y="562"/>
      <point x="199" y="612"/>
    </contour>
  </outline>
</glyph>
<glyph name="colon" format="2">
  <advance width="268"/>
  <unicode hex="003A"/>
  <note>
colon
</note>
  <outline>
    <contour>
      <point x="134" y="385" type="curve" smooth="yes"/>
      <point x="181" y="385"/>
      <point x="203" y="422"/>
      <point x="203" y="460" type="curve" smooth="yes"/>
      <point x="203" y="505"/>
      <point x="181" y="535"/>
      <point x="134" y="535" type="curve" smooth="yes"/>
      <point x="87" y="535"/>
      <point x="65" y="498"/>
      <point x="65" y="460" type="curve" smooth="yes"/>
      <point x="65" y="415"/>
      <point x="87" y="385"/>
    </contour>
    <contour>
      <point x="134" y="-11" type="curve" smooth="yes"/>
      <point x="181" y="-11"/>
      <point x="203" y="26"/>
      <point x="203" y="64" type="curve" smooth="yes"/>
      <point x="203" y="109"/>
      <point x="181" y="139"/>
      <point x="134" y="139" type="curve" smooth="yes"/>
      <point x="87" y="139"/>
      <point x="65" y="102"/>
      <point x="65" y="64" type="curve" smooth="yes"/>
      <point x="65" y="19"/>
      <point x="87" y="-11"/>
    </contour>
  </outline>
</glyph>
<glyph name="semicolon" format="2">
  <advance width="257"/>
  <unicode hex="003B"/>
  <note>
semicolon
</note>
  <outline>
    <contour>
      <point x="130" y="385" type="curve" smooth="yes"/>
      <point x="177" y="385"/>
      <point x="199" y="422"/>
      <point x="199" y="460" type="curve" smooth="yes"/>
      <point x="199" y="505"/>
      <point x="177" y="535"/>
      <point x="130" y="535" type="curve" smooth="yes"/>
      <point x="83" y="535"/>
      <point x="61" y="498"/>
      <point x="61" y="460" type="curve" smooth="yes"/>
      <point x="61" y="415"/>
      <point x="83" y="385"/>
    </contour>
    <component base="comma" xOffset="-7"/>
  </outline>
</glyph>
<glyph name="equal" format="2">
  <advance width="566"/>
  <unicode hex="003D"/>
  <note>
equal
</note>
  <outline>
    <contour>
      <point x="50" y="331" type="line"/>
      <point x="516" y="331" type="line"/>
      <point x="516" y="421" type="line"/>
      <point x="50" y="421" type="line"/>
    </contour>
    <contour>
      <point x="50" y="142" type="line"/>
      <point x="516" y="142" type="line"/>
      <point x="516" y="231" type="line"/>
      <point x="50" y="231" type="line"/>
    </contour>
  </outline>
</glyph>
<glyph name="greater" format="2">
  <advance width="527"/>
  <unicode hex="003E"/>
  <note>
greater
</note>
  <outline>
    <contour>
      <point x="420" y="218" type="line"/>
      <point x="420" y="285" type="line"/>
      <point x="61" y="79" type="line"/>
      <point x="109" y="4" type="line"/>
      <point x="470" y="211" type="line"/>
      <point x="470" y="292" type="line"/>
      <point x="109" y="499" type="line"/>
      <point x="61" y="424" type="line"/>
    </contour>
  </outline>
</glyph>
<glyph name="question" format="2">
  <advance width="511"/>
  <unicode hex="003F"/>
  <note>
question
</note>
  <outline>
    <contour>
      <point x="167" y="352" type="curve"/>
      <point x="193" y="211" type="line"/>
      <point x="270" y="211" type="line"/>
      <point x="290" y="314" type="line"/>
      <point x="270" y="295" type="line"/>
      <point x="371" y="325"/>
      <point x="471" y="407"/>
      <point x="471" y="511" type="curve" smooth="yes"/>
      <point x="471" y="625"/>
      <point x="372" y="709"/>
      <point x="249" y="709" type="curve" smooth="yes"/>
      <point x="159" y="709"/>
      <point x="77" y="655"/>
      <point x="22" y="570" type="curve"/>
      <point x="97" y="507" type="line"/>
      <point x="132" y="571"/>
      <point x="183" y="612"/>
      <point x="239" y="612" type="curve" smooth="yes"/>
      <point x="306" y="612"/>
      <point x="358" y="570"/>
      <point x="358" y="511" type="curve" smooth="yes"/>
      <point x="358" y="433"/>
      <point x="291" y="385"/>
    </contour>
    <component base="period" xOffset="113"/>
  </outline>
</glyph>
<glyph name="at" format="2">
  <advance width="965"/>
  <unicode hex="0040"/>
  <note>
at
</note>
  <outline>
    <contour>
      <point x="669" y="55" type="curve"/>
      <point x="825" y="55"/>
      <point x="925" y="233"/>
      <point x="925" y="396" type="curve"/>
      <point x="925" y="568"/>
      <point x="804" y="710"/>
      <point x="576" y="710" type="curve"/>
      <point x="278" y="710"/>
      <point x="40" y="518"/>
      <point x="40" y="206" type="curve"/>
      <point x="40" y="24"/>
      <point x="145" y="-162"/>
      <point x="414" y="-162" type="curve"/>
      <point x="526" y="-162"/>
      <point x="595" y="-127"/>
      <point x="669" y="-89" type="curve"/>
      <point x="632" y="-22" type="line"/>
      <point x="570" y="-55"/>
      <point x="527" y="-82"/>
      <point x="417" y="-82" type="curve"/>
      <point x="199" y="-82"/>
      <point x="124" y="59"/>
      <point x="124" y="209" type="curve"/>
      <point x="124" y="484"/>
      <point x="310" y="630"/>
      <point x="572" y="630" type="curve"/>
      <point x="743" y="630"/>
      <point x="842" y="538"/>
      <point x="842" y="391" type="curve"/>
      <point x="842" y="265"/>
      <point x="786" y="137"/>
      <point x="700" y="137" type="curve"/>
      <point x="678" y="137"/>
      <point x="657" y="152"/>
      <point x="657" y="186" type="curve" smooth="yes"/>
      <point x="657" y="191"/>
      <point x="657" y="196"/>
      <point x="658" y="201" type="curve"/>
      <point x="708" y="501" type="line"/>
      <point x="607" y="501" type="line"/>
      <point x="581" y="331" type="line"/>
      <point x="605" y="390" type="line"/>
      <point x="598" y="462"/>
      <point x="552" y="510"/>
      <point x="491" y="510" type="curve"/>
      <point x="337" y="510"/>
      <point x="252" y="345"/>
      <point x="252" y="237" type="curve"/>
      <point x="252" y="121"/>
      <point x="321" y="55"/>
      <point x="400" y="55" type="curve"/>
      <point x="467" y="55"/>
      <point x="539" y="93"/>
      <point x="574" y="202" type="curve"/>
      <point x="560" y="222" type="line"/>
      <point x="551" y="151" type="line"/>
      <point x="551" y="93"/>
      <point x="601" y="55"/>
    </contour>
    <contour>
      <point x="423" y="140" type="curve"/>
      <point x="383" y="140"/>
      <point x="354" y="172"/>
      <point x="354" y="232" type="curve"/>
      <point x="354" y="312"/>
      <point x="408" y="425"/>
      <point x="495" y="425" type="curve"/>
      <point x="539" y="425"/>
      <point x="577" y="401"/>
      <point x="577" y="342" type="curve" smooth="yes"/>
      <point x="577" y="326"/>
      <point x="574" y="308"/>
      <point x="568" y="286" type="curve"/>
      <point x="559" y="223"/>
      <point x="496" y="140"/>
    </contour>
  </outline>
</glyph>
<glyph name="A" format="2">
  <advance width="700"/>
  <unicode hex="0041"/>
  <note>
A
</note>
  <anchor x="352" y="0" name="bottom"/>
  <anchor x="609" y="10" name="ogonek"/>
  <anchor x="352" y="700" name="top"/>
  <outline>
    <contour>
      <point x="360" y="613" type="curve"/>
      <point x="337" y="612" type="line"/>
      <point x="359" y="548"/>
      <point x="379" y="478"/>
      <point x="400" y="422" type="curve" smooth="yes"/>
      <point x="560" y="0" type="line"/>
      <point x="675" y="0" type="line"/>
      <point x="406" y="700" type="line"/>
      <point x="296" y="700" type="line"/>
      <point x="25" y="0" type="line"/>
      <point x="135" y="0" type="line"/>
      <point x="294" y="418" type="line" smooth="yes"/>
      <point x="315" y="474"/>
      <point x="336" y="548"/>
    </contour>
    <contour>
      <point x="175" y="174" type="line"/>
      <point x="520" y="174" type="line"/>
      <point x="503" y="278" type="line"/>
      <point x="218" y="278" type="line"/>
    </contour>
  </outline>
</glyph>
<glyph name="B" format="2">
  <advance width="681"/>
  <unicode hex="0042"/>
  <note>
B
</note>
  <anchor x="349" y="0" name="bottom"/>
  <anchor x="349" y="700" name="top"/>
  <outline>
    <contour>
      <point x="390" y="700" type="curve"/>
      <point x="98" y="700" type="line"/>
      <point x="98" y="0" type="line"/>
      <point x="400" y="0" type="line"/>
      <point x="508" y="0"/>
      <point x="633" y="43"/>
      <point x="633" y="206" type="curve"/>
      <point x="633" y="354"/>
      <point x="500" y="399"/>
      <point x="412" y="399" type="curve"/>
      <point x="411" y="363" type="line"/>
      <point x="532" y="365"/>
      <point x="596" y="433"/>
      <point x="596" y="524" type="curve"/>
      <point x="596" y="638"/>
      <point x="526" y="700"/>
    </contour>
    <contour>
      <point x="372" y="596" type="line"/>
      <point x="437" y="596"/>
      <point x="488" y="570"/>
      <point x="488" y="503" type="curve"/>
      <point x="488" y="444"/>
      <point x="439" y="411"/>
      <point x="384" y="410" type="curve"/>
      <point x="197" y="410" type="line"/>
      <point x="206" y="399" type="line"/>
      <point x="206" y="621" type="line"/>
      <point x="196" y="596" type="line"/>
    </contour>
    <contour>
      <point x="389" y="306" type="line"/>
      <point x="450" y="306"/>
      <point x="523" y="283"/>
      <point x="523" y="208" type="curve"/>
      <point x="523" y="137"/>
      <point x="470" y="104"/>
      <point x="394" y="104" type="curve"/>
      <point x="200" y="104" type="line"/>
      <point x="206" y="84" type="line"/>
      <point x="206" y="324" type="line"/>
      <point x="201" y="306" type="line"/>
    </contour>
  </outline>
</glyph>
<glyph name="C" format="2">
  <advance width="679"/>
  <unicode hex="0043"/>
  <note>
C
</note>
  <anchor x="377" y="0" name="bottom"/>
  <anchor x="372" y="700" name="top"/>
  <outline>
    <contour>
      <point x="630" y="86" type="curve"/>
      <point x="576" y="174" type="line"/>
      <point x="540" y="137"/>
      <point x="478" y="99"/>
      <point x="400" y="99" type="curve" smooth="yes"/>
      <point x="271" y="99"/>
      <point x="158" y="182"/>
      <point x="158" y="350" type="curve" smooth="yes"/>
      <point x="158" y="504"/>
      <point x="270" y="598"/>
      <point x="391" y="598" type="curve" smooth="yes"/>
      <point x="461" y="598"/>
      <point x="521" y="561"/>
      <point x="571" y="510" type="curve"/>
      <point x="643" y="585" type="line"/>
      <point x="600" y="646"/>
      <point x="505" y="706"/>
      <point x="391" y="706" type="curve" smooth="yes"/>
      <point x="206" y="706"/>
      <point x="48" y="556"/>
      <point x="48" y="350" type="curve" smooth="yes"/>
      <point x="48" y="131"/>
      <point x="194" y="-10"/>
      <point x="382" y="-10" type="curve" smooth="yes"/>
      <point x="491" y="-10"/>
      <point x="588" y="37"/>
    </contour>
  </outline>
</glyph>
<glyph name="D" format="2">
  <advance width="748"/>
  <unicode hex="0044"/>
  <note>
D
</note>
  <anchor x="335" y="0" name="bottom"/>
  <anchor x="147" y="350" name="center"/>
  <anchor x="325" y="700" name="top"/>
  <outline>
    <contour>
      <point x="372" y="700" type="curve" smooth="yes"/>
      <point x="98" y="700" type="line"/>
      <point x="98" y="0" type="line"/>
      <point x="372" y="0" type="line" smooth="yes"/>
      <point x="588" y="0"/>
      <point x="700" y="157"/>
      <point x="700" y="350" type="curve" smooth="yes"/>
      <point x="700" y="540"/>
      <point x="588" y="700"/>
    </contour>
    <contour>
      <point x="367" y="104" type="curve" smooth="yes"/>
      <point x="203" y="104" type="line"/>
      <point x="206" y="93" type="line"/>
      <point x="206" y="605" type="line"/>
      <point x="200" y="596" type="line"/>
      <point x="367" y="596" type="line" smooth="yes"/>
      <point x="524" y="596"/>
      <point x="590" y="482"/>
      <point x="590" y="350" type="curve" smooth="yes"/>
      <point x="590" y="215"/>
      <point x="524" y="104"/>
    </contour>
  </outline>
</glyph>
<glyph name="G" format="2">
  <advance width="766"/>
  <unicode hex="0047"/>
  <note>
G
</note>
  <anchor x="413" y="0" name="bottom"/>
  <anchor x="400" y="700" name="top"/>
  <outline>
    <contour>
      <point x="410" y="706" type="curve" smooth="yes"/>
      <point x="206" y="706"/>
      <point x="48" y="552"/>
      <point x="48" y="350" type="curve"/>
      <point x="48" y="148"/>
      <point x="207" y="-10"/>
      <point x="411" y="-10" type="curve"/>
      <point x="514" y="-10"/>
      <point x="602" y="32"/>
      <point x="655" y="99" type="curve" smooth="yes"/>
      <point x="701" y="151"/>
      <point x="723" y="225"/>
      <point x="723" y="299" type="curve" smooth="yes"/>
      <point x="723" y="319"/>
      <point x="721" y="339"/>
      <point x="718" y="359" type="curve"/>
      <point x="408" y="359" type="line"/>
      <point x="408" y="252" type="line"/>
      <point x="622" y="252" type="line"/>
      <point x="606" y="266" type="line"/>
      <point x="607" y="259"/>
      <point x="607" y="253"/>
      <point x="607" y="246" type="curve" smooth="yes"/>
      <point x="607" y="158"/>
      <point x="514" y="95"/>
      <point x="414" y="95" type="curve" smooth="yes"/>
      <point x="275" y="95"/>
      <point x="158" y="208"/>
      <point x="158" y="350" type="curve"/>
      <point x="158" y="493"/>
      <point x="267" y="601"/>
      <point x="410" y="601" type="curve" smooth="yes"/>
      <point x="484" y="601"/>
      <point x="549" y="565"/>
      <point x="602" y="514" type="curve"/>
      <point x="672" y="587" type="line"/>
      <point x="627" y="648"/>
      <point x="529" y="706"/>
    </contour>
  </outline>
</glyph>
<glyph name="I" format="2">
  <advance width="478"/>
  <unicode hex="0049"/>
  <note>
I
</note>
  <anchor x="238" y="0" name="bottom"/>
  <anchor x="428" y="10" name="ogonek"/>
  <anchor x="238" y="700" name="top"/>
  <anchor x="123" y="700" name="topleft"/>
  <outline>
    <contour>
      <point x="293" y="0" type="line"/>
      <point x="293" y="700" type="line"/>
      <point x="292" y="700"/>
      <point x="186" y="700"/>
      <point x="185" y="700" type="curve"/>
      <point x="185" y="0" type="line"/>
    </contour>
    <contour>
      <point x="406" y="600" type="line"/>
      <point x="406" y="700" type="line"/>
      <point x="72" y="700" type="line"/>
      <point x="72" y="600" type="line"/>
    </contour>
    <contour>
      <point x="406" y="0" type="line"/>
      <point x="406" y="100" type="line"/>
      <point x="72" y="100" type="line"/>
      <point x="72" y="0" type="line"/>
    </contour>
  </outline>
</glyph>
<glyph name="J" format="2">
  <advance width="642"/>
  <unicode hex="004A"/>
  <note>
J
</note>
  <anchor x="310" y="0" name="bottom"/>
  <anchor x="457" y="700" name="top"/>
  <outline>
    <contour>
      <point x="256" y="-10" type="curve"/>
      <point x="402" y="-10"/>
      <point x="484" y="99"/>
      <point x="484" y="213" type="curve"/>
      <point x="484" y="700" type="line"/>
      <point x="376" y="700" type="line"/>
      <point x="376" y="223" type="line"/>
      <point x="376" y="152"/>
      <point x="331" y="95"/>
      <point x="256" y="95" type="curve" smooth="yes"/>
      <point x="184" y="95"/>
      <point x="152" y="141"/>
      <point x="118" y="188" type="curve"/>
      <point x="50" y="117" type="line"/>
      <point x="66" y="86"/>
      <point x="128" y="-10"/>
    </contour>
    <contour>
      <point x="592" y="600" type="line"/>
      <point x="592" y="700" type="line"/>
      <point x="248" y="700" type="line"/>
      <point x="248" y="600" type="line"/>
    </contour>
  </outline>
</glyph>
<glyph name="K" format="2">
  <advance width="732"/>
  <unicode hex="004B"/>
  <note>
K
</note>
  <anchor x="336" y="0" name="bottom"/>
  <anchor x="348" y="700" name="top"/>
  <outline>
    <contour>
      <point x="562" y="0" type="line"/>
      <point x="697" y="0" type="line"/>
      <point x="374" y="427" type="line"/>
      <point x="307" y="341" type="line"/>
    </contour>
    <contour>
      <point x="691" y="700" type="line"/>
      <point x="549" y="700" type="line"/>
      <point x="315" y="466" type="line"/>
      <point x="182" y="333" type="line"/>
      <point x="188" y="212" type="line"/>
    </contour>
    <contour>
      <point x="206" y="0" type="line"/>
      <point x="206" y="700" type="line"/>
      <point x="205" y="700"/>
      <point x="99" y="700"/>
      <point x="98" y="700" type="curve"/>
      <point x="98" y="0" type="line"/>
    </contour>
  </outline>
</glyph>
<glyph name="L" format="2">
  <advance width="599"/>
  <unicode hex="004C"/>
  <note>
L
</note>
  <anchor x="298" y="0" name="bottom"/>
  <anchor x="291" y="350" name="center"/>
  <anchor x="141" y="700" name="top"/>
  <anchor x="547" y="700" name="topright"/>
  <outline>
    <contour>
      <point x="534" y="104" type="curve"/>
      <point x="178" y="104" type="line"/>
      <point x="206" y="78" type="line"/>
      <point x="206" y="700" type="line"/>
      <point x="98" y="700" type="line"/>
      <point x="98" y="0" type="line"/>
      <point x="534" y="0" type="line"/>
      <point x="534" y="0"/>
      <point x="534" y="104"/>
    </contour>
  </outline>
</glyph>
<glyph name="M" format="2">
  <advance width="864"/>
  <unicode hex="004D"/>
  <note>
M
</note>
  <anchor x="433" y="0" name="bottom"/>
  <anchor x="433" y="700" name="top"/>
  <outline>
    <contour>
      <point x="204" y="700" type="line"/>
      <point x="98" y="700" type="line"/>
      <point x="98" y="0" type="line"/>
      <point x="99" y="0"/>
      <point x="205" y="0"/>
      <point x="206" y="0" type="curve"/>
      <point x="206" y="287" type="line" smooth="yes"/>
      <point x="206" y="398"/>
      <point x="202" y="490"/>
      <point x="186" y="592" type="curve"/>
      <point x="175" y="551" type="line"/>
      <point x="397" y="201" type="line"/>
      <point x="463" y="201" type="line"/>
      <point x="692" y="555" type="line"/>
      <point x="678" y="592" type="line"/>
      <point x="663" y="490"/>
      <point x="658" y="398"/>
      <point x="658" y="287" type="curve" smooth="yes"/>
      <point x="658" y="0" type="line"/>
      <point x="766" y="0" type="line"/>
      <point x="766" y="700" type="line"/>
      <point x="666" y="700" type="line"/>
      <point x="408" y="286" type="line"/>
      <point x="459" y="285" type="line"/>
    </contour>
  </outline>
</glyph>
<glyph name="N" format="2">
  <advance width="793"/>
  <unicode hex="004E"/>
  <note>
N
</note>
  <anchor x="393" y="0" name="bottom"/>
  <anchor x="393" y="700" name="top"/>
  <outline>
    <contour>
      <point x="692" y="700"/>
      <point x="586" y="700"/>
      <point x="587" y="700" type="curve"/>
      <point x="587" y="470" type="line"/>
      <point x="587" y="360"/>
      <point x="591" y="219"/>
      <point x="607" y="118" type="curve"/>
      <point x="623" y="127" type="line"/>
      <point x="195" y="700" type="line"/>
      <point x="98" y="700" type="line"/>
      <point x="98" y="0" type="line"/>
      <point x="206" y="0" type="line"/>
      <point x="206" y="291" type="line"/>
      <point x="206" y="383"/>
      <point x="194" y="474"/>
      <point x="186" y="566" type="curve"/>
      <point x="175" y="552" type="line"/>
      <point x="596" y="0" type="line"/>
      <point x="695" y="0" type="line"/>
      <point x="695" y="700" type="line"/>
    </contour>
  </outline>
</glyph>
<glyph name="O" format="2">
  <advance width="782"/>
  <unicode hex="004F"/>
  <note>
O
</note>
  <anchor x="386" y="0" name="bottom"/>
  <anchor x="386" y="350" name="center"/>
  <anchor x="690" y="10" name="ogonek"/>
  <anchor x="386" y="700" name="top"/>
  <anchor x="25" y="700" name="topleft"/>
  <anchor x="387" y="706" name="topright"/>
  <outline>
    <contour>
      <point x="734" y="350" type="curve"/>
      <point x="734" y="553"/>
      <point x="591" y="710"/>
      <point x="391" y="710" type="curve"/>
      <point x="190" y="710"/>
      <point x="48" y="553"/>
      <point x="48" y="350" type="curve"/>
      <point x="48" y="147"/>
      <point x="190" y="-10"/>
      <point x="391" y="-10" type="curve"/>
      <point x="591" y="-10"/>
      <point x="734" y="147"/>
    </contour>
    <contour>
      <point x="624" y="350" type="curve"/>
      <point x="624" y="205"/>
      <point x="527" y="95"/>
      <point x="391" y="95" type="curve" smooth="yes"/>
      <point x="253" y="95"/>
      <point x="158" y="204"/>
      <point x="158" y="350" type="curve"/>
      <point x="158" y="496"/>
      <point x="253" y="605"/>
      <point x="391" y="605" type="curve" smooth="yes"/>
      <point x="527" y="605"/>
      <point x="624" y="495"/>
    </contour>
  </outline>
</glyph>
<glyph name="P" format="2">
  <advance width="634"/>
  <unicode hex="0050"/>
  <note>
P
</note>
  <anchor x="321" y="0" name="bottom"/>
  <anchor x="321" y="700" name="top"/>
  <outline>
    <contour>
      <point x="383" y="700" type="curve" smooth="yes"/>
      <point x="98" y="700" type="line"/>
      <point x="98" y="0" type="line"/>
      <point x="206" y="0" type="line"/>
      <point x="206" y="282" type="line"/>
      <point x="198" y="268" type="line"/>
      <point x="383" y="268" type="line" smooth="yes"/>
      <point x="495" y="268"/>
      <point x="589" y="364"/>
      <point x="589" y="485" type="curve" smooth="yes"/>
      <point x="589" y="606"/>
      <point x="495" y="700"/>
    </contour>
    <contour>
      <point x="381" y="372" type="curve" smooth="yes"/>
      <point x="197" y="372" type="line"/>
      <point x="206" y="358" type="line"/>
      <point x="206" y="611" type="line"/>
      <point x="197" y="596" type="line"/>
      <point x="381" y="596" type="line" smooth="yes"/>
      <point x="434" y="596"/>
      <point x="479" y="547"/>
      <point x="479" y="485" type="curve" smooth="yes"/>
      <point x="479" y="423"/>
      <point x="434" y="372"/>
    </contour>
  </outline>
</glyph>
<glyph name="Q" format="2">
  <advance width="782"/>
  <unicode hex="0051"/>
  <note>
Q
</note>
  <anchor x="387" y="0" name="bottom"/>
  <anchor x="387" y="700" name="top"/>
  <outline>
    <contour>
      <point x="699" y="-48" type="line"/>
      <point x="437" y="296" type="line"/>
      <point x="436" y="296"/>
      <point x="349" y="237"/>
      <point x="348" y="237" type="curve"/>
      <point x="613" y="-110" type="line"/>
    </contour>
    <contour>
      <point x="734" y="350" type="curve"/>
      <point x="734" y="553"/>
      <point x="591" y="710"/>
      <point x="391" y="710" type="curve"/>
      <point x="190" y="710"/>
      <point x="48" y="553"/>
      <point x="48" y="350" type="curve"/>
      <point x="48" y="147"/>
      <point x="190" y="-10"/>
      <point x="391" y="-10" type="curve"/>
      <point x="591" y="-10"/>
      <point x="734" y="147"/>
    </contour>
    <contour>
      <point x="624" y="350" type="curve"/>
      <point x="624" y="205"/>
      <point x="527" y="95"/>
      <point x="391" y="95" type="curve" smooth="yes"/>
      <point x="253" y="95"/>
      <point x="158" y="204"/>
      <point x="158" y="350" type="curve"/>
      <point x="158" y="496"/>
      <point x="253" y="605"/>
      <point x="391" y="605" type="curve" smooth="yes"/>
      <point x="527" y="605"/>
      <point x="624" y="495"/>
    </contour>
  </outline>
</glyph>
<glyph name="R" format="2">
  <advance width="695"/>
  <unicode hex="0052"/>
  <note>
R
</note>
  <anchor x="365" y="0" name="bottom"/>
  <anchor x="325" y="700" name="top"/>
  <outline>
    <contour>
      <point x="396" y="263" type="line"/>
      <point x="520" y="263"/>
      <point x="617" y="365"/>
      <point x="617" y="477" type="curve"/>
      <point x="617" y="614"/>
      <point x="505" y="700"/>
      <point x="396" y="700" type="curve"/>
      <point x="98" y="700" type="line"/>
      <point x="98" y="0" type="line"/>
      <point x="206" y="0" type="line"/>
      <point x="206" y="630" type="line"/>
      <point x="196" y="596" type="line"/>
      <point x="378" y="596" type="line"/>
      <point x="448" y="596"/>
      <point x="507" y="551"/>
      <point x="507" y="478" type="curve"/>
      <point x="507" y="421"/>
      <point x="470" y="367"/>
      <point x="406" y="367" type="curve"/>
      <point x="193" y="367" type="line"/>
      <point x="193" y="263" type="line"/>
    </contour>
    <contour>
      <point x="447" y="341" type="line"/>
      <point x="336" y="316" type="line"/>
      <point x="514" y="0" type="line"/>
      <point x="645" y="-1" type="line"/>
    </contour>
  </outline>
</glyph>
<glyph name="S" format="2">
  <advance width="624"/>
  <unicode hex="0053"/>
  <note>
S
</note>
  <anchor x="321" y="0" name="bottom"/>
  <anchor x="321" y="700" name="top"/>
  <outline>
    <contour>
      <point x="124" y="211" type="curve"/>
      <point x="50" y="126" type="line"/>
      <point x="116" y="30"/>
      <point x="206" y="-10"/>
      <point x="314" y="-10" type="curve" smooth="yes"/>
      <point x="472" y="-10"/>
      <point x="569" y="75"/>
      <point x="569" y="208" type="curve" smooth="yes"/>
      <point x="569" y="320"/>
      <point x="455" y="380"/>
      <point x="337" y="405" type="curve" smooth="yes"/>
      <point x="250" y="423"/>
      <point x="193" y="449"/>
      <point x="193" y="517" type="curve"/>
      <point x="193" y="577"/>
      <point x="249" y="613"/>
      <point x="323" y="613" type="curve"/>
      <point x="396" y="613"/>
      <point x="451" y="572"/>
      <point x="487" y="512" type="curve"/>
      <point x="563" y="587" type="line"/>
      <point x="517" y="666"/>
      <point x="436" y="710"/>
      <point x="326" y="710" type="curve"/>
      <point x="198" y="710"/>
      <point x="85" y="634"/>
      <point x="85" y="514" type="curve"/>
      <point x="85" y="389"/>
      <point x="168" y="327"/>
      <point x="299" y="301" type="curve" smooth="yes"/>
      <point x="401" y="281"/>
      <point x="461" y="246"/>
      <point x="461" y="180" type="curve" smooth="yes"/>
      <point x="461" y="121"/>
      <point x="393" y="87"/>
      <point x="325" y="87" type="curve" smooth="yes"/>
      <point x="230" y="87"/>
      <point x="179" y="132"/>
    </contour>
  </outline>
</glyph>
<glyph name="U" format="2">
  <advance width="740"/>
  <unicode hex="0055"/>
  <note>
U
</note>
  <anchor x="370" y="0" name="bottom"/>
  <anchor x="653" y="10" name="ogonek"/>
  <anchor x="370" y="700" name="top"/>
  <anchor x="512" y="708" name="topright"/>
  <outline>
    <contour>
      <point x="652" y="701" type="line"/>
      <point x="549" y="701" type="line"/>
      <point x="549" y="278" type="line"/>
      <point x="549" y="173"/>
      <point x="466" y="98"/>
      <point x="370" y="98" type="curve"/>
      <point x="279" y="98"/>
      <point x="196" y="173"/>
      <point x="196" y="278" type="curve"/>
      <point x="196" y="701" type="line"/>
      <point x="88" y="701" type="line"/>
      <point x="88" y="269" type="line"/>
      <point x="88" y="110"/>
      <point x="207" y="-6"/>
      <point x="370" y="-6" type="curve"/>
      <point x="533" y="-6"/>
      <point x="652" y="110"/>
      <point x="652" y="269" type="curve"/>
    </contour>
  </outline>
</glyph>
<glyph name="W" format="2">
  <advance width="996"/>
  <unicode hex="0057"/>
  <note>
W
</note>
  <anchor x="497" y="0" name="bottom"/>
  <anchor x="497" y="700" name="top"/>
  <outline>
    <contour>
      <point x="972" y="700" type="line"/>
      <point x="856" y="700" type="line"/>
      <point x="723" y="265" type="line" smooth="yes"/>
      <point x="700" y="191"/>
      <point x="695" y="149"/>
      <point x="688" y="112" type="curve"/>
      <point x="714" y="119" type="line"/>
      <point x="705" y="153"/>
      <point x="697" y="194"/>
      <point x="670" y="263" type="curve" smooth="yes"/>
      <point x="548" y="579" type="line"/>
      <point x="451" y="579" type="line"/>
      <point x="325" y="263" type="line" smooth="yes"/>
      <point x="300" y="200"/>
      <point x="290" y="149"/>
      <point x="279" y="110" type="curve"/>
      <point x="308" y="109" type="line"/>
      <point x="300" y="149"/>
      <point x="293" y="200"/>
      <point x="274" y="262" type="curve" smooth="yes"/>
      <point x="139" y="700" type="line"/>
      <point x="24" y="700" type="line"/>
      <point x="247" y="0" type="line"/>
      <point x="320" y="0" type="line"/>
      <point x="498" y="434" type="line"/>
      <point x="489" y="438" type="line"/>
      <point x="674" y="0" type="line"/>
      <point x="749" y="0" type="line"/>
    </contour>
  </outline>
</glyph>
<glyph name="X" format="2">
  <advance width="685"/>
  <unicode hex="0058"/>
  <note>
X
</note>
  <anchor x="341" y="0" name="bottom"/>
  <anchor x="341" y="700" name="top"/>
  <outline>
    <contour>
      <point x="651" y="700" type="line"/>
      <point x="524" y="700" type="line"/>
      <point x="328" y="401" type="line"/>
      <point x="394" y="325" type="line"/>
    </contour>
    <contour>
      <point x="166" y="700" type="line"/>
      <point x="29" y="700" type="line"/>
      <point x="307" y="314" type="line"/>
      <point x="524" y="0" type="line"/>
      <point x="661" y="0" type="line"/>
      <point x="378" y="390" type="line"/>
    </contour>
    <contour>
      <point x="24" y="0" type="line"/>
      <point x="151" y="0" type="line"/>
      <point x="358" y="302" type="line"/>
      <point x="291" y="381" type="line"/>
    </contour>
  </outline>
</glyph>
<glyph name="a" format="2">
  <advance width="633"/>
  <unicode hex="0061"/>
  <note>
a
</note>
  <anchor x="311" y="-20" name="bottom"/>
  <anchor x="560" y="3" name="ogonek"/>
  <anchor x="307" y="530" name="top"/>
  <outline>
    <contour>
      <point x="561" y="525" type="line"/>
      <point x="457" y="525" type="line"/>
      <point x="457" y="389" type="line"/>
      <point x="487" y="381" type="line"/>
      <point x="487" y="442"/>
      <point x="410" y="536"/>
      <point x="294" y="536" type="curve"/>
      <point x="146" y="536"/>
      <point x="38" y="424"/>
      <point x="38" y="264" type="curve"/>
      <point x="38" y="104"/>
      <point x="145" y="-10"/>
      <point x="277" y="-10" type="curve"/>
      <point x="394" y="-10"/>
      <point x="477" y="83"/>
      <point x="477" y="132" type="curve"/>
      <point x="457" y="125" type="line"/>
      <point x="457" y="0" type="line"/>
      <point x="561" y="0" type="line"/>
    </contour>
    <contour>
      <point x="301" y="85" type="curve"/>
      <point x="208" y="85"/>
      <point x="143" y="161"/>
      <point x="143" y="264" type="curve"/>
      <point x="143" y="366"/>
      <point x="208" y="441"/>
      <point x="301" y="441" type="curve"/>
      <point x="396" y="441"/>
      <point x="461" y="364"/>
      <point x="461" y="264" type="curve"/>
      <point x="461" y="161"/>
      <point x="396" y="85"/>
    </contour>
  </outline>
</glyph>
<glyph name="b" format="2">
  <advance width="630"/>
  <unicode hex="0062"/>
  <note>
b
</note>
  <anchor x="316" y="0" name="bottom"/>
  <anchor x="316" y="510" name="top"/>
  <outline>
    <contour>
      <point x="345" y="536" type="curve"/>
      <point x="251" y="536"/>
      <point x="170" y="466"/>
      <point x="159" y="414" type="curve"/>
      <point x="175" y="405" type="line"/>
      <point x="175" y="740" type="line"/>
      <point x="72" y="740" type="line"/>
      <point x="72" y="3" type="line"/>
      <point x="175" y="3" type="line"/>
      <point x="175" y="131" type="line"/>
      <point x="149" y="117" type="line"/>
      <point x="161" y="65"/>
      <point x="244" y="-10"/>
      <point x="348" y="-10" type="curve"/>
      <point x="484" y="-10"/>
      <point x="590" y="104"/>
      <point x="590" y="264" type="curve"/>
      <point x="590" y="424"/>
      <point x="485" y="536"/>
    </contour>
    <contour>
      <point x="331" y="442" type="curve"/>
      <point x="425" y="442"/>
      <point x="491" y="366"/>
      <point x="491" y="264" type="curve"/>
      <point x="491" y="162"/>
      <point x="425" y="84"/>
      <point x="331" y="84" type="curve"/>
      <point x="236" y="84"/>
      <point x="170" y="162"/>
      <point x="170" y="264" type="curve"/>
      <point x="170" y="366"/>
      <point x="236" y="442"/>
    </contour>
  </outline>
</glyph>
<glyph name="c" format="2">
  <advance width="535"/>
  <unicode hex="0063"/>
  <note>
c
</note>
  <anchor x="259" y="0" name="bottom"/>
  <anchor x="299" y="530" name="top"/>
  <outline>
    <contour>
      <point x="138" y="263" type="curve" smooth="yes"/>
      <point x="138" y="367"/>
      <point x="210" y="443"/>
      <point x="305" y="443" type="curve" smooth="yes"/>
      <point x="358" y="443"/>
      <point x="422" y="405"/>
      <point x="453" y="360" type="curve"/>
      <point x="510" y="430" type="line"/>
      <point x="472" y="493"/>
      <point x="392" y="536"/>
      <point x="295" y="536" type="curve"/>
      <point x="150" y="536"/>
      <point x="40" y="418"/>
      <point x="40" y="263" type="curve" smooth="yes"/>
      <point x="40" y="108"/>
      <point x="150" y="-10"/>
      <point x="295" y="-10" type="curve"/>
      <point x="387" y="-10"/>
      <point x="471" y="38"/>
      <point x="510" y="93" type="curve"/>
      <point x="453" y="163" type="line"/>
      <point x="422" y="125"/>
      <point x="373" y="83"/>
      <point x="306" y="83" type="curve"/>
      <point x="217" y="83"/>
      <point x="138" y="159"/>
    </contour>
  </outline>
</glyph>
<glyph name="d" format="2">
  <advance width="634"/>
  <unicode hex="0064"/>
  <note>
d
</note>
  <anchor x="321" y="-20" name="bottom"/>
  <anchor x="486" y="614" name="center"/>
  <anchor x="321" y="530" name="top"/>
  <anchor x="608" y="510" name="topright"/>
  <outline>
    <contour>
      <point x="564" y="740" type="line"/>
      <point x="461" y="740" type="line"/>
      <point x="461" y="389" type="line"/>
      <point x="491" y="391" type="line"/>
      <point x="491" y="452"/>
      <point x="403" y="536"/>
      <point x="288" y="536" type="curve"/>
      <point x="149" y="536"/>
      <point x="40" y="423"/>
      <point x="40" y="263" type="curve"/>
      <point x="40" y="104"/>
      <point x="149" y="-10"/>
      <point x="291" y="-10" type="curve"/>
      <point x="398" y="-10"/>
      <point x="481" y="74"/>
      <point x="481" y="125" type="curve"/>
      <point x="461" y="125" type="line"/>
      <point x="461" y="0" type="line"/>
      <point x="564" y="0" type="line"/>
    </contour>
    <contour>
      <point x="305" y="79" type="curve"/>
      <point x="211" y="79"/>
      <point x="145" y="158"/>
      <point x="145" y="263" type="curve"/>
      <point x="145" y="368"/>
      <point x="211" y="447"/>
      <point x="305" y="447" type="curve"/>
      <point x="400" y="447"/>
      <point x="465" y="368"/>
      <point x="465" y="263" type="curve"/>
      <point x="465" y="158"/>
      <point x="400" y="79"/>
    </contour>
  </outline>
</glyph>
<glyph name="e" format="2">
  <advance width="586"/>
  <unicode hex="0065"/>
  <note>
e
</note>
  <anchor x="292" y="-20" name="bottom"/>
  <anchor x="521" y="10" name="ogonek"/>
  <anchor x="293" y="530" name="top"/>
  <outline>
    <contour>
      <point x="523" y="69" type="curve"/>
      <point x="472" y="144" type="line"/>
      <point x="442" y="118"/>
      <point x="400" y="84"/>
      <point x="327" y="84" type="curve"/>
      <point x="217" y="84"/>
      <point x="142" y="154"/>
      <point x="142" y="264" type="curve"/>
      <point x="142" y="395"/>
      <point x="215" y="442"/>
      <point x="308" y="442" type="curve"/>
      <point x="373" y="442"/>
      <point x="434" y="395"/>
      <point x="441" y="327" type="curve"/>
      <point x="441" y="303" type="line"/>
      <point x="456" y="320" type="line"/>
      <point x="93" y="320" type="line"/>
      <point x="116" y="238" type="line"/>
      <point x="545" y="238" type="line"/>
      <point x="546" y="282" type="line"/>
      <point x="546" y="433"/>
      <point x="440" y="536"/>
      <point x="308" y="537" type="curve"/>
      <point x="163" y="536"/>
      <point x="40" y="433"/>
      <point x="40" y="257" type="curve"/>
      <point x="40" y="102"/>
      <point x="153" y="-10"/>
      <point x="317" y="-10" type="curve"/>
      <point x="398" y="-10"/>
      <point x="479" y="28"/>
      <point x="522" y="69" type="curve"/>
      <point x="522" y="69"/>
      <point x="522" y="69"/>
    </contour>
  </outline>
</glyph>
<glyph name="f" format="2">
  <advance width="393"/>
  <unicode hex="0066"/>
  <note>
f
</note>
  <anchor x="197" y="0" name="bottom"/>
  <anchor x="197" y="510" name="top"/>
  <outline>
    <contour>
      <point x="357" y="421" type="line"/>
      <point x="357" y="516" type="line"/>
      <point x="45" y="516" type="line"/>
      <point x="45" y="421" type="line"/>
    </contour>
    <contour>
      <point x="355" y="616" type="curve"/>
      <point x="390" y="695" type="line"/>
      <point x="374" y="714"/>
      <point x="338" y="739"/>
      <point x="285" y="739" type="curve" smooth="yes"/>
      <point x="193" y="739"/>
      <point x="129" y="675"/>
      <point x="129" y="584" type="curve" smooth="yes"/>
      <point x="129" y="0" type="line" smooth="yes"/>
      <point x="129" y="0"/>
      <point x="233" y="0"/>
      <point x="233" y="0" type="curve" smooth="yes"/>
      <point x="233" y="584" type="line" smooth="yes"/>
      <point x="233" y="617"/>
      <point x="249" y="643"/>
      <point x="297" y="643" type="curve" smooth="yes"/>
      <point x="318" y="643"/>
      <point x="341" y="629"/>
    </contour>
  </outline>
</glyph>
<glyph name="g" format="2">
  <advance width="649"/>
  <unicode hex="0067"/>
  <note>
g
</note>
  <anchor x="327" y="0" name="bottom"/>
  <anchor x="327" y="535" name="top"/>
  <outline>
    <contour>
      <point x="144" y="-87" type="curve"/>
      <point x="106" y="-167" type="line"/>
      <point x="151" y="-204"/>
      <point x="232" y="-230"/>
      <point x="307" y="-230" type="curve"/>
      <point x="451" y="-230"/>
      <point x="577" y="-156"/>
      <point x="577" y="32" type="curve"/>
      <point x="577" y="525" type="line"/>
      <point x="474" y="525" type="line"/>
      <point x="474" y="402" type="line"/>
      <point x="496" y="400" type="line"/>
      <point x="496" y="449"/>
      <point x="411" y="536"/>
      <point x="297" y="536" type="curve"/>
      <point x="153" y="536"/>
      <point x="40" y="423"/>
      <point x="40" y="263" type="curve"/>
      <point x="40" y="104"/>
      <point x="153" y="-10"/>
      <point x="300" y="-10" type="curve"/>
      <point x="393" y="-10"/>
      <point x="476" y="57"/>
      <point x="485" y="114" type="curve"/>
      <point x="474" y="121" type="line"/>
      <point x="474" y="20" type="line"/>
      <point x="474" y="-86"/>
      <point x="415" y="-138"/>
      <point x="307" y="-138" type="curve"/>
      <point x="249" y="-138"/>
      <point x="184" y="-118"/>
    </contour>
    <contour>
      <point x="311" y="442" type="curve"/>
      <point x="410" y="442"/>
      <point x="478" y="366"/>
      <point x="478" y="263" type="curve"/>
      <point x="478" y="160"/>
      <point x="410" y="85"/>
      <point x="311" y="85" type="curve"/>
      <point x="214" y="85"/>
      <point x="145" y="161"/>
      <point x="145" y="263" type="curve"/>
      <point x="145" y="365"/>
      <point x="214" y="442"/>
    </contour>
  </outline>
</glyph>
<glyph name="h" format="2">
  <advance width="595"/>
  <unicode hex="0068"/>
  <note>
h
</note>
  <anchor x="292" y="0" name="bottom"/>
  <anchor x="122" y="593" name="center"/>
  <anchor x="121" y="729" name="top"/>
  <outline>
    <contour>
      <point x="347" y="536" type="curve"/>
      <point x="254" y="536"/>
      <point x="175" y="466"/>
      <point x="157" y="405" type="curve"/>
      <point x="175" y="417" type="line"/>
      <point x="175" y="740" type="line"/>
      <point x="72" y="740" type="line"/>
      <point x="72" y="0" type="line"/>
      <point x="72" y="0"/>
      <point x="175" y="0"/>
      <point x="175" y="0" type="curve"/>
      <point x="175" y="318" type="line"/>
      <point x="175" y="386"/>
      <point x="233" y="442"/>
      <point x="313" y="442" type="curve"/>
      <point x="398" y="447"/>
      <point x="424" y="389"/>
      <point x="424" y="313" type="curve"/>
      <point x="424" y="0" type="line"/>
      <point x="527" y="0" type="line"/>
      <point x="527" y="320" type="line"/>
      <point x="527" y="439"/>
      <point x="488" y="536"/>
    </contour>
  </outline>
</glyph>
<glyph name="l" format="2">
  <advance width="251"/>
  <unicode hex="006C"/>
  <note>
l
</note>
  <anchor x="122" y="0" name="bottom"/>
  <anchor x="122" y="289" name="center"/>
  <anchor x="123" y="740" name="top"/>
  <anchor x="229" y="580" name="topright"/>
  <outline>
    <contour>
      <point x="74" y="0" type="line"/>
      <point x="177" y="0" type="line"/>
      <point x="177" y="740" type="line"/>
      <point x="74" y="740" type="line"/>
    </contour>
  </outline>
</glyph>
<glyph name="m" format="2">
  <advance width="921"/>
  <unicode hex="006D"/>
  <note>
m
</note>
  <anchor x="466" y="0" name="bottom"/>
  <anchor x="466" y="510" name="top"/>
  <outline>
    <contour>
      <point x="339" y="534" type="curve"/>
      <point x="246" y="534"/>
      <point x="172" y="460"/>
      <point x="155" y="401" type="curve"/>
      <point x="174" y="413" type="line"/>
      <point x="174" y="525" type="line"/>
      <point x="70" y="525" type="line"/>
      <point x="70" y="0" type="line"/>
      <point x="174" y="0" type="line"/>
      <point x="174" y="316" type="line"/>
      <point x="174" y="383"/>
      <point x="229" y="439"/>
      <point x="306" y="439" type="curve"/>
      <point x="379" y="439"/>
      <point x="409" y="386"/>
      <point x="409" y="311" type="curve"/>
      <point x="409" y="0" type="line"/>
      <point x="513" y="0" type="line"/>
      <point x="513" y="314" type="line"/>
      <point x="513" y="383"/>
      <point x="568" y="439"/>
      <point x="646" y="439" type="curve"/>
      <point x="727" y="439"/>
      <point x="751" y="386"/>
      <point x="751" y="309" type="curve"/>
      <point x="751" y="0" type="line"/>
      <point x="855" y="0" type="line"/>
      <point x="855" y="315" type="line"/>
      <point x="855" y="436"/>
      <point x="816" y="534"/>
      <point x="680" y="534" type="curve"/>
      <point x="596" y="534"/>
      <point x="522" y="471"/>
      <point x="497" y="420" type="curve"/>
      <point x="490" y="403" type="line"/>
      <point x="506" y="399" type="line"/>
      <point x="488" y="481"/>
      <point x="436" y="534"/>
    </contour>
  </outline>
</glyph>
<glyph name="n" format="2">
  <advance width="595"/>
  <unicode hex="006E"/>
  <note>
n
</note>
  <anchor x="303" y="0" name="bottom"/>
  <anchor x="303" y="510" name="top"/>
  <outline>
    <contour>
      <point x="347" y="536" type="curve"/>
      <point x="254" y="536"/>
      <point x="175" y="466"/>
      <point x="157" y="405" type="curve"/>
      <point x="175" y="417" type="line"/>
      <point x="175" y="525" type="line"/>
      <point x="72" y="525" type="line"/>
      <point x="72" y="0" type="line"/>
      <point x="72" y="0"/>
      <point x="175" y="0"/>
      <point x="175" y="0" type="curve"/>
      <point x="175" y="318" type="line"/>
      <point x="175" y="386"/>
      <point x="233" y="442"/>
      <point x="313" y="442" type="curve"/>
      <point x="398" y="447"/>
      <point x="424" y="389"/>
      <point x="424" y="313" type="curve"/>
      <point x="424" y="0" type="line"/>
      <point x="527" y="0" type="line"/>
      <point x="527" y="320" type="line"/>
      <point x="527" y="439"/>
      <point x="488" y="536"/>
    </contour>
  </outline>
</glyph>
<glyph name="o" format="2">
  <advance width="615"/>
  <unicode hex="006F"/>
  <note>
o
</note>
  <anchor x="305" y="0" name="bottom"/>
  <anchor x="305" y="256" name="center"/>
  <anchor x="547" y="10" name="ogonek"/>
  <anchor x="305" y="513" name="top"/>
  <anchor x="319" y="531" name="topright"/>
  <outline>
    <contour>
      <point x="575" y="263" type="curve"/>
      <point x="575" y="423"/>
      <point x="458" y="536"/>
      <point x="308" y="536" type="curve"/>
      <point x="157" y="536"/>
      <point x="40" y="423"/>
      <point x="40" y="263" type="curve"/>
      <point x="40" y="103"/>
      <point x="157" y="-10"/>
      <point x="308" y="-10" type="curve"/>
      <point x="458" y="-10"/>
      <point x="575" y="103"/>
    </contour>
    <contour>
      <point x="470" y="263" type="curve"/>
      <point x="472" y="158"/>
      <point x="400" y="84"/>
      <point x="308" y="84" type="curve"/>
      <point x="216" y="84"/>
      <point x="143" y="158"/>
      <point x="145" y="263" type="curve"/>
      <point x="143" y="369"/>
      <point x="216" y="442"/>
      <point x="308" y="442" type="curve"/>
      <point x="400" y="442"/>
      <point x="472" y="369"/>
    </contour>
  </outline>
</glyph>
<glyph name="p" format="2">
  <advance width="631"/>
  <unicode hex="0070"/>
  <note>
p
</note>
  <anchor x="317" y="0" name="bottom"/>
  <anchor x="317" y="510" name="top"/>
  <outline>
    <contour>
      <point x="346" y="534" type="curve"/>
      <point x="252" y="534"/>
      <point x="171" y="467"/>
      <point x="160" y="414" type="curve"/>
      <point x="176" y="405" type="line"/>
      <point x="176" y="526" type="line"/>
      <point x="72" y="526" type="line"/>
      <point x="72" y="-220" type="line"/>
      <point x="176" y="-220" type="line"/>
      <point x="176" y="131" type="line"/>
      <point x="150" y="117" type="line"/>
      <point x="162" y="65"/>
      <point x="245" y="-9"/>
      <point x="349" y="-9" type="curve"/>
      <point x="485" y="-9"/>
      <point x="591" y="104"/>
      <point x="591" y="263" type="curve"/>
      <point x="591" y="422"/>
      <point x="486" y="534"/>
    </contour>
    <contour>
      <point x="332" y="439" type="curve"/>
      <point x="426" y="439"/>
      <point x="492" y="364"/>
      <point x="492" y="263" type="curve"/>
      <point x="492" y="163"/>
      <point x="426" y="86"/>
      <point x="332" y="86" type="curve"/>
      <point x="237" y="86"/>
      <point x="171" y="163"/>
      <point x="171" y="263" type="curve"/>
      <point x="171" y="364"/>
      <point x="237" y="439"/>
    </contour>
  </outline>
</glyph>
<glyph name="q" format="2">
  <advance width="630"/>
  <unicode hex="0071"/>
  <note>
q
</note>
  <anchor x="315" y="0" name="bottom"/>
  <anchor x="315" y="510" name="top"/>
  <outline>
    <contour>
      <point x="558" y="526" type="line"/>
      <point x="455" y="526" type="line"/>
      <point x="455" y="389" type="line"/>
      <point x="485" y="391" type="line"/>
      <point x="485" y="452"/>
      <point x="398" y="536"/>
      <point x="285" y="536" type="curve"/>
      <point x="148" y="536"/>
      <point x="40" y="423"/>
      <point x="40" y="263" type="curve"/>
      <point x="40" y="104"/>
      <point x="148" y="-10"/>
      <point x="288" y="-10" type="curve"/>
      <point x="393" y="-10"/>
      <point x="475" y="74"/>
      <point x="475" y="125" type="curve"/>
      <point x="455" y="125" type="line"/>
      <point x="455" y="-220" type="line"/>
      <point x="558" y="-220" type="line"/>
    </contour>
    <contour>
      <point x="299" y="85" type="curve"/>
      <point x="205" y="85"/>
      <point x="139" y="161"/>
      <point x="139" y="263" type="curve"/>
      <point x="139" y="365"/>
      <point x="205" y="442"/>
      <point x="299" y="442" type="curve"/>
      <point x="394" y="442"/>
      <point x="459" y="365"/>
      <point x="459" y="263" type="curve"/>
      <point x="459" y="161"/>
      <point x="394" y="85"/>
    </contour>
  </outline>
</glyph>
<glyph name="r" format="2">
  <advance width="403"/>
  <unicode hex="0072"/>
  <note>
r
</note>
  <anchor x="126" y="0" name="bottom"/>
  <anchor x="217" y="510" name="top"/>
  <outline>
    <contour>
      <point x="366" y="414" type="curve"/>
      <point x="393" y="526" type="line"/>
      <point x="381" y="532"/>
      <point x="358" y="536"/>
      <point x="336" y="536" type="curve"/>
      <point x="262" y="536"/>
      <point x="188" y="476"/>
      <point x="166" y="400" type="curve"/>
      <point x="176" y="360" type="line"/>
      <point x="176" y="525" type="line"/>
      <point x="72" y="525" type="line"/>
      <point x="72" y="0" type="line"/>
      <point x="176" y="0" type="line"/>
      <point x="176" y="290" type="line"/>
      <point x="176" y="373"/>
      <point x="247" y="426"/>
      <point x="311" y="426" type="curve" smooth="yes"/>
      <point x="332" y="426"/>
      <point x="353" y="420"/>
    </contour>
  </outline>
</glyph>
<glyph name="s" format="2">
  <advance width="479"/>
  <unicode hex="0073"/>
  <note>
s
</note>
  <anchor x="238" y="0" name="bottom"/>
  <anchor x="238" y="530" name="top"/>
  <outline>
    <contour>
      <point x="375" y="387" type="curve"/>
      <point x="434" y="452" type="line"/>
      <point x="386" y="511"/>
      <point x="304" y="536"/>
      <point x="241" y="536" type="curve"/>
      <point x="142" y="536"/>
      <point x="53" y="478"/>
      <point x="53" y="385" type="curve"/>
      <point x="53" y="273"/>
      <point x="148" y="240"/>
      <point x="234" y="217" type="curve"/>
      <point x="292" y="202"/>
      <point x="340" y="190"/>
      <point x="340" y="142" type="curve"/>
      <point x="340" y="92"/>
      <point x="293" y="75"/>
      <point x="256" y="75" type="curve"/>
      <point x="189" y="75"/>
      <point x="146" y="100"/>
      <point x="110" y="141" type="curve"/>
      <point x="40" y="81" type="line"/>
      <point x="92" y="14"/>
      <point x="171" y="-10"/>
      <point x="247" y="-10" type="curve"/>
      <point x="342" y="-10"/>
      <point x="437" y="48"/>
      <point x="437" y="146" type="curve"/>
      <point x="437" y="259"/>
      <point x="349" y="288"/>
      <point x="267" y="310" type="curve"/>
      <point x="204" y="326"/>
      <point x="157" y="340"/>
      <point x="156" y="388" type="curve"/>
      <point x="156" y="439"/>
      <point x="204" y="451"/>
      <point x="246" y="451" type="curve"/>
      <point x="286" y="451"/>
      <point x="338" y="424"/>
    </contour>
  </outline>
</glyph>
<glyph name="u" format="2">
  <advance width="605"/>
  <unicode hex="0075"/>
  <note>
u
</note>
  <anchor x="299" y="0" name="bottom"/>
  <anchor x="530" y="0" name="ogonek"/>
  <anchor x="299" y="510" name="top"/>
  <anchor x="386" y="532" name="topright"/>
  <outline>
    <contour>
      <point x="430" y="209" type="line" smooth="yes"/>
      <point x="430" y="128"/>
      <point x="370" y="80"/>
      <point x="298" y="80" type="curve" smooth="yes"/>
      <point x="211" y="80"/>
      <point x="175" y="149"/>
      <point x="175" y="229" type="curve"/>
      <point x="175" y="525" type="line"/>
      <point x="72" y="525" type="line"/>
      <point x="72" y="201" type="line"/>
      <point x="72" y="69"/>
      <point x="146" y="-10"/>
      <point x="256" y="-10" type="curve" smooth="yes"/>
      <point x="360" y="-10"/>
      <point x="428" y="61"/>
      <point x="448" y="122" type="curve"/>
      <point x="430" y="110" type="line"/>
      <point x="430" y="0" type="line"/>
      <point x="533" y="0" type="line"/>
      <point x="533" y="525" type="line"/>
      <point x="533" y="525"/>
      <point x="430" y="525"/>
      <point x="430" y="525" type="curve"/>
    </contour>
  </outline>
</glyph>
<glyph name="x" format="2">
  <advance width="562"/>
  <unicode hex="0078"/>
  <note>
x
</note>
  <anchor x="277" y="0" name="bottom"/>
  <anchor x="277" y="510" name="top"/>
  <outline>
    <contour>
      <point x="145" y="525" type="line"/>
      <point x="15" y="525" type="line"/>
      <point x="236" y="240" type="line"/>
      <point x="421" y="0" type="line"/>
      <point x="547" y="0" type="line"/>
      <point x="312" y="307" type="line"/>
    </contour>
    <contour>
      <point x="16" y="0" type="line"/>
      <point x="137" y="-1" type="line"/>
      <point x="279" y="190" type="line"/>
      <point x="223" y="270" type="line"/>
    </contour>
    <contour>
      <point x="529" y="525" type="line"/>
      <point x="407" y="525" type="line"/>
      <point x="278" y="326" type="line"/>
      <point x="335" y="254" type="line"/>
    </contour>
  </outline>
</glyph>
<glyph name="y" format="2">
  <advance width="581"/>
  <unicode hex="0079"/>
  <note>
y
</note>
  <anchor x="490" y="0" name="bottom"/>
  <anchor x="285" y="510" name="top"/>
  <outline>
    <contour>
      <point x="265" y="-63" type="line"/>
      <point x="320" y="45" type="line"/>
      <point x="315" y="64"/>
      <point x="298" y="119"/>
      <point x="289" y="139" type="curve" smooth="yes"/>
      <point x="125" y="525" type="line"/>
      <point x="5" y="525" type="line"/>
    </contour>
    <contour>
      <point x="160" y="-230" type="line"/>
      <point x="271" y="-230" type="line"/>
      <point x="360" y="0" type="line"/>
      <point x="576" y="525" type="line"/>
      <point x="454" y="525" type="line"/>
      <point x="317" y="146" type="line" smooth="yes"/>
      <point x="307" y="118"/>
      <point x="296" y="87"/>
      <point x="285" y="58" type="curve"/>
      <point x="246" y="-33" type="line"/>
    </contour>
  </outline>
</glyph>
<glyph name="z" format="2">
  <advance width="484"/>
  <unicode hex="007A"/>
  <note>
z
</note>
  <anchor x="240" y="0" name="bottom"/>
  <anchor x="248" y="510" name="top"/>
  <outline>
    <contour>
      <point x="439" y="89" type="line"/>
      <point x="162" y="89" type="line"/>
      <point x="166" y="84" type="line"/>
      <point x="433" y="441" type="line"/>
      <point x="433" y="525" type="line"/>
      <point x="50" y="525" type="line"/>
      <point x="50" y="436" type="line"/>
      <point x="321" y="436" type="line"/>
      <point x="321" y="448" type="line"/>
      <point x="50" y="86" type="line"/>
      <point x="50" y="0" type="line"/>
      <point x="439" y="0" type="line"/>
    </contour>
  </outline>
</glyph>
<glyph name="braceleft" format="2">
  <advance width="411"/>
  <unicode hex="007B"/>
  <note>
braceleft
</note>
  <outline>
    <contour>
      <point x="369" y="-200" type="curve"/>
      <point x="387" y="-131" type="line"/>
      <point x="291" y="-98"/>
      <point x="275" y="-66"/>
      <point x="275" y="7" type="curve"/>
      <point x="277" y="102" type="line"/>
      <point x="277" y="182"/>
      <point x="238" y="231"/>
      <point x="173" y="252" type="curve"/>
      <point x="174" y="249" type="line"/>
      <point x="238" y="268"/>
      <point x="277" y="318"/>
      <point x="277" y="398" type="curve"/>
      <point x="275" y="493" type="line"/>
      <point x="275" y="566"/>
      <point x="291" y="600"/>
      <point x="387" y="631" type="curve"/>
      <point x="369" y="700" type="line"/>
      <point x="235" y="671"/>
      <point x="184" y="614"/>
      <point x="184" y="507" type="curve"/>
      <point x="185" y="412" type="line"/>
      <point x="185" y="336"/>
      <point x="153" y="290"/>
      <point x="89" y="288" type="curve"/>
      <point x="44" y="288" type="line"/>
      <point x="44" y="212" type="line"/>
      <point x="87" y="212" type="line"/>
      <point x="151" y="210"/>
      <point x="185" y="165"/>
      <point x="185" y="88" type="curve"/>
      <point x="184" y="-7" type="line"/>
      <point x="184" y="-103"/>
      <point x="219" y="-170"/>
    </contour>
  </outline>
</glyph>
<glyph name="bar" format="2">
  <advance width="231"/>
  <unicode hex="007C"/>
  <note>
bar
</note>
  <outline>
    <contour>
      <point x="164" y="-193" type="line"/>
      <point x="164" y="740" type="line"/>
      <point x="67" y="740" type="line"/>
      <point x="67" y="-193" type="line"/>
    </contour>
  </outline>
</glyph>
<glyph name="asciitilde" format="2">
  <advance width="510"/>
  <unicode hex="007E"/>
  <note>
asciitilde
</note>
  <outline>
    <contour>
      <point x="356" y="225" type="curve"/>
      <point x="437" y="225"/>
      <point x="470" y="277"/>
      <point x="470" y="354" type="curve"/>
      <point x="396" y="357" type="line"/>
      <point x="399" y="328"/>
      <point x="383" y="309"/>
      <point x="361" y="309" type="curve"/>
      <point x="322" y="309"/>
      <point x="217" y="369"/>
      <point x="162" y="369" type="curve" smooth="yes"/>
      <point x="78" y="369"/>
      <point x="40" y="311"/>
      <point x="40" y="227" type="curve"/>
      <point x="114" y="227" type="line"/>
      <point x="114" y="266"/>
      <point x="129" y="285"/>
      <point x="151" y="285" type="curve" smooth="yes"/>
      <point x="191" y="285"/>
      <point x="302" y="225"/>
    </contour>
  </outline>
</glyph>
<glyph name="sterling" format="2">
  <advance width="610"/>
  <unicode hex="00A3"/>
  <note>
sterling
</note>
  <outline>
    <contour>
      <point x="44" y="323" type="line"/>
      <point x="452" y="323" type="line"/>
      <point x="452" y="408" type="line"/>
      <point x="44" y="408" type="line"/>
    </contour>
    <contour>
      <point x="227" y="114" type="curve"/>
      <point x="145" y="114"/>
      <point x="80" y="96"/>
      <point x="30" y="65" type="curve"/>
      <point x="70" y="-6" type="line"/>
      <point x="102" y="7"/>
      <point x="159" y="26"/>
      <point x="214" y="26" type="curve"/>
      <point x="264" y="26"/>
      <point x="366" y="-20"/>
      <point x="425" y="-21" type="curve"/>
      <point x="488" y="-21"/>
      <point x="548" y="0"/>
      <point x="590" y="37" type="curve"/>
      <point x="538" y="102" type="line"/>
      <point x="512" y="86"/>
      <point x="473" y="67"/>
      <point x="425" y="67" type="curve"/>
      <point x="367" y="67"/>
      <point x="296" y="114"/>
    </contour>
    <contour>
      <point x="197" y="53" type="line"/>
      <point x="232" y="90"/>
      <point x="275" y="146"/>
      <point x="275" y="224" type="curve"/>
      <point x="275" y="301"/>
      <point x="214" y="406"/>
      <point x="214" y="486" type="curve"/>
      <point x="214" y="556"/>
      <point x="260" y="617"/>
      <point x="340" y="617" type="curve"/>
      <point x="389" y="617"/>
      <point x="426" y="600"/>
      <point x="455" y="569" type="curve"/>
      <point x="529" y="625" type="line"/>
      <point x="502" y="671"/>
      <point x="440" y="710"/>
      <point x="340" y="710" type="curve"/>
      <point x="199" y="710"/>
      <point x="114" y="618"/>
      <point x="114" y="487" type="curve"/>
      <point x="114" y="395"/>
      <point x="175" y="304"/>
      <point x="175" y="201" type="curve"/>
      <point x="175" y="136"/>
      <point x="147" y="88"/>
      <point x="122" y="74" type="curve"/>
    </contour>
  </outline>
</glyph>
<glyph name="brokenbar" format="2">
  <advance width="239"/>
  <unicode hex="00A6"/>
  <note>
brokenbar
</note>
  <outline>
    <contour>
      <point x="168" y="341" type="line"/>
      <point x="168" y="740" type="line"/>
      <point x="71" y="740" type="line"/>
      <point x="71" y="341" type="line"/>
    </contour>
    <contour>
      <point x="168" y="-202" type="line"/>
      <point x="168" y="198" type="line"/>
      <point x="71" y="198" type="line"/>
      <point x="71" y="-202" type="line"/>
    </contour>
  </outline>
</glyph>
<glyph name="section" format="2">
  <advance width="549"/>
  <unicode hex="00A7"/>
  <note>
section
</note>
  <outline>
    <contour>
      <point x="513" y="278" type="curve" smooth="yes"/>
      <point x="517" y="364"/>
      <point x="455" y="417"/>
      <point x="332" y="444" type="curve" smooth="yes"/>
      <point x="282" y="455"/>
      <point x="192" y="479"/>
      <point x="192" y="541" type="curve" smooth="yes"/>
      <point x="192" y="590"/>
      <point x="238" y="617"/>
      <point x="294" y="617" type="curve" smooth="yes"/>
      <point x="343" y="617"/>
      <point x="386" y="596"/>
      <point x="419" y="562" type="curve"/>
      <point x="476" y="628" type="line"/>
      <point x="434" y="679"/>
      <point x="376" y="711"/>
      <point x="295" y="711" type="curve" smooth="yes"/>
      <point x="208" y="711"/>
      <point x="94" y="655"/>
      <point x="94" y="526" type="curve" smooth="yes"/>
      <point x="94" y="472"/>
      <point x="118" y="423"/>
      <point x="190" y="392" type="curve"/>
      <point x="201" y="437" type="line"/>
      <point x="71" y="426"/>
      <point x="47" y="327"/>
      <point x="47" y="284" type="curve" smooth="yes"/>
      <point x="47" y="199"/>
      <point x="103" y="146"/>
      <point x="209" y="120" type="curve" smooth="yes"/>
      <point x="306" y="96"/>
      <point x="380" y="71"/>
      <point x="380" y="23" type="curve" smooth="yes"/>
      <point x="380" y="-35"/>
      <point x="320" y="-49"/>
      <point x="273" y="-49" type="curve" smooth="yes"/>
      <point x="207" y="-49"/>
      <point x="142" y="-7"/>
      <point x="105" y="29" type="curve"/>
      <point x="55" y="-50" type="line"/>
      <point x="104" y="-99"/>
      <point x="191" y="-140"/>
      <point x="274" y="-140" type="curve" smooth="yes"/>
      <point x="400" y="-140"/>
      <point x="478" y="-65"/>
      <point x="478" y="41" type="curve" smooth="yes"/>
      <point x="478" y="111"/>
      <point x="443" y="145"/>
      <point x="373" y="185" type="curve"/>
      <point x="308" y="129" type="line"/>
      <point x="437" y="137"/>
      <point x="507" y="182"/>
    </contour>
    <contour>
      <point x="235" y="219" type="line"/>
      <point x="170" y="241"/>
      <point x="154" y="269"/>
      <point x="154" y="294" type="curve" smooth="yes"/>
      <point x="154" y="336"/>
      <point x="188" y="361"/>
      <point x="224" y="361" type="curve" smooth="yes"/>
      <point x="229" y="361"/>
      <point x="235" y="360"/>
      <point x="240" y="359" type="curve"/>
      <point x="349" y="332" type="line"/>
      <point x="392" y="318"/>
      <point x="415" y="299"/>
      <point x="415" y="266" type="curve" smooth="yes"/>
      <point x="415" y="229"/>
      <point x="384" y="199"/>
      <point x="340" y="197" type="curve" smooth="yes"/>
      <point x="336" y="197"/>
      <point x="333" y="197"/>
      <point x="330" y="197" type="curve"/>
    </contour>
  </outline>
</glyph>
<glyph name="dieresis" format="2">
  <advance width="413"/>
  <unicode hex="00A8"/>
  <anchor x="210" y="515" name="_top"/>
  <outline>
    <contour>
      <point x="106" y="591" type="curve" smooth="yes"/>
      <point x="153" y="591"/>
      <point x="175" y="623"/>
      <point x="175" y="656" type="curve" smooth="yes"/>
      <point x="175" y="695"/>
      <point x="153" y="721"/>
      <point x="106" y="721" type="curve" smooth="yes"/>
      <point x="59" y="721"/>
      <point x="37" y="689"/>
      <point x="37" y="656" type="curve" smooth="yes"/>
      <point x="37" y="617"/>
      <point x="59" y="591"/>
    </contour>
    <contour>
      <point x="306" y="591" type="curve" smooth="yes"/>
      <point x="353" y="591"/>
      <point x="375" y="623"/>
      <point x="375" y="656" type="curve" smooth="yes"/>
      <point x="375" y="695"/>
      <point x="353" y="721"/>
      <point x="306" y="721" type="curve" smooth="yes"/>
      <point x="259" y="721"/>
      <point x="237" y="689"/>
      <point x="237" y="656" type="curve" smooth="yes"/>
      <point x="237" y="617"/>
      <point x="259" y="591"/>
    </contour>
  </outline>
</glyph>
<glyph name="copyright" format="2">
  <advance width="786"/>
  <unicode hex="00A9"/>
  <note>
copyright
</note>
  <outline>
    <contour>
      <point x="393" y="-7" type="curve" smooth="yes"/>
      <point x="589" y="-7"/>
      <point x="750" y="150"/>
      <point x="750" y="350" type="curve" smooth="yes"/>
      <point x="750" y="550"/>
      <point x="589" y="707"/>
      <point x="393" y="707" type="curve" smooth="yes"/>
      <point x="196" y="707"/>
      <point x="36" y="550"/>
      <point x="36" y="350" type="curve" smooth="yes"/>
      <point x="36" y="150"/>
      <point x="196" y="-7"/>
    </contour>
    <contour>
      <point x="393" y="67" type="curve" smooth="yes"/>
      <point x="237" y="67"/>
      <point x="110" y="191"/>
      <point x="110" y="350" type="curve" smooth="yes"/>
      <point x="110" y="510"/>
      <point x="237" y="633"/>
      <point x="393" y="633" type="curve" smooth="yes"/>
      <point x="549" y="633"/>
      <point x="676" y="510"/>
      <point x="676" y="350" type="curve" smooth="yes"/>
      <point x="676" y="191"/>
      <point x="549" y="67"/>
    </contour>
    <contour>
      <point x="411" y="142" type="curve" smooth="yes"/>
      <point x="457" y="142"/>
      <point x="503" y="156"/>
      <point x="544" y="185" type="curve"/>
      <point x="507" y="261" type="line"/>
      <point x="477" y="238"/>
      <point x="445" y="223"/>
      <point x="411" y="223" type="curve" smooth="yes"/>
      <point x="341" y="223"/>
      <point x="283" y="272"/>
      <point x="283" y="350" type="curve" smooth="yes"/>
      <point x="283" y="420"/>
      <point x="337" y="476"/>
      <point x="411" y="476" type="curve" smooth="yes"/>
      <point x="446" y="476"/>
      <point x="476" y="457"/>
      <point x="503" y="437" type="curve"/>
      <point x="540" y="512" type="line"/>
      <point x="503" y="540"/>
      <point x="457" y="557"/>
      <point x="411" y="557" type="curve" smooth="yes"/>
      <point x="290" y="557"/>
      <point x="197" y="463"/>
      <point x="197" y="350" type="curve" smooth="yes"/>
      <point x="197" y="223"/>
      <point x="298" y="142"/>
    </contour>
  </outline>
</glyph>
<glyph name="ordfeminine" format="2">
  <advance width="365"/>
  <unicode hex="00AA"/>
  <note>
ordfeminine
</note>
  <outline>
    <contour>
      <point x="143" y="391" type="curve"/>
      <point x="213" y="391"/>
      <point x="257" y="462"/>
      <point x="257" y="512" type="curve"/>
      <point x="242" y="474" type="line"/>
      <point x="242" y="401" type="line"/>
      <point x="335" y="401" type="line"/>
      <point x="335" y="715" type="line"/>
      <point x="242" y="715" type="line"/>
      <point x="242" y="648" type="line"/>
      <point x="257" y="592" type="line"/>
      <point x="257" y="679"/>
      <point x="217" y="721"/>
      <point x="155" y="721" type="curve"/>
      <point x="69" y="721"/>
      <point x="15" y="650"/>
      <point x="15" y="562" type="curve"/>
      <point x="15" y="469"/>
      <point x="57" y="391"/>
    </contour>
    <contour>
      <point x="172" y="458" type="curve"/>
      <point x="128" y="458"/>
      <point x="108" y="505"/>
      <point x="108" y="562" type="curve"/>
      <point x="108" y="613"/>
      <point x="136" y="654"/>
      <point x="171" y="654" type="curve"/>
      <point x="218" y="654"/>
      <point x="246" y="616"/>
      <point x="246" y="555" type="curve"/>
      <point x="246" y="493"/>
      <point x="213" y="458"/>
    </contour>
  </outline>
</glyph>
<glyph name="registered" format="2">
  <advance width="507"/>
  <unicode hex="00AE"/>
  <note>
registered
</note>
  <outline>
    <contour>
      <point x="282" y="461" type="line"/>
      <point x="317" y="461"/>
      <point x="356" y="485"/>
      <point x="356" y="534" type="curve" smooth="yes"/>
      <point x="356" y="578"/>
      <point x="324" y="606"/>
      <point x="282" y="606" type="curve" smooth="yes"/>
      <point x="172" y="606" type="line"/>
      <point x="172" y="367" type="line"/>
      <point x="229" y="367" type="line"/>
      <point x="229" y="470" type="line"/>
      <point x="211" y="461" type="line"/>
    </contour>
    <contour>
      <point x="262" y="502" type="curve" smooth="yes"/>
      <point x="213" y="502" type="line"/>
      <point x="229" y="495" type="line"/>
      <point x="229" y="564" type="line"/>
      <point x="210" y="556" type="line"/>
      <point x="264" y="556" type="line" smooth="yes"/>
      <point x="286" y="556"/>
      <point x="301" y="548"/>
      <point x="301" y="529" type="curve" smooth="yes"/>
      <point x="301" y="513"/>
      <point x="284" y="502"/>
    </contour>
    <contour>
      <point x="259" y="259" type="curve" smooth="yes"/>
      <point x="384" y="259"/>
      <point x="488" y="358"/>
      <point x="488" y="484" type="curve" smooth="yes"/>
      <point x="488" y="609"/>
      <point x="384" y="709"/>
      <point x="259" y="709" type="curve" smooth="yes"/>
      <point x="132" y="709"/>
      <point x="29" y="609"/>
      <point x="29" y="484" type="curve" smooth="yes"/>
      <point x="29" y="358"/>
      <point x="132" y="259"/>
    </contour>
    <contour>
      <point x="259" y="322" type="curve" smooth="yes"/>
      <point x="167" y="322"/>
      <point x="91" y="393"/>
      <point x="91" y="484" type="curve" smooth="yes"/>
      <point x="91" y="575"/>
      <point x="167" y="647"/>
      <point x="259" y="647" type="curve" smooth="yes"/>
      <point x="350" y="647"/>
      <point x="425" y="575"/>
      <point x="425" y="484" type="curve" smooth="yes"/>
      <point x="425" y="393"/>
      <point x="350" y="322"/>
    </contour>
    <contour>
      <point x="255" y="467" type="line"/>
      <point x="292" y="367" type="line"/>
      <point x="352" y="367" type="line"/>
      <point x="308" y="481" type="line"/>
    </contour>
  </outline>
</glyph>
<glyph name="degree" format="2">
  <advance width="532"/>
  <unicode hex="00B0"/>
  <note>
degree
</note>
  <outline>
    <contour>
      <point x="266" y="399" type="curve"/>
      <point x="357" y="399"/>
      <point x="422" y="470"/>
      <point x="422" y="554" type="curve"/>
      <point x="422" y="639"/>
      <point x="357" y="709"/>
      <point x="266" y="709" type="curve"/>
      <point x="175" y="709"/>
      <point x="110" y="639"/>
      <point x="110" y="553" type="curve"/>
      <point x="110" y="470"/>
      <point x="175" y="399"/>
    </contour>
    <contour>
      <point x="266" y="466" type="curve"/>
      <point x="218" y="466"/>
      <point x="185" y="508"/>
      <point x="185" y="553" type="curve"/>
      <point x="185" y="601"/>
      <point x="218" y="641"/>
      <point x="266" y="641" type="curve"/>
      <point x="313" y="641"/>
      <point x="347" y="600"/>
      <point x="347" y="554" type="curve"/>
      <point x="347" y="508"/>
      <point x="313" y="466"/>
    </contour>
  </outline>
</glyph>
<glyph name="acute" format="2">
  <advance width="269"/>
  <unicode hex="00B4"/>
  <anchor x="96" y="569" name="_top"/>
  <outline>
    <contour>
      <point x="72" y="573" type="line"/>
      <point x="246" y="667" type="line"/>
      <point x="181" y="749" type="line"/>
      <point x="38" y="624" type="line"/>
    </contour>
  </outline>
</glyph>
<glyph name="micro" format="2">
  <advance width="586"/>
  <unicode hex="00B5"/>
  <note>
uni00B5
</note>
  <outline>
    <contour>
      <point x="516" y="525" type="line"/>
      <point x="419" y="525" type="line"/>
      <point x="419" y="222" type="line" smooth="yes"/>
      <point x="419" y="146"/>
      <point x="363" y="80"/>
      <point x="284" y="80" type="curve" smooth="yes"/>
      <point x="202" y="80"/>
      <point x="177" y="143"/>
      <point x="177" y="222" type="curve" smooth="yes"/>
      <point x="177" y="525" type="line"/>
      <point x="80" y="525" type="line"/>
      <point x="81" y="-157" type="line"/>
      <point x="177" y="-157" type="line"/>
      <point x="177" y="62" type="line"/>
      <point x="170" y="49" type="line"/>
      <point x="184" y="9"/>
      <point x="236" y="-10"/>
      <point x="269" y="-10" type="curve" smooth="yes"/>
      <point x="354" y="-10"/>
      <point x="409" y="58"/>
      <point x="421" y="89" type="curve"/>
      <point x="419" y="97" type="line"/>
      <point x="419" y="0" type="line"/>
      <point x="516" y="0" type="line"/>
    </contour>
  </outline>
</glyph>
<glyph name="paragraph" format="2">
  <advance width="712"/>
  <unicode hex="00B6"/>
  <note>
paragraph
</note>
  <outline>
    <contour>
      <point x="506" y="0" type="line"/>
      <point x="614" y="0" type="line"/>
      <point x="614" y="700" type="line"/>
      <point x="273" y="700" type="line" smooth="yes"/>
      <point x="142" y="700"/>
      <point x="48" y="620"/>
      <point x="48" y="486" type="curve" smooth="yes"/>
      <point x="48" y="362"/>
      <point x="131" y="279"/>
      <point x="236" y="279" type="curve" smooth="yes"/>
      <point x="270" y="279" type="line"/>
      <point x="246" y="314" type="line"/>
      <point x="246" y="0" type="line"/>
      <point x="354" y="0" type="line"/>
      <point x="354" y="652" type="line"/>
      <point x="310" y="596" type="line"/>
      <point x="522" y="596" type="line"/>
      <point x="506" y="660" type="line"/>
    </contour>
  </outline>
</glyph>
<glyph name="cedilla" format="2">
  <advance width="267"/>
  <unicode hex="00B8"/>
  <anchor x="141" y="0" name="_bottom"/>
  <outline>
    <contour>
      <point x="42" y="-90" type="line"/>
      <point x="100" y="-97" type="line"/>
      <point x="173" y="24" type="line"/>
      <point x="114" y="24" type="line"/>
    </contour>
    <contour>
      <point x="230" y="-139" type="curve" smooth="yes"/>
      <point x="230" y="-72"/>
      <point x="162" y="-49"/>
      <point x="101" y="-41" type="curve"/>
      <point x="42" y="-90" type="line"/>
      <point x="43" y="-91" type="line"/>
      <point x="55" y="-100" type="line"/>
      <point x="114" y="-102"/>
      <point x="145" y="-123"/>
      <point x="145" y="-138" type="curve" smooth="yes"/>
      <point x="145" y="-165"/>
      <point x="76" y="-191"/>
      <point x="33" y="-191" type="curve"/>
      <point x="40" y="-244" type="line"/>
      <point x="172" y="-249"/>
      <point x="230" y="-180"/>
    </contour>
  </outline>
</glyph>
<glyph name="ordmasculine" format="2">
  <advance width="354"/>
  <unicode hex="00BA"/>
  <note>
ordmasculine
</note>
  <outline>
    <contour>
      <point x="334" y="549" type="curve"/>
      <point x="334" y="640"/>
      <point x="266" y="710"/>
      <point x="176" y="710" type="curve"/>
      <point x="86" y="710"/>
      <point x="20" y="640"/>
      <point x="20" y="549" type="curve"/>
      <point x="20" y="459"/>
      <point x="86" y="392"/>
      <point x="176" y="392" type="curve"/>
      <point x="266" y="392"/>
      <point x="334" y="459"/>
    </contour>
    <contour>
      <point x="245" y="549" type="curve"/>
      <point x="245" y="500"/>
      <point x="218" y="463"/>
      <point x="176" y="463" type="curve"/>
      <point x="134" y="463"/>
      <point x="108" y="500"/>
      <point x="108" y="549" type="curve"/>
      <point x="108" y="601"/>
      <point x="134" y="639"/>
      <point x="176" y="639" type="curve"/>
      <point x="218" y="639"/>
      <point x="245" y="601"/>
    </contour>
  </outline>
</glyph>
<glyph name="Aring" format="2">
  <advance width="700"/>
  <unicode hex="00C5"/>
  <anchor x="354" y="853" name="top"/>
  <anchor x="352" y="0" name="bottom"/>
  <anchor x="609" y="10" name="ogonek"/>
  <outline>
    <contour>
      <point x="351" y="631" type="curve"/>
      <point x="414" y="631"/>
      <point x="470" y="684"/>
      <point x="470" y="746" type="curve"/>
      <point x="470" y="811"/>
      <point x="414" y="862"/>
      <point x="351" y="862" type="curve"/>
      <point x="288" y="862"/>
      <point x="231" y="811"/>
      <point x="231" y="746" type="curve"/>
      <point x="231" y="684"/>
      <point x="288" y="631"/>
    </contour>
    <contour>
      <point x="351" y="700" type="curve"/>
      <point x="323" y="700"/>
      <point x="302" y="720"/>
      <point x="302" y="746" type="curve"/>
      <point x="302" y="774"/>
      <point x="323" y="793"/>
      <point x="351" y="793" type="curve"/>
      <point x="376" y="793"/>
      <point x="400" y="776"/>
      <point x="400" y="746" type="curve"/>
      <point x="400" y="720"/>
      <point x="378" y="700"/>
    </contour>
    <component base="A"/>
  </outline>
</glyph>
<glyph name="AE" format="2">
  <advance width="969"/>
  <unicode hex="00C6"/>
  <note>
AE
</note>
  <anchor x="497" y="0" name="bottom"/>
  <anchor x="646" y="700" name="top"/>
  <outline>
    <contour>
      <point x="228" y="245" type="line"/>
      <point x="174" y="153" type="line"/>
      <point x="488" y="153" type="line"/>
      <point x="465" y="166" type="line"/>
      <point x="465" y="0" type="line"/>
      <point x="894" y="0" type="line"/>
      <point x="894" y="93" type="line"/>
      <point x="557" y="93" type="line"/>
      <point x="566" y="72" type="line"/>
      <point x="566" y="322" type="line"/>
      <point x="556" y="308" type="line"/>
      <point x="849" y="308" type="line"/>
      <point x="849" y="402" type="line"/>
      <point x="558" y="402" type="line"/>
      <point x="566" y="385" type="line"/>
      <point x="566" y="616" type="line"/>
      <point x="557" y="607" type="line"/>
      <point x="894" y="607" type="line"/>
      <point x="894" y="700" type="line"/>
      <point x="493" y="700" type="line"/>
      <point x="5" y="0" type="line"/>
      <point x="114" y="0" type="line"/>
      <point x="484" y="541" type="line"/>
      <point x="465" y="552" type="line"/>
      <point x="465" y="213" type="line"/>
      <point x="483" y="245" type="line"/>
    </contour>
  </outline>
</glyph>
<glyph name="Thorn" format="2">
  <advance width="634"/>
  <unicode hex="00DE"/>
  <note>
Thorn
</note>
  <anchor x="295" y="0" name="bottom"/>
  <anchor x="295" y="700" name="top"/>
  <outline>
    <contour>
      <point x="206" y="700" type="line"/>
      <point x="98" y="700" type="line"/>
      <point x="98" y="0" type="line"/>
      <point x="206" y="0" type="line"/>
    </contour>
    <contour>
      <point x="197" y="245" type="line"/>
      <point x="198" y="141" type="line"/>
      <point x="383" y="141" type="line" smooth="yes"/>
      <point x="495" y="141"/>
      <point x="589" y="237"/>
      <point x="589" y="358" type="curve" smooth="yes"/>
      <point x="589" y="479"/>
      <point x="495" y="573"/>
      <point x="383" y="573" type="curve" smooth="yes"/>
      <point x="118" y="573" type="line"/>
      <point x="147" y="469" type="line"/>
      <point x="381" y="469" type="line" smooth="yes"/>
      <point x="434" y="469"/>
      <point x="479" y="420"/>
      <point x="479" y="358" type="curve" smooth="yes"/>
      <point x="479" y="296"/>
      <point x="434" y="245"/>
      <point x="381" y="245" type="curve" smooth="yes"/>
    </contour>
  </outline>
</glyph>
<glyph name="germandbls" format="2">
  <advance width="664"/>
  <unicode hex="00DF"/>
  <note>
germandbls
</note>
  <outline>
    <contour>
      <point x="45" y="404" type="line"/>
      <point x="180" y="404" type="line"/>
      <point x="180" y="497" type="line"/>
      <point x="45" y="497" type="line"/>
    </contour>
    <contour>
      <point x="129" y="0" type="line"/>
      <point x="226" y="0" type="line"/>
      <point x="226" y="502" type="line"/>
      <point x="226" y="582"/>
      <point x="269" y="644"/>
      <point x="350" y="644" type="curve"/>
      <point x="416" y="644"/>
      <point x="457" y="614"/>
      <point x="457" y="565" type="curve"/>
      <point x="457" y="523"/>
      <point x="424" y="485"/>
      <point x="344" y="450" type="curve"/>
      <point x="344" y="385" type="line"/>
      <point x="459" y="357"/>
      <point x="525" y="302"/>
      <point x="525" y="189" type="curve" smooth="yes"/>
      <point x="525" y="128"/>
      <point x="493" y="68"/>
      <point x="424" y="68" type="curve"/>
      <point x="386" y="68"/>
      <point x="356" y="87"/>
      <point x="327" y="112" type="curve"/>
      <point x="275" y="57" type="line"/>
      <point x="305" y="19"/>
      <point x="348" y="-10"/>
      <point x="422" y="-10" type="curve" smooth="yes"/>
      <point x="540" y="-10"/>
      <point x="622" y="84"/>
      <point x="622" y="203" type="curve" smooth="yes"/>
      <point x="622" y="333"/>
      <point x="535" y="415"/>
      <point x="447" y="443" type="curve"/>
      <point x="449" y="439" type="line"/>
      <point x="506" y="464"/>
      <point x="553" y="514"/>
      <point x="553" y="574" type="curve"/>
      <point x="553" y="662"/>
      <point x="483" y="734"/>
      <point x="354" y="734" type="curve"/>
      <point x="208" y="734"/>
      <point x="129" y="630"/>
      <point x="129" y="499" type="curve"/>
    </contour>
  </outline>
</glyph>
<glyph name="ae" format="2">
  <advance width="899"/>
  <unicode hex="00E6"/>
  <note>
ae
</note>
  <anchor x="410" y="0" name="bottom"/>
  <anchor x="452" y="515" name="top"/>
  <outline>
    <contour>
      <point x="264" y="536" type="curve"/>
      <point x="162" y="536"/>
      <point x="92" y="482"/>
      <point x="51" y="435" type="curve"/>
      <point x="118" y="368" type="line"/>
      <point x="149" y="408"/>
      <point x="192" y="441"/>
      <point x="262" y="441" type="curve"/>
      <point x="307" y="441"/>
      <point x="373" y="415"/>
      <point x="373" y="356" type="curve"/>
      <point x="373" y="257" type="line"/>
      <point x="466" y="263" type="line"/>
      <point x="466" y="388" type="line"/>
      <point x="466" y="502"/>
      <point x="358" y="536"/>
    </contour>
    <contour>
      <point x="654" y="84" type="curve" smooth="yes"/>
      <point x="556" y="84"/>
      <point x="466" y="151"/>
      <point x="466" y="264" type="curve"/>
      <point x="466" y="399"/>
      <point x="540" y="441"/>
      <point x="621" y="441" type="curve"/>
      <point x="686" y="441"/>
      <point x="747" y="394"/>
      <point x="754" y="326" type="curve"/>
      <point x="754" y="302" type="line"/>
      <point x="769" y="319" type="line"/>
      <point x="274" y="319" type="line" smooth="yes"/>
      <point x="108" y="320"/>
      <point x="38" y="253"/>
      <point x="38" y="149" type="curve"/>
      <point x="38" y="39"/>
      <point x="132" y="-10"/>
      <point x="216" y="-10" type="curve"/>
      <point x="324" y="-10"/>
      <point x="399" y="61"/>
      <point x="430" y="107" type="curve"/>
      <point x="386" y="174" type="line"/>
      <point x="366" y="135"/>
      <point x="309" y="78"/>
      <point x="220" y="78" type="curve"/>
      <point x="179" y="78"/>
      <point x="135" y="100"/>
      <point x="135" y="151" type="curve"/>
      <point x="135" y="197"/>
      <point x="167" y="237"/>
      <point x="261" y="237" type="curve" smooth="yes"/>
      <point x="858" y="237" type="line"/>
      <point x="859" y="281" type="line"/>
      <point x="859" y="432"/>
      <point x="753" y="535"/>
      <point x="621" y="536" type="curve" smooth="yes"/>
      <point x="493" y="536"/>
      <point x="373" y="433"/>
      <point x="373" y="257" type="curve"/>
      <point x="373" y="102"/>
      <point x="479" y="-10"/>
      <point x="644" y="-10" type="curve" smooth="yes"/>
      <point x="725" y="-10"/>
      <point x="806" y="28"/>
      <point x="849" y="69" type="curve"/>
      <point x="849" y="69"/>
      <point x="849" y="69"/>
      <point x="850" y="69" type="curve"/>
      <point x="799" y="144" type="line"/>
      <point x="769" y="118"/>
      <point x="727" y="84"/>
    </contour>
  </outline>
</glyph>
<glyph name="divide" format="2">
  <advance width="597"/>
  <unicode hex="00F7"/>
  <note>
divide
</note>
  <outline>
    <contour>
      <point x="50" y="215" type="line"/>
      <point x="547" y="215" type="line"/>
      <point x="547" y="305" type="line"/>
      <point x="50" y="305" type="line"/>
    </contour>
    <contour>
      <point x="293" y="15" type="curve" smooth="yes"/>
      <point x="328" y="15"/>
      <point x="358" y="44"/>
      <point x="358" y="80" type="curve" smooth="yes"/>
      <point x="358" y="116"/>
      <point x="328" y="145"/>
      <point x="293" y="145" type="curve" smooth="yes"/>
      <point x="257" y="145"/>
      <point x="227" y="116"/>
      <point x="227" y="80" type="curve" smooth="yes"/>
      <point x="227" y="44"/>
      <point x="257" y="15"/>
    </contour>
    <contour>
      <point x="293" y="372" type="curve" smooth="yes"/>
      <point x="328" y="372"/>
      <point x="358" y="401"/>
      <point x="358" y="436" type="curve" smooth="yes"/>
      <point x="358" y="473"/>
      <point x="328" y="502"/>
      <point x="293" y="502" type="curve" smooth="yes"/>
      <point x="257" y="502"/>
      <point x="227" y="473"/>
      <point x="227" y="436" type="curve" smooth="yes"/>
      <point x="227" y="401"/>
      <point x="257" y="372"/>
    </contour>
  </outline>
</glyph>
<glyph name="Aogonek" format="2">
  <advance width="696"/>
  <unicode hex="0104"/>
  <anchor x="341" y="0" name="bottom"/>
  <anchor x="341" y="700" name="top"/>
  <outline>
    <contour>
      <point x="559" y="0" type="line"/>
      <point x="601" y="21" type="line"/>
      <point x="602" y="52" type="line"/>
      <point x="521" y="30"/>
      <point x="427" y="-43"/>
      <point x="427" y="-114" type="curve" smooth="yes"/>
      <point x="427" y="-178"/>
      <point x="480" y="-221"/>
      <point x="547" y="-221" type="curve" smooth="yes"/>
      <point x="595" y="-221"/>
      <point x="637" y="-200"/>
      <point x="671" y="-177" type="curve"/>
      <point x="632" y="-118" type="line"/>
      <point x="611" y="-133"/>
      <point x="587" y="-144"/>
      <point x="567" y="-144" type="curve" smooth="yes"/>
      <point x="540" y="-144"/>
      <point x="520" y="-123"/>
      <point x="520" y="-100" type="curve" smooth="yes"/>
      <point x="520" y="-63"/>
      <point x="590" y="-26"/>
      <point x="655" y="0" type="curve"/>
      <point x="661" y="32" type="line"/>
      <point x="410" y="700" type="line"/>
      <point x="290" y="700" type="line"/>
      <point x="25" y="0" type="line"/>
      <point x="134" y="0" type="line"/>
      <point x="287" y="418" type="line" smooth="yes"/>
      <point x="308" y="474"/>
      <point x="329" y="548"/>
      <point x="353" y="613" type="curve"/>
      <point x="341" y="612" type="line"/>
      <point x="363" y="548"/>
      <point x="384" y="478"/>
      <point x="404" y="422" type="curve" smooth="yes"/>
    </contour>
    <contour>
      <point x="174" y="174" type="line"/>
      <point x="519" y="174" type="line"/>
      <point x="502" y="278" type="line"/>
      <point x="217" y="278" type="line"/>
    </contour>
  </outline>
</glyph>
<glyph name="aogonek" format="2">
  <advance width="620"/>
  <unicode hex="0105"/>
  <note>
aogonek
</note>
  <outline>
    <contour>
      <point x="287" y="-10" type="curve"/>
      <point x="394" y="-10"/>
      <point x="477" y="73"/>
      <point x="477" y="122" type="curve"/>
      <point x="457" y="125" type="line"/>
      <point x="457" y="0" type="line"/>
      <point x="508" y="0" type="line"/>
      <point x="508" y="52" type="line"/>
      <point x="427" y="10"/>
      <point x="333" y="-43"/>
      <point x="333" y="-114" type="curve" smooth="yes"/>
      <point x="333" y="-178"/>
      <point x="386" y="-221"/>
      <point x="453" y="-221" type="curve" smooth="yes"/>
      <point x="501" y="-221"/>
      <point x="543" y="-200"/>
      <point x="577" y="-177" type="curve"/>
      <point x="538" y="-118" type="line"/>
      <point x="517" y="-133"/>
      <point x="493" y="-144"/>
      <point x="473" y="-144" type="curve" smooth="yes"/>
      <point x="446" y="-144"/>
      <point x="426" y="-123"/>
      <point x="426" y="-100" type="curve" smooth="yes"/>
      <point x="426" y="-63"/>
      <point x="496" y="-26"/>
      <point x="561" y="0" type="curve"/>
      <point x="561" y="525" type="line"/>
      <point x="457" y="525" type="line"/>
      <point x="457" y="389" type="line"/>
      <point x="487" y="391" type="line"/>
      <point x="487" y="452"/>
      <point x="400" y="536"/>
      <point x="284" y="536" type="curve"/>
      <point x="146" y="536"/>
      <point x="38" y="424"/>
      <point x="38" y="264" type="curve"/>
      <point x="38" y="104"/>
      <point x="145" y="-10"/>
    </contour>
    <contour>
      <point x="301" y="85" type="curve"/>
      <point x="208" y="85"/>
      <point x="143" y="161"/>
      <point x="143" y="264" type="curve"/>
      <point x="143" y="366"/>
      <point x="208" y="441"/>
      <point x="301" y="441" type="curve"/>
      <point x="396" y="441"/>
      <point x="461" y="364"/>
      <point x="461" y="264" type="curve"/>
      <point x="461" y="161"/>
      <point x="396" y="85"/>
    </contour>
  </outline>
</glyph>
<glyph name="Eogonek" format="2">
  <advance width="614"/>
  <unicode hex="0118"/>
  <note>
Eogonek
</note>
  <anchor x="296" y="0" name="bottom"/>
  <anchor x="293" y="700" name="top"/>
  <anchor x="20" y="700" name="topleft"/>
  <anchor x="475" y="10" name="ogonek"/>
  <outline>
    <contour>
      <point x="415" y="-221" type="curve" smooth="yes"/>
      <point x="463" y="-221"/>
      <point x="505" y="-200"/>
      <point x="539" y="-177" type="curve"/>
      <point x="500" y="-118" type="line"/>
      <point x="479" y="-133"/>
      <point x="455" y="-144"/>
      <point x="435" y="-144" type="curve" smooth="yes"/>
      <point x="408" y="-144"/>
      <point x="388" y="-123"/>
      <point x="388" y="-100" type="curve" smooth="yes"/>
      <point x="388" y="-62"/>
      <point x="458" y="-24"/>
      <point x="523" y="0" type="curve"/>
      <point x="470" y="52" type="line"/>
      <point x="389" y="30"/>
      <point x="295" y="-43"/>
      <point x="295" y="-114" type="curve" smooth="yes"/>
      <point x="295" y="-178"/>
      <point x="348" y="-221"/>
    </contour>
    <component base="E"/>
  </outline>
</glyph>
<glyph name="eogonek" format="2">
  <advance width="586"/>
  <unicode hex="0119"/>
  <note>
eogonek
</note>
  <outline>
    <contour>
      <point x="317" y="-10" type="curve"/>
      <point x="373" y="-10"/>
      <point x="471" y="56"/>
      <point x="493" y="95" type="curve"/>
      <point x="453" y="70" type="line"/>
      <point x="376" y="23"/>
      <point x="283" y="-33"/>
      <point x="283" y="-108" type="curve" smooth="yes"/>
      <point x="283" y="-184"/>
      <point x="336" y="-221"/>
      <point x="403" y="-221" type="curve" smooth="yes"/>
      <point x="451" y="-221"/>
      <point x="493" y="-200"/>
      <point x="527" y="-177" type="curve"/>
      <point x="488" y="-118" type="line"/>
      <point x="467" y="-133"/>
      <point x="443" y="-144"/>
      <point x="425" y="-144" type="curve" smooth="yes"/>
      <point x="396" y="-144"/>
      <point x="376" y="-118"/>
      <point x="376" y="-90" type="curve" smooth="yes"/>
      <point x="376" y="-29"/>
      <point x="446" y="11"/>
      <point x="523" y="69" type="curve"/>
      <point x="472" y="144" type="line"/>
      <point x="442" y="118"/>
      <point x="400" y="84"/>
      <point x="327" y="84" type="curve"/>
      <point x="217" y="84"/>
      <point x="142" y="154"/>
      <point x="142" y="264" type="curve"/>
      <point x="142" y="395"/>
      <point x="215" y="442"/>
      <point x="308" y="442" type="curve"/>
      <point x="373" y="442"/>
      <point x="434" y="395"/>
      <point x="441" y="327" type="curve"/>
      <point x="441" y="303" type="line"/>
      <point x="456" y="320" type="line"/>
      <point x="93" y="320" type="line"/>
      <point x="116" y="238" type="line"/>
      <point x="545" y="238" type="line"/>
      <point x="546" y="282" type="line"/>
      <point x="546" y="433"/>
      <point x="440" y="536"/>
      <point x="308" y="537" type="curve"/>
      <point x="163" y="536"/>
      <point x="40" y="433"/>
      <point x="40" y="257" type="curve"/>
      <point x="40" y="102"/>
      <point x="153" y="-10"/>
    </contour>
  </outline>
</glyph>
<glyph name="Hbar" format="2">
  <advance width="857"/>
  <unicode hex="0126"/>
  <note>
Hbar
</note>
  <anchor x="424" y="0" name="bottom"/>
  <anchor x="424" y="350" name="center"/>
  <anchor x="424" y="700" name="top"/>
  <anchor x="84" y="700" name="topleft"/>
  <outline>
    <contour>
      <point x="57" y="468" type="line"/>
      <point x="163" y="468" type="line"/>
      <point x="209" y="478" type="line"/>
      <point x="625" y="478" type="line"/>
      <point x="656" y="468" type="line"/>
      <point x="800" y="468" type="line"/>
      <point x="800" y="572" type="line"/>
      <point x="649" y="572" type="line"/>
      <point x="613" y="562" type="line"/>
      <point x="219" y="562" type="line"/>
      <point x="173" y="572" type="line"/>
      <point x="57" y="572" type="line"/>
    </contour>
    <component base="H" xOffset="48"/>
  </outline>
</glyph>
<glyph name="iogonek" format="2">
  <advance width="289"/>
  <unicode hex="012F"/>
  <note>
iogonek
</note>
  <outline>
    <contour>
      <point x="95" y="7" type="line"/>
      <point x="145" y="52" type="line"/>
      <point x="68" y="10"/>
      <point x="0" y="-43"/>
      <point x="0" y="-114" type="curve" smooth="yes"/>
      <point x="0" y="-178"/>
      <point x="53" y="-221"/>
      <point x="120" y="-221" type="curve" smooth="yes"/>
      <point x="164" y="-221"/>
      <point x="203" y="-200"/>
      <point x="234" y="-177" type="curve"/>
      <point x="195" y="-118" type="line"/>
      <point x="177" y="-133"/>
      <point x="157" y="-144"/>
      <point x="140" y="-144" type="curve" smooth="yes"/>
      <point x="113" y="-144"/>
      <point x="93" y="-125"/>
      <point x="93" y="-102" type="curve" smooth="yes"/>
      <point x="93" y="-63"/>
      <point x="137" y="-26"/>
      <point x="198" y="0" type="curve"/>
      <point x="198" y="525" type="line"/>
      <point x="95" y="525" type="line"/>
    </contour>
    <component base="dotaccentcomb" xOffset="45"/>
  </outline>
</glyph>
<glyph name="idotless" format="2">
  <advance width="243"/>
  <unicode hex="0131"/>
  <note>
dotlessi
</note>
  <anchor x="124" y="0" name="bottom"/>
  <anchor x="208" y="10" name="ogonek"/>
  <anchor x="124" y="525" name="top"/>
  <outline>
    <contour>
      <point x="175" y="0" type="line"/>
      <point x="175" y="525" type="line"/>
      <point x="72" y="525" type="line"/>
      <point x="72" y="0" type="line"/>
      <point x="121" y="0" type="line"/>
    </contour>
  </outline>
</glyph>
<glyph name="lslash" format="2">
  <advance width="253"/>
  <unicode hex="0142"/>
  <note>
lslash
</note>
  <anchor x="120" y="0" name="bottom"/>
  <anchor x="120" y="289" name="center"/>
  <anchor x="121" y="740" name="top"/>
  <anchor x="227" y="580" name="topright"/>
  <outline>
    <contour>
      <point x="-3" y="369" type="line"/>
      <point x="31" y="292" type="line"/>
      <point x="256" y="394" type="line"/>
      <point x="220" y="468" type="line"/>
    </contour>
    <component base="l" xOffset="-2"/>
  </outline>
</glyph>
<glyph name="Eng" format="2">
  <advance width="793"/>
  <unicode hex="014A"/>
  <note>
Eng
</note>
  <outline>
    <contour>
      <point x="596" y="0" type="line"/>
      <point x="587" y="76" type="line"/>
      <point x="587" y="1" type="line" smooth="yes"/>
      <point x="587" y="-73"/>
      <point x="552" y="-118"/>
      <point x="471" y="-118" type="curve"/>
      <point x="510" y="-197" type="line"/>
      <point x="618" y="-197"/>
      <point x="695" y="-131"/>
      <point x="695" y="-24" type="curve" smooth="yes"/>
      <point x="695" y="58" type="line"/>
      <point x="695" y="700" type="line"/>
      <point x="692" y="700"/>
      <point x="586" y="700"/>
      <point x="587" y="700" type="curve"/>
      <point x="587" y="470" type="line"/>
      <point x="587" y="360"/>
      <point x="591" y="219"/>
      <point x="607" y="118" type="curve"/>
      <point x="623" y="127" type="line"/>
      <point x="195" y="700" type="line"/>
      <point x="98" y="700" type="line"/>
      <point x="98" y="0" type="line"/>
      <point x="206" y="0" type="line"/>
      <point x="206" y="291" type="line"/>
      <point x="206" y="383"/>
      <point x="194" y="474"/>
      <point x="186" y="566" type="curve"/>
      <point x="175" y="552" type="line"/>
    </contour>
  </outline>
</glyph>
<glyph name="eng" format="2">
  <advance width="595"/>
  <unicode hex="014B"/>
  <note>
eng
</note>
  <anchor x="286" y="0" name="bottom"/>
  <anchor x="295" y="510" name="top"/>
  <outline>
    <contour>
      <point x="424" y="1" type="line"/>
      <point x="424" y="-73"/>
      <point x="389" y="-118"/>
      <point x="308" y="-118" type="curve"/>
      <point x="347" y="-197" type="line"/>
      <point x="449" y="-197"/>
      <point x="527" y="-131"/>
      <point x="527" y="-24" type="curve" smooth="yes"/>
      <point x="527" y="25" type="line"/>
    </contour>
    <component base="n"/>
  </outline>
</glyph>
<glyph name="OE" format="2">
  <advance width="1027"/>
  <unicode hex="0152"/>
  <note>
OE
</note>
  <anchor x="492" y="0" name="bottom"/>
  <anchor x="492" y="700" name="top"/>
  <outline>
    <contour>
      <point x="395" y="700" type="line" smooth="yes"/>
      <point x="167" y="700"/>
      <point x="48" y="540"/>
      <point x="48" y="350" type="curve" smooth="yes"/>
      <point x="48" y="157"/>
      <point x="160" y="0"/>
      <point x="375" y="0" type="curve" smooth="yes"/>
      <point x="952" y="0" type="line"/>
      <point x="952" y="0"/>
      <point x="952" y="104"/>
      <point x="952" y="104" type="curve"/>
      <point x="612" y="104" type="line"/>
      <point x="619" y="97" type="line"/>
      <point x="619" y="316" type="line"/>
      <point x="613" y="307" type="line"/>
      <point x="897" y="307" type="line"/>
      <point x="897" y="411" type="line"/>
      <point x="610" y="411" type="line"/>
      <point x="619" y="402" type="line"/>
      <point x="619" y="614" type="line"/>
      <point x="610" y="596" type="line"/>
      <point x="952" y="596" type="line"/>
      <point x="952" y="700" type="line"/>
    </contour>
    <contour>
      <point x="511" y="57" type="line"/>
      <point x="552" y="104" type="line"/>
      <point x="378" y="104" type="line" smooth="yes"/>
      <point x="223" y="104"/>
      <point x="158" y="214"/>
      <point x="158" y="350" type="curve" smooth="yes"/>
      <point x="158" y="483"/>
      <point x="229" y="596"/>
      <point x="398" y="596" type="curve" smooth="yes"/>
      <point x="552" y="596" type="line"/>
      <point x="511" y="641" type="line"/>
    </contour>
  </outline>
</glyph>
<glyph name="Uogonek" format="2">
  <advance width="728"/>
  <unicode hex="0172"/>
  <anchor x="354" y="0" name="bottom"/>
  <anchor x="637" y="10" name="ogonek"/>
  <anchor x="354" y="700" name="top"/>
  <anchor x="688" y="700" name="topright"/>
  <outline>
    <contour>
      <point x="82" y="269" type="line" smooth="yes"/>
      <point x="82" y="129"/>
      <point x="191" y="-18"/>
      <point x="364" y="-18" type="curve" smooth="yes"/>
      <point x="378" y="-18"/>
      <point x="442" y="-10"/>
      <point x="464" y="12" type="curve"/>
      <point x="451" y="52" type="line"/>
      <point x="364" y="25"/>
      <point x="312" y="-21"/>
      <point x="312" y="-87" type="curve" smooth="yes"/>
      <point x="312" y="-157"/>
      <point x="366" y="-201"/>
      <point x="421" y="-201" type="curve" smooth="yes"/>
      <point x="475" y="-201"/>
      <point x="519" y="-167"/>
      <point x="530" y="-139" type="curve"/>
      <point x="474" y="-99" type="line"/>
      <point x="466" y="-112"/>
      <point x="454" y="-124"/>
      <point x="437" y="-124" type="curve" smooth="yes"/>
      <point x="410" y="-124"/>
      <point x="393" y="-109"/>
      <point x="393" y="-75" type="curve" smooth="yes"/>
      <point x="393" y="-49"/>
      <point x="420" y="-14"/>
      <point x="475" y="8" type="curve" smooth="yes"/>
      <point x="558" y="46"/>
      <point x="646" y="129"/>
      <point x="646" y="269" type="curve" smooth="yes"/>
      <point x="646" y="701" type="line"/>
      <point x="543" y="701" type="line"/>
      <point x="543" y="278" type="line" smooth="yes"/>
      <point x="543" y="167"/>
      <point x="460" y="88"/>
      <point x="364" y="88" type="curve" smooth="yes"/>
      <point x="273" y="88"/>
      <point x="190" y="167"/>
      <point x="190" y="278" type="curve" smooth="yes"/>
      <point x="190" y="701" type="line"/>
      <point x="82" y="701" type="line"/>
    </contour>
  </outline>
</glyph>
<glyph name="Schwa" format="2">
  <advance width="780"/>
  <unicode hex="018F"/>
  <outline>
    <contour>
      <point x="390" y="-10" type="curve" smooth="yes"/>
      <point x="578" y="-10"/>
      <point x="732" y="151"/>
      <point x="732" y="350" type="curve" smooth="yes"/>
      <point x="732" y="549"/>
      <point x="576" y="710"/>
      <point x="387" y="710" type="curve" smooth="yes"/>
      <point x="275" y="710"/>
      <point x="192" y="681"/>
      <point x="116" y="606" type="curve"/>
      <point x="184" y="536" type="line"/>
      <point x="243" y="592"/>
      <point x="309" y="613"/>
      <point x="387" y="613" type="curve" smooth="yes"/>
      <point x="519" y="613"/>
      <point x="629" y="526"/>
      <point x="629" y="351" type="curve" smooth="yes"/>
      <point x="629" y="186"/>
      <point x="521" y="87"/>
      <point x="390" y="87" type="curve" smooth="yes"/>
      <point x="273" y="87"/>
      <point x="172" y="177"/>
      <point x="152" y="296" type="curve"/>
      <point x="695" y="296" type="line"/>
      <point x="686" y="393" type="line"/>
      <point x="48" y="393" type="line"/>
      <point x="48" y="313" type="line"/>
      <point x="58" y="118"/>
      <point x="219" y="-10"/>
    </contour>
  </outline>
</glyph>
<glyph name="florin" format="2">
  <advance width="519"/>
  <unicode hex="0192"/>
  <note>
florin
</note>
  <outline>
    <contour>
      <point x="96" y="-31" type="curve" smooth="yes"/>
      <point x="182" y="-31"/>
      <point x="234" y="17"/>
      <point x="253" y="119" type="curve" smooth="yes"/>
      <point x="324" y="523" type="line" smooth="yes"/>
      <point x="334" y="579"/>
      <point x="362" y="608"/>
      <point x="417" y="608" type="curve" smooth="yes"/>
      <point x="441" y="608"/>
      <point x="464" y="601"/>
      <point x="486" y="593" type="curve"/>
      <point x="516" y="657" type="line"/>
      <point x="481" y="681"/>
      <point x="444" y="692"/>
      <point x="398" y="692" type="curve" smooth="yes"/>
      <point x="294" y="692"/>
      <point x="244" y="635"/>
      <point x="227" y="538" type="curve" smooth="yes"/>
      <point x="155" y="129" type="line" smooth="yes"/>
      <point x="147" y="86"/>
      <point x="127" y="54"/>
      <point x="90" y="54" type="curve" smooth="yes"/>
      <point x="68" y="54"/>
      <point x="52" y="58"/>
      <point x="32" y="69" type="curve"/>
      <point x="4" y="1" type="line"/>
      <point x="20" y="-13"/>
      <point x="55" y="-31"/>
    </contour>
    <contour>
      <point x="71" y="362" type="line"/>
      <point x="440" y="361" type="line"/>
      <point x="440" y="444" type="line"/>
      <point x="71" y="445" type="line"/>
    </contour>
  </outline>
</glyph>
<glyph name="Nhookleft" format="2">
  <advance width="777"/>
  <unicode hex="019D"/>
  <outline>
    <contour>
      <point x="190" y="-24" type="curve" smooth="yes"/>
      <point x="190" y="291" type="line"/>
      <point x="190" y="383"/>
      <point x="178" y="474"/>
      <point x="170" y="566" type="curve"/>
      <point x="159" y="552" type="line"/>
      <point x="580" y="0" type="line"/>
      <point x="679" y="0" type="line"/>
      <point x="679" y="700" type="line"/>
      <point x="676" y="700"/>
      <point x="570" y="700"/>
      <point x="571" y="700" type="curve"/>
      <point x="571" y="470" type="line"/>
      <point x="571" y="360"/>
      <point x="575" y="219"/>
      <point x="591" y="118" type="curve"/>
      <point x="607" y="127" type="line"/>
      <point x="179" y="700" type="line"/>
      <point x="82" y="700" type="line"/>
      <point x="82" y="1" type="line" smooth="yes"/>
      <point x="82" y="-73"/>
      <point x="47" y="-118"/>
      <point x="-34" y="-118" type="curve"/>
      <point x="5" y="-197" type="line"/>
      <point x="113" y="-197"/>
      <point x="190" y="-131"/>
    </contour>
  </outline>
</glyph>
<glyph name="oogonek" format="2">
  <advance width="607"/>
  <unicode hex="01EB"/>
  <outline>
    <contour>
      <point x="304" y="79" type="curve"/>
      <point x="210" y="79"/>
      <point x="136" y="155"/>
      <point x="136" y="263" type="curve"/>
      <point x="136" y="372"/>
      <point x="210" y="447"/>
      <point x="304" y="447" type="curve"/>
      <point x="398" y="447"/>
      <point x="471" y="372"/>
      <point x="471" y="263" type="curve"/>
      <point x="471" y="155"/>
      <point x="398" y="79"/>
    </contour>
    <contour>
      <point x="304" y="-10" type="curve"/>
      <point x="326" y="-10"/>
      <point x="388" y="19"/>
      <point x="403" y="31" type="curve"/>
      <point x="408" y="78" type="line"/>
      <point x="338" y="57"/>
      <point x="250" y="14"/>
      <point x="250" y="-91" type="curve"/>
      <point x="250" y="-165"/>
      <point x="303" y="-201"/>
      <point x="356" y="-201" type="curve"/>
      <point x="410" y="-201"/>
      <point x="450" y="-164"/>
      <point x="467" y="-133" type="curve"/>
      <point x="422" y="-89" type="line"/>
      <point x="410" y="-107"/>
      <point x="392" y="-124"/>
      <point x="370" y="-124" type="curve"/>
      <point x="352" y="-124"/>
      <point x="331" y="-106"/>
      <point x="331" y="-73" type="curve"/>
      <point x="331" y="-34"/>
      <point x="370" y="-6"/>
      <point x="421" y="19" type="curve"/>
      <point x="510" y="58"/>
      <point x="568" y="149"/>
      <point x="568" y="263" type="curve"/>
      <point x="568" y="423"/>
      <point x="452" y="536"/>
      <point x="304" y="536" type="curve"/>
      <point x="155" y="536"/>
      <point x="39" y="423"/>
      <point x="39" y="263" type="curve"/>
      <point x="39" y="103"/>
      <point x="155" y="-10"/>
    </contour>
  </outline>
</glyph>
<glyph name="jdotless" format="2">
  <advance width="263"/>
  <unicode hex="0237"/>
  <note>
dotlessj
</note>
  <anchor x="151" y="0" name="bottom"/>
  <anchor x="138" y="531" name="top"/>
  <outline>
    <contour>
      <point x="110" y="-197"/>
      <point x="188" y="-131"/>
      <point x="188" y="-24" type="curve" smooth="yes"/>
      <point x="188" y="525" type="line"/>
      <point x="85" y="525" type="line"/>
      <point x="85" y="1" type="line" smooth="yes"/>
      <point x="85" y="-73"/>
      <point x="50" y="-118"/>
      <point x="-31" y="-118" type="curve"/>
      <point x="8" y="-197" type="line"/>
    </contour>
  </outline>
</glyph>
<glyph name="nhookleft" format="2">
  <advance width="610"/>
  <unicode hex="0272"/>
  <anchor x="318" y="0" name="bottom"/>
  <anchor x="318" y="510" name="top"/>
  <outline>
    <contour>
      <point x="85" y="1" type="line"/>
      <point x="85" y="-73"/>
      <point x="50" y="-118"/>
      <point x="-31" y="-118" type="curve"/>
      <point x="8" y="-197" type="line"/>
      <point x="110" y="-197"/>
      <point x="188" y="-131"/>
      <point x="188" y="-24" type="curve" smooth="yes"/>
      <point x="188" y="25" type="line"/>
    </contour>
    <component base="n" xOffset="15"/>
  </outline>
</glyph>
<glyph name="circumflex" format="2">
  <advance width="368"/>
  <unicode hex="02C6"/>
  <outline>
    <contour>
      <point x="166" y="660" type="line"/>
      <point x="301" y="587" type="line"/>
      <point x="339" y="620" type="line"/>
      <point x="224" y="733" type="line"/>
      <point x="138" y="733" type="line"/>
      <point x="23" y="620" type="line"/>
      <point x="61" y="587" type="line"/>
      <point x="196" y="660" type="line"/>
    </contour>
  </outline>
</glyph>
<glyph name="breve" format="2">
  <advance width="402"/>
  <unicode hex="02D8"/>
  <anchor x="207" y="548" name="_top"/>
  <outline>
    <contour>
      <point x="201" y="570" type="curve" smooth="yes"/>
      <point x="284" y="570"/>
      <point x="345" y="632"/>
      <point x="363" y="724" type="curve"/>
      <point x="289" y="736" type="line"/>
      <point x="274" y="693"/>
      <point x="243" y="651"/>
      <point x="201" y="651" type="curve" smooth="yes"/>
      <point x="159" y="651"/>
      <point x="128" y="693"/>
      <point x="113" y="736" type="curve"/>
      <point x="39" y="724" type="line"/>
      <point x="57" y="632"/>
      <point x="118" y="570"/>
    </contour>
  </outline>
</glyph>
<glyph name="tildecomb" format="2">
  <unicode hex="0303"/>
  <anchor x="203" y="513" name="_top"/>
  <anchor x="215" y="747" name="top"/>
  <outline>
    <contour>
      <point x="40" y="627" type="curve"/>
      <point x="113" y="617" type="line"/>
      <point x="113" y="658"/>
      <point x="127" y="675"/>
      <point x="148" y="675" type="curve" smooth="yes"/>
      <point x="171" y="675"/>
      <point x="191" y="614"/>
      <point x="260" y="614" type="curve"/>
      <point x="324" y="614"/>
      <point x="358" y="671"/>
      <point x="361" y="720" type="curve"/>
      <point x="288" y="736" type="line"/>
      <point x="290" y="705"/>
      <point x="275" y="686"/>
      <point x="260" y="686" type="curve"/>
      <point x="229" y="686"/>
      <point x="212" y="748"/>
      <point x="150" y="748" type="curve" smooth="yes"/>
      <point x="84" y="748"/>
      <point x="43" y="692"/>
    </contour>
  </outline>
</glyph>
<glyph name="dotaccentcomb" format="2">
  <unicode hex="0307"/>
  <anchor x="105" y="511" name="_top"/>
  <anchor x="105" y="751" name="top"/>
  <outline>
    <contour>
      <point x="106" y="625" type="curve" smooth="yes"/>
      <point x="153" y="625"/>
      <point x="175" y="657"/>
      <point x="175" y="690" type="curve" smooth="yes"/>
      <point x="175" y="729"/>
      <point x="153" y="755"/>
      <point x="106" y="755" type="curve" smooth="yes"/>
      <point x="59" y="755"/>
      <point x="37" y="723"/>
      <point x="37" y="690" type="curve" smooth="yes"/>
      <point x="37" y="651"/>
      <point x="59" y="625"/>
    </contour>
  </outline>
</glyph>
<glyph name="ringcomb" format="2">
  <unicode hex="030A"/>
  <anchor x="158" y="490" name="_top"/>
  <anchor x="158" y="775" name="top"/>
  <outline>
    <contour>
      <point x="159" y="564" type="curve"/>
      <point x="217" y="564"/>
      <point x="269" y="612"/>
      <point x="269" y="669" type="curve"/>
      <point x="269" y="728"/>
      <point x="217" y="775"/>
      <point x="159" y="775" type="curve"/>
      <point x="102" y="775"/>
      <point x="50" y="728"/>
      <point x="50" y="669" type="curve"/>
      <point x="50" y="612"/>
      <point x="102" y="564"/>
    </contour>
    <contour>
      <point x="159" y="623" type="curve"/>
      <point x="132" y="623"/>
      <point x="110" y="643"/>
      <point x="110" y="669" type="curve"/>
      <point x="110" y="697"/>
      <point x="132" y="716"/>
      <point x="159" y="716" type="curve"/>
      <point x="185" y="716"/>
      <point x="209" y="699"/>
      <point x="209" y="669" type="curve"/>
      <point x="209" y="643"/>
      <point x="187" y="623"/>
    </contour>
  </outline>
</glyph>
<glyph name="horncomb" format="2">
  <unicode hex="031B"/>
  <anchor x="0" y="510" name="_topright"/>
  <anchor x="0" y="510" name="topright"/>
  <outline>
    <contour>
      <point x="74" y="420" type="line"/>
      <point x="190" y="420"/>
      <point x="244" y="506"/>
      <point x="244" y="616" type="curve"/>
      <point x="162" y="616" type="line"/>
      <point x="162" y="536"/>
      <point x="130" y="502"/>
      <point x="74" y="502" type="curve"/>
    </contour>
  </outline>
</glyph>
<glyph name="dotbelowcomb" format="2">
  <unicode hex="0323"/>
  <anchor x="105" y="-3" name="_bottom"/>
  <anchor x="105" y="-223" name="bottom"/>
  <outline>
    <contour>
      <point x="101" y="-206" type="curve" smooth="yes"/>
      <point x="148" y="-206"/>
      <point x="170" y="-174"/>
      <point x="170" y="-141" type="curve" smooth="yes"/>
      <point x="170" y="-102"/>
      <point x="148" y="-76"/>
      <point x="101" y="-76" type="curve" smooth="yes"/>
      <point x="54" y="-76"/>
      <point x="32" y="-108"/>
      <point x="32" y="-141" type="curve" smooth="yes"/>
      <point x="32" y="-180"/>
      <point x="54" y="-206"/>
    </contour>
  </outline>
</glyph>
<glyph name="dieresisbelowcomb" format="2">
  <unicode hex="0324"/>
  <anchor x="198" y="0" name="_bottom"/>
  <anchor x="198" y="-150" name="bottom"/>
  <outline>
    <contour>
      <point x="291" y="-150" type="curve"/>
      <point x="329" y="-150"/>
      <point x="346" y="-139"/>
      <point x="346" y="-104" type="curve" smooth="yes"/>
      <point x="346" y="-89" type="line" smooth="yes"/>
      <point x="346" y="-57"/>
      <point x="329" y="-43"/>
      <point x="292" y="-43" type="curve"/>
      <point x="258" y="-43"/>
      <point x="239" y="-56"/>
      <point x="239" y="-89" type="curve" smooth="yes"/>
      <point x="239" y="-104" type="line" smooth="yes"/>
      <point x="239" y="-136"/>
      <point x="256" y="-150"/>
    </contour>
    <contour>
      <point x="102" y="-150" type="curve"/>
      <point x="140" y="-150"/>
      <point x="157" y="-139"/>
      <point x="157" y="-104" type="curve" smooth="yes"/>
      <point x="157" y="-89" type="line" smooth="yes"/>
      <point x="157" y="-56"/>
      <point x="141" y="-43"/>
      <point x="102" y="-43" type="curve"/>
      <point x="69" y="-43"/>
      <point x="50" y="-57"/>
      <point x="50" y="-89" type="curve" smooth="yes"/>
      <point x="50" y="-104" type="line" smooth="yes"/>
      <point x="50" y="-136"/>
      <point x="67" y="-150"/>
    </contour>
  </outline>
</glyph>
<glyph name="ogonekcomb" format="2">
  <unicode hex="0328"/>
  <anchor x="248" y="10" name="_ogonek"/>
  <outline>
    <contour>
      <point x="139" y="-201" type="curve" smooth="yes"/>
      <point x="193" y="-201"/>
      <point x="237" y="-167"/>
      <point x="248" y="-139" type="curve"/>
      <point x="192" y="-99" type="line"/>
      <point x="184" y="-112"/>
      <point x="172" y="-124"/>
      <point x="155" y="-124" type="curve" smooth="yes"/>
      <point x="134" y="-124"/>
      <point x="121" y="-109"/>
      <point x="121" y="-88" type="curve" smooth="yes"/>
      <point x="121" y="-49"/>
      <point x="175" y="-13"/>
      <point x="229" y="-1" type="curve"/>
      <point x="229" y="43" type="line"/>
      <point x="185" y="50" type="line"/>
      <point x="117" y="31"/>
      <point x="30" y="-15"/>
      <point x="30" y="-98" type="curve" smooth="yes"/>
      <point x="30" y="-157"/>
      <point x="84" y="-201"/>
    </contour>
  </outline>
</glyph>
<glyph name="pi" format="2">
  <advance width="614"/>
  <unicode hex="03C0"/>
  <note>
pi
</note>
  <outline>
    <contour>
      <point x="114" y="0" type="line"/>
      <point x="205" y="0" type="line"/>
      <point x="205" y="438" type="line"/>
      <point x="192" y="425" type="line"/>
      <point x="419" y="425" type="line"/>
      <point x="409" y="460" type="line"/>
      <point x="409" y="0" type="line"/>
      <point x="500" y="0" type="line"/>
      <point x="500" y="438" type="line"/>
      <point x="491" y="425" type="line"/>
      <point x="574" y="425" type="line"/>
      <point x="574" y="526" type="line"/>
      <point x="40" y="526" type="line"/>
      <point x="40" y="425" type="line"/>
      <point x="131" y="425" type="line"/>
      <point x="114" y="476" type="line"/>
    </contour>
  </outline>
</glyph>
<glyph name="hamza-ar" format="2">
  <advance width="383"/>
  <unicode hex="0621"/>
  <anchor x="182" y="0" name="bottom"/>
  <anchor x="210" y="295" name="top"/>
  <outline>
    <contour>
      <point x="30" y="0" type="line"/>
      <point x="319" y="0" type="line"/>
      <point x="333" y="0" type="line"/>
      <point x="333" y="88" type="line"/>
      <point x="254" y="88" type="line"/>
      <point x="173" y="88"/>
      <point x="149" y="122"/>
      <point x="149" y="152" type="curve" smooth="yes"/>
      <point x="149" y="184"/>
      <point x="172" y="207"/>
      <point x="216" y="207" type="curve" smooth="yes"/>
      <point x="243" y="207"/>
      <point x="270" y="200"/>
      <point x="300" y="182" type="curve"/>
      <point x="263" y="158" type="line"/>
      <point x="327" y="299" type="line"/>
      <point x="340" y="254" type="line"/>
      <point x="308" y="279"/>
      <point x="259" y="295"/>
      <point x="210" y="295" type="curve" smooth="yes"/>
      <point x="122" y="295"/>
      <point x="59" y="238"/>
      <point x="59" y="157" type="curve" smooth="yes"/>
      <point x="59" y="67"/>
      <point x="155" y="0"/>
      <point x="319" y="0" type="curve"/>
      <point x="319" y="88" type="line"/>
      <point x="30" y="88" type="line"/>
    </contour>
  </outline>
</glyph>
<glyph name="hah-ar" format="2">
  <advance width="739"/>
  <unicode hex="062D"/>
  <anchor x="419" y="-456" name="bottom"/>
  <anchor x="420" y="-124" name="center"/>
  <anchor x="305" y="421" name="top"/>
  <outline>
    <contour>
      <point x="726" y="-304" type="line"/>
      <point x="636" y="-338"/>
      <point x="563" y="-354"/>
      <point x="452" y="-354" type="curve" smooth="yes"/>
      <point x="258" y="-354"/>
      <point x="164" y="-285"/>
      <point x="164" y="-166" type="curve" smooth="yes"/>
      <point x="164" y="17"/>
      <point x="349" y="102"/>
      <point x="677" y="195" type="curve"/>
      <point x="677" y="280" type="line"/>
      <point x="588" y="280"/>
      <point x="445" y="421"/>
      <point x="305" y="421" type="curve" smooth="yes"/>
      <point x="199" y="421"/>
      <point x="107" y="344"/>
      <point x="66" y="255" type="curve"/>
      <point x="126" y="211" type="line"/>
      <point x="168" y="280"/>
      <point x="221" y="319"/>
      <point x="288" y="319" type="curve" smooth="yes"/>
      <point x="399" y="319"/>
      <point x="559" y="195"/>
      <point x="614" y="195" type="curve"/>
      <point x="537" y="251" type="line"/>
      <point x="210" y="148"/>
      <point x="60" y="24"/>
      <point x="60" y="-181" type="curve" smooth="yes"/>
      <point x="60" y="-362"/>
      <point x="213" y="-456"/>
      <point x="419" y="-456" type="curve" smooth="yes"/>
      <point x="546" y="-456"/>
      <point x="636" y="-434"/>
      <point x="753" y="-385" type="curve"/>
      <point x="732" y="-442" type="line"/>
      <point x="679" y="-270" type="line"/>
    </contour>
  </outline>
</glyph>
<glyph name="dal-ar" format="2">
  <advance width="494"/>
  <unicode hex="062F"/>
  <anchor x="427" y="0" name="#entry"/>
  <anchor x="242" y="0" name="bottom"/>
  <anchor x="253" y="487" name="top"/>
  <outline>
    <contour>
      <point x="59" y="0" type="line"/>
      <point x="427" y="0" type="line"/>
      <point x="455" y="200"/>
      <point x="399" y="331"/>
      <point x="253" y="487" type="curve"/>
      <point x="175" y="388" type="line"/>
      <point x="279" y="295"/>
      <point x="319" y="212"/>
      <point x="339" y="102" type="curve"/>
      <point x="40" y="102" type="line"/>
    </contour>
  </outline>
</glyph>
<glyph name="reh-ar" format="2">
  <advance width="442"/>
  <unicode hex="0631"/>
  <anchor x="103" y="-230" name="bottom"/>
  <anchor x="196" y="378" name="top"/>
  <outline>
    <contour>
      <point x="161" y="320" type="line"/>
      <point x="261" y="197"/>
      <point x="288" y="134"/>
      <point x="288" y="81" type="curve" smooth="yes"/>
      <point x="288" y="-41"/>
      <point x="207" y="-128"/>
      <point x="87" y="-128" type="curve" smooth="yes"/>
      <point x="41" y="-128"/>
      <point x="-26" y="-105"/>
      <point x="-71" y="-83" type="curve"/>
      <point x="-21" y="-51" type="line"/>
      <point x="-111" y="-221" type="line"/>
      <point x="-101" y="-148" type="line"/>
      <point x="-40" y="-205"/>
      <point x="41" y="-230"/>
      <point x="103" y="-230" type="curve" smooth="yes"/>
      <point x="294" y="-230"/>
      <point x="382" y="-60"/>
      <point x="382" y="81" type="curve" smooth="yes"/>
      <point x="382" y="186"/>
      <point x="340" y="271"/>
      <point x="235" y="413" type="curve"/>
    </contour>
  </outline>
</glyph>
<glyph name="seen-ar" format="2">
  <advance width="1286"/>
  <unicode hex="0633"/>
  <anchor x="848" y="0" name="bottom"/>
  <anchor x="874" y="333" name="top"/>
  <outline>
    <contour>
      <point x="848" y="136" type="curve"/>
      <point x="793" y="68" type="line"/>
      <point x="844" y="34"/>
      <point x="911" y="0"/>
      <point x="1019" y="0" type="curve" smooth="yes"/>
      <point x="1188" y="0" type="line"/>
      <point x="1251" y="176"/>
      <point x="1198" y="311"/>
      <point x="1140" y="438" type="curve"/>
      <point x="1049" y="346" type="line"/>
      <point x="1094" y="263"/>
      <point x="1124" y="192"/>
      <point x="1124" y="102" type="curve"/>
      <point x="996" y="102" type="line" smooth="yes"/>
      <point x="937" y="102"/>
      <point x="887" y="114"/>
    </contour>
    <contour>
      <point x="621" y="102" type="line"/>
      <point x="621" y="0" type="line"/>
      <point x="789" y="0" type="line"/>
      <point x="858" y="102"/>
      <point x="898" y="192"/>
      <point x="927" y="331" type="curve"/>
      <point x="806" y="289" type="line"/>
      <point x="801" y="227"/>
      <point x="777" y="140"/>
      <point x="754" y="102" type="curve"/>
    </contour>
    <component base="noonghunna-ar"/>
  </outline>
</glyph>
<glyph name="sad-ar" format="2">
  <advance width="1432"/>
  <unicode hex="0635"/>
  <anchor x="1345" y="0" name="#entry"/>
  <anchor x="1000" y="0" name="bottom"/>
  <anchor x="1100" y="438" name="top"/>
  <outline>
    <contour>
      <point x="743" y="0" type="line"/>
      <point x="1345" y="0" type="line"/>
      <point x="1399" y="244"/>
      <point x="1326" y="438"/>
      <point x="1130" y="438" type="curve" smooth="yes"/>
      <point x="985" y="438"/>
      <point x="848" y="326"/>
      <point x="707" y="94" type="curve"/>
      <point x="777" y="12" type="line"/>
      <point x="887" y="222"/>
      <point x="1007" y="334"/>
      <point x="1118" y="334" type="curve" smooth="yes"/>
      <point x="1225" y="334"/>
      <point x="1264" y="247"/>
      <point x="1262" y="102" type="curve"/>
      <point x="743" y="102" type="line"/>
    </contour>
    <component base="noonghunna-ar.fina"/>
  </outline>
</glyph>
<glyph name="tah-ar" format="2">
  <advance width="848"/>
  <unicode hex="0637"/>
  <anchor x="761" y="0" name="#entry"/>
  <anchor x="453" y="0" name="bottom"/>
  <anchor x="496" y="438" name="top"/>
  <outline>
    <contour>
      <point x="30" y="0" type="line"/>
      <point x="761" y="0" type="line"/>
      <point x="815" y="244"/>
      <point x="742" y="438"/>
      <point x="546" y="438" type="curve" smooth="yes"/>
      <point x="401" y="438"/>
      <point x="264" y="326"/>
      <point x="153" y="94" type="curve"/>
      <point x="193" y="12" type="line"/>
      <point x="303" y="222"/>
      <point x="423" y="334"/>
      <point x="534" y="334" type="curve" smooth="yes"/>
      <point x="641" y="334"/>
      <point x="680" y="247"/>
      <point x="678" y="102" type="curve"/>
      <point x="30" y="102" type="line"/>
    </contour>
    <contour>
      <point x="135" y="0" type="line"/>
      <point x="239" y="0" type="line"/>
      <point x="239" y="740" type="line"/>
      <point x="135" y="738" type="line"/>
    </contour>
  </outline>
</glyph>
<glyph name="ain-ar" format="2">
  <advance width="590"/>
  <unicode hex="0639"/>
  <anchor x="359" y="-456" name="bottom"/>
  <anchor x="298" y="438" name="top"/>
  <outline>
    <contour>
      <point x="484" y="51" type="curve"/>
      <point x="499" y="151" type="line"/>
      <point x="202" y="120"/>
      <point x="20" y="-21"/>
      <point x="20" y="-208" type="curve" smooth="yes"/>
      <point x="20" y="-372"/>
      <point x="173" y="-456"/>
      <point x="359" y="-456" type="curve" smooth="yes"/>
      <point x="451" y="-456"/>
      <point x="544" y="-448"/>
      <point x="663" y="-395" type="curve"/>
      <point x="642" y="-452" type="line"/>
      <point x="589" y="-280" type="line"/>
      <point x="636" y="-314" type="line"/>
      <point x="564" y="-341"/>
      <point x="483" y="-354"/>
      <point x="392" y="-354" type="curve" smooth="yes"/>
      <point x="218" y="-354"/>
      <point x="124" y="-297"/>
      <point x="124" y="-194" type="curve" smooth="yes"/>
      <point x="124" y="-79"/>
      <point x="243" y="14"/>
    </contour>
    <contour>
      <point x="303" y="16" type="curve"/>
      <point x="380" y="102" type="line"/>
      <point x="233" y="102"/>
      <point x="177" y="167"/>
      <point x="177" y="236" type="curve" smooth="yes"/>
      <point x="177" y="296"/>
      <point x="223" y="336"/>
      <point x="298" y="336" type="curve" smooth="yes"/>
      <point x="349" y="336"/>
      <point x="396" y="325"/>
      <point x="445" y="295" type="curve"/>
      <point x="396" y="267" type="line"/>
      <point x="482" y="430" type="line"/>
      <point x="491" y="378" type="line"/>
      <point x="438" y="417"/>
      <point x="368" y="438"/>
      <point x="298" y="438" type="curve" smooth="yes"/>
      <point x="166" y="438"/>
      <point x="73" y="354"/>
      <point x="73" y="236" type="curve" smooth="yes"/>
      <point x="73" y="124"/>
      <point x="162" y="52"/>
    </contour>
  </outline>
</glyph>
<glyph name="kashida-ar" format="2">
  <advance width="80"/>
  <unicode hex="0640"/>
  <anchor x="40" y="0" name="bottom"/>
  <anchor x="40" y="438" name="top"/>
  <outline>
    <contour>
      <point x="0" y="102" type="line"/>
      <point x="0" y="0" type="line"/>
      <point x="80" y="0" type="line"/>
      <point x="80" y="102" type="line"/>
    </contour>
  </outline>
</glyph>
<glyph name="kaf-ar" format="2">
  <advance width="939"/>
  <unicode hex="0643"/>
  <anchor x="859" y="0" name="#entry"/>
  <outline>
    <contour>
      <point x="755" y="740" type="line"/>
      <point x="755" y="0" type="line"/>
      <point x="859" y="0" type="line"/>
      <point x="859" y="740" type="line"/>
    </contour>
    <contour>
      <point x="788" y="102" type="line"/>
      <point x="324" y="102" type="line" smooth="yes"/>
      <point x="213" y="102"/>
      <point x="134" y="128"/>
      <point x="134" y="226" type="curve" smooth="yes"/>
      <point x="134" y="265"/>
      <point x="142" y="307"/>
      <point x="174" y="377" type="curve"/>
      <point x="94" y="413" type="line"/>
      <point x="46" y="331"/>
      <point x="30" y="260"/>
      <point x="30" y="202" type="curve" smooth="yes"/>
      <point x="30" y="76"/>
      <point x="128" y="0"/>
      <point x="292" y="0" type="curve" smooth="yes"/>
      <point x="782" y="0" type="line"/>
    </contour>
    <component base="hamzaabove-ar" xScale="1.2" yScale="1.2" xOffset="321" yOffset="-461"/>
  </outline>
</glyph>
<glyph name="lam-ar" format="2">
  <advance width="710"/>
  <unicode hex="0644"/>
  <anchor x="610" y="0" name="#entry"/>
  <anchor x="321" y="-230" name="bottom"/>
  <anchor x="305" y="438" name="top"/>
  <outline>
    <contour>
      <point x="630" y="74" type="curve" smooth="yes"/>
      <point x="630" y="740" type="line"/>
      <point x="535" y="740" type="line"/>
      <point x="535" y="47" type="line" smooth="yes"/>
      <point x="535" y="-70"/>
      <point x="439" y="-128"/>
      <point x="334" y="-128" type="curve" smooth="yes"/>
      <point x="206" y="-128"/>
      <point x="131" y="-70"/>
      <point x="131" y="38" type="curve" smooth="yes"/>
      <point x="131" y="84"/>
      <point x="146" y="150"/>
      <point x="177" y="223" type="curve"/>
      <point x="210" y="169" type="line"/>
      <point x="33" y="228" type="line"/>
      <point x="89" y="250" type="line"/>
      <point x="45" y="151"/>
      <point x="30" y="68"/>
      <point x="30" y="23" type="curve" smooth="yes"/>
      <point x="30" y="-116"/>
      <point x="119" y="-230"/>
      <point x="321" y="-230" type="curve" smooth="yes"/>
      <point x="509" y="-230"/>
      <point x="630" y="-121"/>
    </contour>
  </outline>
</glyph>
<glyph name="meem-ar" format="2">
  <advance width="547"/>
  <unicode hex="0645"/>
  <anchor x="270" y="0" name="bottom"/>
  <anchor x="258" y="386" name="top"/>
  <outline>
    <contour>
      <point x="438" y="0" type="line"/>
      <point x="477" y="95" type="line"/>
      <point x="459" y="284"/>
      <point x="374" y="386"/>
      <point x="258" y="386" type="curve" smooth="yes"/>
      <point x="167" y="386"/>
      <point x="94" y="307"/>
      <point x="92" y="206" type="curve"/>
      <point x="35" y="237" type="line"/>
      <point x="225" y="197" type="line"/>
      <point x="177" y="189" type="line"/>
      <point x="183" y="240"/>
      <point x="210" y="284"/>
      <point x="264" y="284" type="curve" smooth="yes"/>
      <point x="325" y="284"/>
      <point x="374" y="199"/>
      <point x="384" y="55" type="curve"/>
    </contour>
    <contour>
      <point x="30" y="-56" type="curve" smooth="yes"/>
      <point x="30" y="-89"/>
      <point x="79" y="-234"/>
      <point x="73" y="-466" type="curve"/>
      <point x="41" y="-446" type="line"/>
      <point x="167" y="-456" type="line"/>
      <point x="149" y="-490" type="line"/>
      <point x="191" y="-294"/>
      <point x="133" y="-127"/>
      <point x="131" y="32" type="curve"/>
      <point x="101" y="-3" type="line"/>
      <point x="137" y="19"/>
      <point x="191" y="26"/>
      <point x="247" y="26" type="curve" smooth="yes"/>
      <point x="333" y="26"/>
      <point x="394" y="15"/>
      <point x="438" y="0" type="curve"/>
      <point x="440" y="102" type="line"/>
      <point x="406" y="111"/>
      <point x="361" y="123"/>
      <point x="285" y="123" type="curve" smooth="yes"/>
      <point x="199" y="123"/>
      <point x="114" y="109"/>
      <point x="72" y="62" type="curve" smooth="yes"/>
      <point x="41" y="28"/>
      <point x="30" y="-10"/>
    </contour>
  </outline>
</glyph>
<glyph name="heh-ar" format="2">
  <advance width="499"/>
  <unicode hex="0647"/>
  <anchor x="238" y="-11" name="bottom"/>
  <anchor x="227" y="475" name="top"/>
  <outline>
    <contour>
      <point x="201" y="436" type="line"/>
      <point x="137" y="380"/>
      <point x="30" y="297"/>
      <point x="30" y="174" type="curve" smooth="yes"/>
      <point x="30" y="66"/>
      <point x="114" y="-11"/>
      <point x="238" y="-11" type="curve" smooth="yes"/>
      <point x="373" y="-11"/>
      <point x="449" y="62"/>
      <point x="449" y="174" type="curve" smooth="yes"/>
      <point x="449" y="273"/>
      <point x="385" y="384"/>
      <point x="187" y="534" type="curve"/>
      <point x="134" y="438" type="line"/>
      <point x="295" y="321"/>
      <point x="345" y="237"/>
      <point x="345" y="177" type="curve" smooth="yes"/>
      <point x="345" y="127"/>
      <point x="318" y="91"/>
      <point x="238" y="91" type="curve" smooth="yes"/>
      <point x="171" y="91"/>
      <point x="134" y="129"/>
      <point x="134" y="177" type="curve" smooth="yes"/>
      <point x="134" y="253"/>
      <point x="193" y="310"/>
      <point x="262" y="374" type="curve"/>
    </contour>
  </outline>
</glyph>
<glyph name="waw-ar" format="2">
  <advance width="530"/>
  <unicode hex="0648"/>
  <anchor x="260" y="-230" name="bottom"/>
  <anchor x="260" y="388" name="top"/>
  <outline>
    <contour>
      <point x="460" y="90" type="curve" smooth="yes"/>
      <point x="460" y="271"/>
      <point x="380" y="388"/>
      <point x="260" y="388" type="curve" smooth="yes"/>
      <point x="159" y="388"/>
      <point x="60" y="296"/>
      <point x="60" y="157" type="curve" smooth="yes"/>
      <point x="60" y="72"/>
      <point x="118" y="1"/>
      <point x="253" y="1" type="curve" smooth="yes"/>
      <point x="309" y="1"/>
      <point x="373" y="16"/>
      <point x="424" y="46" type="curve"/>
      <point x="373" y="122" type="line"/>
      <point x="336" y="109"/>
      <point x="301" y="103"/>
      <point x="266" y="103" type="curve" smooth="yes"/>
      <point x="182" y="103"/>
      <point x="155" y="133"/>
      <point x="155" y="177" type="curve" smooth="yes"/>
      <point x="155" y="228"/>
      <point x="196" y="286"/>
      <point x="254" y="286" type="curve" smooth="yes"/>
      <point x="330" y="286"/>
      <point x="368" y="178"/>
      <point x="368" y="81" type="curve" smooth="yes"/>
      <point x="368" y="-41"/>
      <point x="287" y="-128"/>
      <point x="167" y="-128" type="curve" smooth="yes"/>
      <point x="121" y="-128"/>
      <point x="54" y="-105"/>
      <point x="9" y="-83" type="curve"/>
      <point x="59" y="-51" type="line"/>
      <point x="-31" y="-221" type="line"/>
      <point x="-21" y="-148" type="line"/>
      <point x="40" y="-205"/>
      <point x="121" y="-230"/>
      <point x="183" y="-230" type="curve" smooth="yes"/>
      <point x="374" y="-230"/>
      <point x="460" y="-51"/>
    </contour>
  </outline>
</glyph>
<glyph name="alefMaksura-ar" format="2">
  <advance width="795"/>
  <unicode hex="0649"/>
  <anchor x="347" y="-230" name="bottom"/>
  <anchor x="177" y="223" name="top"/>
  <outline>
    <contour>
      <point x="622" y="-10" type="curve" smooth="yes"/>
      <point x="622" y="-53"/>
      <point x="538" y="-128"/>
      <point x="358" y="-128" type="curve" smooth="yes"/>
      <point x="210" y="-128"/>
      <point x="131" y="-72"/>
      <point x="131" y="38" type="curve" smooth="yes"/>
      <point x="131" y="84"/>
      <point x="146" y="150"/>
      <point x="177" y="223" type="curve"/>
      <point x="210" y="169" type="line"/>
      <point x="33" y="228" type="line"/>
      <point x="89" y="250" type="line"/>
      <point x="45" y="151"/>
      <point x="30" y="68"/>
      <point x="30" y="23" type="curve" smooth="yes"/>
      <point x="30" y="-146"/>
      <point x="155" y="-230"/>
      <point x="347" y="-230" type="curve" smooth="yes"/>
      <point x="616" y="-230"/>
      <point x="718" y="-90"/>
      <point x="718" y="18" type="curve" smooth="yes"/>
      <point x="718" y="76"/>
      <point x="675" y="105"/>
      <point x="596" y="139" type="curve" smooth="yes"/>
      <point x="532" y="167"/>
      <point x="465" y="197"/>
      <point x="465" y="248" type="curve" smooth="yes"/>
      <point x="465" y="297"/>
      <point x="511" y="337"/>
      <point x="586" y="337" type="curve" smooth="yes"/>
      <point x="631" y="337"/>
      <point x="667" y="328"/>
      <point x="703" y="307" type="curve"/>
      <point x="755" y="395" type="line"/>
      <point x="706" y="424"/>
      <point x="646" y="439"/>
      <point x="586" y="439" type="curve" smooth="yes"/>
      <point x="454" y="439"/>
      <point x="361" y="355"/>
      <point x="361" y="236" type="curve" smooth="yes"/>
      <point x="361" y="157"/>
      <point x="425" y="115"/>
      <point x="493" y="82" type="curve" smooth="yes"/>
      <point x="568" y="46"/>
      <point x="622" y="24"/>
    </contour>
  </outline>
</glyph>
<glyph name="shadda-ar" format="2">
  <unicode hex="0651"/>
  <anchor x="176" y="525" name="_top"/>
  <anchor x="176" y="711" name="top"/>
  <outline>
    <contour>
      <point x="282" y="793" type="line"/>
      <point x="282" y="736" type="line" smooth="yes"/>
      <point x="282" y="704"/>
      <point x="266" y="685"/>
      <point x="241" y="685" type="curve" smooth="yes"/>
      <point x="214" y="685"/>
      <point x="201" y="700"/>
      <point x="201" y="731" type="curve" smooth="yes"/>
      <point x="201" y="768" type="line"/>
      <point x="151" y="768" type="line"/>
      <point x="151" y="731" type="line" smooth="yes"/>
      <point x="151" y="673"/>
      <point x="186" y="635"/>
      <point x="241" y="635" type="curve" smooth="yes"/>
      <point x="295" y="635"/>
      <point x="332" y="677"/>
      <point x="332" y="736" type="curve" smooth="yes"/>
      <point x="332" y="793" type="line"/>
    </contour>
    <contour>
      <point x="70" y="793" type="line"/>
      <point x="20" y="793" type="line"/>
      <point x="20" y="736" type="line" smooth="yes"/>
      <point x="20" y="677"/>
      <point x="57" y="635"/>
      <point x="111" y="635" type="curve" smooth="yes"/>
      <point x="166" y="635"/>
      <point x="201" y="673"/>
      <point x="201" y="731" type="curve" smooth="yes"/>
      <point x="201" y="768" type="line"/>
      <point x="151" y="768" type="line"/>
      <point x="151" y="731" type="line" smooth="yes"/>
      <point x="151" y="700"/>
      <point x="138" y="685"/>
      <point x="111" y="685" type="curve" smooth="yes"/>
      <point x="86" y="685"/>
      <point x="70" y="704"/>
      <point x="70" y="736" type="curve" smooth="yes"/>
    </contour>
  </outline>
</glyph>
<glyph name="sukun-ar" format="2">
  <unicode hex="0652"/>
  <anchor x="121" y="525" name="_top"/>
  <anchor x="121" y="765" name="top"/>
  <outline>
    <contour>
      <point x="121" y="635" type="curve" smooth="yes"/>
      <point x="176" y="635"/>
      <point x="221" y="680"/>
      <point x="221" y="735" type="curve" smooth="yes"/>
      <point x="221" y="790"/>
      <point x="176" y="835"/>
      <point x="121" y="835" type="curve" smooth="yes"/>
      <point x="66" y="835"/>
      <point x="20" y="790"/>
      <point x="20" y="735" type="curve" smooth="yes"/>
      <point x="20" y="680"/>
      <point x="66" y="635"/>
    </contour>
    <contour>
      <point x="121" y="685" type="curve" smooth="yes"/>
      <point x="93" y="685"/>
      <point x="70" y="708"/>
      <point x="70" y="735" type="curve" smooth="yes"/>
      <point x="70" y="762"/>
      <point x="93" y="785"/>
      <point x="121" y="785" type="curve" smooth="yes"/>
      <point x="148" y="785"/>
      <point x="171" y="762"/>
      <point x="171" y="735" type="curve" smooth="yes"/>
      <point x="171" y="708"/>
      <point x="148" y="685"/>
    </contour>
  </outline>
</glyph>
<glyph name="hamzaabove-ar" format="2">
  <unicode hex="0654"/>
  <anchor x="118" y="525" name="_top"/>
  <anchor x="121" y="768" name="top"/>
  <outline>
    <contour>
      <point x="215" y="692" type="line"/>
      <point x="164" y="692" type="line" smooth="yes"/>
      <point x="112" y="692"/>
      <point x="97" y="714"/>
      <point x="97" y="733" type="curve" smooth="yes"/>
      <point x="97" y="753"/>
      <point x="111" y="768"/>
      <point x="140" y="768" type="curve" smooth="yes"/>
      <point x="153" y="768"/>
      <point x="166" y="766"/>
      <point x="180" y="759" type="curve"/>
      <point x="203" y="809" type="line"/>
      <point x="184" y="819"/>
      <point x="160" y="825"/>
      <point x="136" y="825" type="curve" smooth="yes"/>
      <point x="79" y="825"/>
      <point x="39" y="788"/>
      <point x="39" y="736" type="curve" smooth="yes"/>
      <point x="39" y="720"/>
      <point x="44" y="705"/>
      <point x="53" y="692" type="curve"/>
      <point x="20" y="692" type="line"/>
      <point x="20" y="635" type="line"/>
      <point x="215" y="635" type="line"/>
    </contour>
  </outline>
</glyph>
<glyph name="hamzabelow-ar" format="2">
  <unicode hex="0655"/>
  <anchor x="118" y="0" name="_bottom"/>
  <anchor x="118" y="-200" name="bottom"/>
  <outline>
    <contour>
      <point x="215" y="-193" type="line"/>
      <point x="164" y="-193" type="line" smooth="yes"/>
      <point x="112" y="-193"/>
      <point x="97" y="-171"/>
      <point x="97" y="-152" type="curve" smooth="yes"/>
      <point x="97" y="-132"/>
      <point x="111" y="-117"/>
      <point x="140" y="-117" type="curve" smooth="yes"/>
      <point x="153" y="-117"/>
      <point x="166" y="-119"/>
      <point x="180" y="-126" type="curve"/>
      <point x="203" y="-76" type="line"/>
      <point x="184" y="-66"/>
      <point x="160" y="-60"/>
      <point x="136" y="-60" type="curve" smooth="yes"/>
      <point x="79" y="-60"/>
      <point x="39" y="-97"/>
      <point x="39" y="-149" type="curve" smooth="yes"/>
      <point x="39" y="-165"/>
      <point x="44" y="-180"/>
      <point x="53" y="-193" type="curve"/>
      <point x="20" y="-193" type="line"/>
      <point x="20" y="-250" type="line"/>
      <point x="215" y="-250" type="line"/>
    </contour>
  </outline>
</glyph>
<glyph name="one-ar" format="2">
  <advance width="304"/>
  <unicode hex="0661"/>
  <outline>
    <contour>
      <point x="204" y="0" type="line"/>
      <point x="204" y="661" type="line"/>
      <point x="100" y="661" type="line"/>
      <point x="100" y="0" type="line"/>
    </contour>
  </outline>
</glyph>
<glyph name="two-ar" format="2">
  <advance width="463"/>
  <unicode hex="0662"/>
  <outline>
    <contour>
      <point x="184" y="0" type="line"/>
      <point x="184" y="412" type="line" smooth="yes"/>
      <point x="184" y="518"/>
      <point x="220" y="559"/>
      <point x="307" y="559" type="curve" smooth="yes"/>
      <point x="443" y="559" type="line"/>
      <point x="443" y="661" type="line"/>
      <point x="307" y="661" type="line" smooth="yes"/>
      <point x="160" y="661"/>
      <point x="80" y="573"/>
      <point x="80" y="412" type="curve" smooth="yes"/>
      <point x="80" y="0" type="line"/>
    </contour>
  </outline>
</glyph>
<glyph name="three-ar" format="2">
  <advance width="630"/>
  <unicode hex="0663"/>
  <outline>
    <contour>
      <point x="447" y="410" type="curve" smooth="yes"/>
      <point x="538" y="410"/>
      <point x="600" y="478"/>
      <point x="600" y="575" type="curve" smooth="yes"/>
      <point x="600" y="661" type="line"/>
      <point x="496" y="661" type="line"/>
      <point x="496" y="565" type="line" smooth="yes"/>
      <point x="496" y="523"/>
      <point x="478" y="502"/>
      <point x="447" y="502" type="curve" smooth="yes"/>
      <point x="417" y="502"/>
      <point x="402" y="518"/>
      <point x="402" y="559" type="curve" smooth="yes"/>
      <point x="402" y="623" type="line"/>
      <point x="298" y="623" type="line"/>
      <point x="298" y="559" type="line" smooth="yes"/>
      <point x="298" y="464"/>
      <point x="356" y="410"/>
    </contour>
    <contour>
      <point x="100" y="0" type="line"/>
      <point x="204" y="0" type="line"/>
      <point x="204" y="661" type="line"/>
      <point x="100" y="661" type="line"/>
    </contour>
    <contour>
      <point x="263" y="410" type="curve" smooth="yes"/>
      <point x="344" y="410"/>
      <point x="402" y="464"/>
      <point x="402" y="559" type="curve" smooth="yes"/>
      <point x="402" y="623" type="line"/>
      <point x="298" y="623" type="line"/>
      <point x="298" y="559" type="line" smooth="yes"/>
      <point x="298" y="518"/>
      <point x="283" y="502"/>
      <point x="253" y="502" type="curve" smooth="yes"/>
      <point x="222" y="502"/>
      <point x="204" y="523"/>
      <point x="204" y="565" type="curve" smooth="yes"/>
      <point x="204" y="661" type="line"/>
      <point x="100" y="661" type="line"/>
      <point x="100" y="565" type="line" smooth="yes"/>
      <point x="100" y="468"/>
      <point x="181" y="410"/>
    </contour>
  </outline>
</glyph>
<glyph name="five-ar" format="2">
  <advance width="585"/>
  <unicode hex="0665"/>
  <outline>
    <contour>
      <point x="292" y="95" type="curve" smooth="yes"/>
      <point x="210" y="95"/>
      <point x="164" y="147"/>
      <point x="164" y="241" type="curve" smooth="yes"/>
      <point x="164" y="348"/>
      <point x="225" y="439"/>
      <point x="292" y="439" type="curve" smooth="yes"/>
      <point x="359" y="439"/>
      <point x="421" y="347"/>
      <point x="421" y="241" type="curve" smooth="yes"/>
      <point x="421" y="147"/>
      <point x="375" y="95"/>
    </contour>
    <contour>
      <point x="292" y="-7" type="curve" smooth="yes"/>
      <point x="433" y="-7"/>
      <point x="525" y="91"/>
      <point x="525" y="241" type="curve" smooth="yes"/>
      <point x="525" y="404"/>
      <point x="420" y="541"/>
      <point x="292" y="541" type="curve" smooth="yes"/>
      <point x="163" y="541"/>
      <point x="60" y="405"/>
      <point x="60" y="241" type="curve" smooth="yes"/>
      <point x="60" y="91"/>
      <point x="151" y="-7"/>
    </contour>
  </outline>
</glyph>
<glyph name="six-ar" format="2">
  <advance width="458"/>
  <unicode hex="0666"/>
  <outline>
    <contour>
      <point x="378" y="0" type="line"/>
      <point x="378" y="435" type="line" smooth="yes"/>
      <point x="378" y="592"/>
      <point x="311" y="661"/>
      <point x="153" y="661" type="curve" smooth="yes"/>
      <point x="10" y="661" type="line"/>
      <point x="10" y="559" type="line"/>
      <point x="153" y="559" type="line" smooth="yes"/>
      <point x="237" y="559"/>
      <point x="274" y="529"/>
      <point x="274" y="435" type="curve" smooth="yes"/>
      <point x="274" y="0" type="line"/>
    </contour>
  </outline>
</glyph>
<glyph name="eight-ar" format="2">
  <advance width="557"/>
  <unicode hex="0668"/>
  <outline>
    <contour>
      <point x="527" y="0" type="line"/>
      <point x="340" y="661" type="line"/>
      <point x="220" y="661" type="line"/>
      <point x="30" y="0" type="line"/>
      <point x="148" y="0" type="line"/>
      <point x="310" y="657" type="line"/>
      <point x="250" y="657" type="line"/>
      <point x="412" y="0" type="line"/>
    </contour>
  </outline>
</glyph>
<glyph name="nine-ar" format="2">
  <advance width="553"/>
  <unicode hex="0669"/>
  <outline>
    <contour>
      <point x="463" y="0" type="line"/>
      <point x="463" y="435" type="line" smooth="yes"/>
      <point x="463" y="575"/>
      <point x="384" y="671"/>
      <point x="254" y="671" type="curve" smooth="yes"/>
      <point x="138" y="671"/>
      <point x="50" y="576"/>
      <point x="50" y="451" type="curve" smooth="yes"/>
      <point x="50" y="327"/>
      <point x="137" y="245"/>
      <point x="267" y="245" type="curve" smooth="yes"/>
      <point x="329" y="245"/>
      <point x="385" y="261"/>
      <point x="437" y="295" type="curve"/>
      <point x="381" y="381" type="line"/>
      <point x="343" y="356"/>
      <point x="311" y="347"/>
      <point x="267" y="347" type="curve" smooth="yes"/>
      <point x="198" y="347"/>
      <point x="154" y="391"/>
      <point x="154" y="451" type="curve" smooth="yes"/>
      <point x="154" y="521"/>
      <point x="197" y="569"/>
      <point x="254" y="569" type="curve" smooth="yes"/>
      <point x="319" y="569"/>
      <point x="359" y="520"/>
      <point x="359" y="435" type="curve" smooth="yes"/>
      <point x="359" y="0" type="line"/>
    </contour>
  </outline>
</glyph>
<glyph name="qafDotless-ar" format="2">
  <advance width="788"/>
  <unicode hex="066F"/>
  <anchor x="347" y="-230" name="bottom"/>
  <anchor x="518" y="408" name="top"/>
  <outline>
    <contour>
      <point x="131" y="38" type="curve" smooth="yes"/>
      <point x="131" y="84"/>
      <point x="146" y="150"/>
      <point x="177" y="223" type="curve"/>
      <point x="210" y="169" type="line"/>
      <point x="33" y="228" type="line"/>
      <point x="89" y="250" type="line"/>
      <point x="45" y="151"/>
      <point x="30" y="68"/>
      <point x="30" y="23" type="curve" smooth="yes"/>
      <point x="30" y="-146"/>
      <point x="155" y="-230"/>
      <point x="347" y="-230" type="curve" smooth="yes"/>
      <point x="599" y="-230"/>
      <point x="718" y="-98"/>
      <point x="718" y="122" type="curve" smooth="yes"/>
      <point x="718" y="291"/>
      <point x="638" y="408"/>
      <point x="518" y="408" type="curve" smooth="yes"/>
      <point x="417" y="408"/>
      <point x="318" y="316"/>
      <point x="318" y="177" type="curve" smooth="yes"/>
      <point x="318" y="92"/>
      <point x="376" y="21"/>
      <point x="511" y="21" type="curve" smooth="yes"/>
      <point x="567" y="21"/>
      <point x="631" y="36"/>
      <point x="682" y="66" type="curve"/>
      <point x="631" y="142" type="line"/>
      <point x="594" y="129"/>
      <point x="559" y="123"/>
      <point x="524" y="123" type="curve" smooth="yes"/>
      <point x="440" y="123"/>
      <point x="413" y="153"/>
      <point x="413" y="197" type="curve" smooth="yes"/>
      <point x="413" y="248"/>
      <point x="454" y="306"/>
      <point x="512" y="306" type="curve" smooth="yes"/>
      <point x="588" y="306"/>
      <point x="626" y="198"/>
      <point x="626" y="90" type="curve" smooth="yes"/>
      <point x="626" y="-56"/>
      <point x="518" y="-128"/>
      <point x="358" y="-128" type="curve" smooth="yes"/>
      <point x="210" y="-128"/>
      <point x="131" y="-72"/>
    </contour>
  </outline>
</glyph>
<glyph name="alefabove-ar" format="2">
  <unicode hex="0670"/>
  <anchor x="48" y="525" name="_top"/>
  <anchor x="48" y="770" name="top"/>
  <outline>
    <contour>
      <point x="20" y="818" type="line"/>
      <point x="20" y="635" type="line"/>
      <point x="76" y="635" type="line"/>
      <point x="76" y="818" type="line"/>
    </contour>
  </outline>
</glyph>
<glyph name="noonghunna-ar" format="2">
  <advance width="700"/>
  <unicode hex="06BA"/>
  <anchor x="321" y="-230" name="bottom"/>
  <anchor x="321" y="253" name="top"/>
  <outline>
    <contour>
      <point x="131" y="38" type="curve" smooth="yes"/>
      <point x="131" y="84"/>
      <point x="146" y="150"/>
      <point x="177" y="223" type="curve"/>
      <point x="210" y="169" type="line"/>
      <point x="33" y="228" type="line"/>
      <point x="89" y="250" type="line"/>
      <point x="45" y="151"/>
      <point x="30" y="68"/>
      <point x="30" y="23" type="curve" smooth="yes"/>
      <point x="30" y="-116"/>
      <point x="119" y="-230"/>
      <point x="321" y="-230" type="curve" smooth="yes"/>
      <point x="509" y="-230"/>
      <point x="630" y="-121"/>
      <point x="630" y="50" type="curve" smooth="yes"/>
      <point x="630" y="106"/>
      <point x="620" y="208"/>
      <point x="548" y="342" type="curve"/>
      <point x="468" y="246" type="line"/>
      <point x="517" y="145"/>
      <point x="535" y="75"/>
      <point x="535" y="23" type="curve" smooth="yes"/>
      <point x="535" y="-70"/>
      <point x="439" y="-128"/>
      <point x="334" y="-128" type="curve" smooth="yes"/>
      <point x="206" y="-128"/>
      <point x="131" y="-70"/>
    </contour>
  </outline>
</glyph>
<glyph name="Germandbls" format="2">
  <advance width="762"/>
  <unicode hex="1E9E"/>
  <outline>
    <contour>
      <point x="490" y="-10" type="curve" smooth="yes"/>
      <point x="606" y="-10"/>
      <point x="707" y="77"/>
      <point x="707" y="184" type="curve" smooth="yes"/>
      <point x="707" y="318"/>
      <point x="618" y="354"/>
      <point x="545" y="384" type="curve" smooth="yes"/>
      <point x="491" y="407"/>
      <point x="445" y="440"/>
      <point x="445" y="486" type="curve" smooth="yes"/>
      <point x="445" y="534"/>
      <point x="496" y="586"/>
      <point x="641" y="609" type="curve"/>
      <point x="636" y="682" type="line"/>
      <point x="570" y="710"/>
      <point x="492" y="726"/>
      <point x="407" y="726" type="curve" smooth="yes"/>
      <point x="217" y="726"/>
      <point x="100" y="570"/>
      <point x="99" y="350" type="curve" smooth="yes"/>
      <point x="98" y="1" type="line"/>
      <point x="206" y="1" type="line"/>
      <point x="208" y="343" type="line" smooth="yes"/>
      <point x="209" y="525"/>
      <point x="291" y="635"/>
      <point x="417" y="632" type="curve"/>
      <point x="467" y="632"/>
      <point x="543" y="623"/>
      <point x="591" y="605" type="curve"/>
      <point x="541" y="643" type="line"/>
      <point x="444" y="635"/>
      <point x="338" y="582"/>
      <point x="338" y="460" type="curve" smooth="yes"/>
      <point x="338" y="362"/>
      <point x="403" y="322"/>
      <point x="469" y="291" type="curve" smooth="yes"/>
      <point x="535" y="260"/>
      <point x="601" y="239"/>
      <point x="602" y="171" type="curve" smooth="yes"/>
      <point x="602" y="119"/>
      <point x="559" y="87"/>
      <point x="489" y="87" type="curve" smooth="yes"/>
      <point x="443" y="87"/>
      <point x="393" y="118"/>
      <point x="362" y="155" type="curve"/>
      <point x="295" y="75" type="line"/>
      <point x="338" y="20"/>
      <point x="418" y="-10"/>
    </contour>
  </outline>
</glyph>
<glyph name="emdash" format="2">
  <advance width="868"/>
  <unicode hex="2014"/>
  <note>
emdash
</note>
  <outline>
    <contour>
      <point x="53" y="237" type="line"/>
      <point x="815" y="237" type="line"/>
      <point x="815" y="337" type="line"/>
      <point x="53" y="337" type="line"/>
    </contour>
  </outline>
</glyph>
<glyph name="quoteleft" format="2">
  <advance width="241"/>
  <unicode hex="2018"/>
  <note>
quoteleft
</note>
  <outline>
    <contour>
      <point x="40" y="572" type="curve" smooth="yes"/>
      <point x="40" y="499"/>
      <point x="89" y="459"/>
      <point x="139" y="459" type="curve"/>
      <point x="173" y="459"/>
      <point x="200" y="479"/>
      <point x="200" y="512" type="curve"/>
      <point x="200" y="560"/>
      <point x="132" y="571"/>
      <point x="132" y="608" type="curve" smooth="yes"/>
      <point x="132" y="631"/>
      <point x="169" y="665"/>
      <point x="221" y="689" type="curve"/>
      <point x="183" y="735" type="line"/>
      <point x="110" y="712"/>
      <point x="40" y="648"/>
    </contour>
  </outline>
</glyph>
<glyph name="daggerdbl" format="2">
  <advance width="404"/>
  <unicode hex="2021"/>
  <note>
daggerdbl
</note>
  <outline>
    <contour>
      <point x="156" y="724" type="line"/>
      <point x="156" y="194" type="line"/>
      <point x="253" y="194" type="line"/>
      <point x="253" y="724" type="line"/>
    </contour>
    <contour>
      <point x="46" y="512" type="line"/>
      <point x="358" y="512" type="line"/>
      <point x="358" y="595" type="line"/>
      <point x="46" y="595" type="line"/>
    </contour>
    <contour>
      <point x="46" y="369" type="line"/>
      <point x="358" y="369" type="line"/>
      <point x="358" y="452" type="line"/>
      <point x="46" y="452" type="line"/>
    </contour>
  </outline>
</glyph>
<glyph name="bullet" format="2">
  <advance width="346"/>
  <unicode hex="2022"/>
  <note>
bullet
</note>
  <outline>
    <contour>
      <point x="173" y="216" type="curve" smooth="yes"/>
      <point x="248" y="216"/>
      <point x="310" y="276"/>
      <point x="310" y="351" type="curve" smooth="yes"/>
      <point x="310" y="429"/>
      <point x="247" y="488"/>
      <point x="173" y="488" type="curve" smooth="yes"/>
      <point x="99" y="488"/>
      <point x="37" y="429"/>
      <point x="37" y="351" type="curve" smooth="yes"/>
      <point x="37" y="276"/>
      <point x="98" y="216"/>
    </contour>
  </outline>
</glyph>
<glyph name="perthousand" format="2">
  <advance width="1190"/>
  <unicode hex="2030"/>
  <note>
perthousand
</note>
  <outline>
    <contour>
      <point x="193" y="329" type="curve"/>
      <point x="284" y="329"/>
      <point x="347" y="414"/>
      <point x="347" y="518" type="curve"/>
      <point x="347" y="624"/>
      <point x="288" y="709"/>
      <point x="194" y="709" type="curve"/>
      <point x="99" y="709"/>
      <point x="40" y="624"/>
      <point x="40" y="518" type="curve"/>
      <point x="40" y="413"/>
      <point x="99" y="329"/>
    </contour>
    <contour>
      <point x="194" y="404" type="curve"/>
      <point x="148" y="404"/>
      <point x="123" y="452"/>
      <point x="123" y="518" type="curve"/>
      <point x="123" y="583"/>
      <point x="147" y="633"/>
      <point x="193" y="633" type="curve"/>
      <point x="239" y="633"/>
      <point x="263" y="584"/>
      <point x="263" y="518" type="curve"/>
      <point x="263" y="453"/>
      <point x="240" y="404"/>
    </contour>
    <contour>
      <point x="636" y="-9" type="curve"/>
      <point x="726" y="-9"/>
      <point x="789" y="76"/>
      <point x="789" y="180" type="curve"/>
      <point x="789" y="286"/>
      <point x="730" y="371"/>
      <point x="636" y="371" type="curve"/>
      <point x="541" y="371"/>
      <point x="482" y="286"/>
      <point x="482" y="180" type="curve"/>
      <point x="482" y="75"/>
      <point x="545" y="-9"/>
    </contour>
    <contour>
      <point x="636" y="65" type="curve"/>
      <point x="590" y="65"/>
      <point x="565" y="114"/>
      <point x="565" y="180" type="curve"/>
      <point x="565" y="245"/>
      <point x="589" y="295"/>
      <point x="636" y="295" type="curve"/>
      <point x="681" y="295"/>
      <point x="706" y="246"/>
      <point x="706" y="180" type="curve"/>
      <point x="706" y="115"/>
      <point x="682" y="65"/>
    </contour>
    <contour>
      <point x="987" y="-9" type="curve"/>
      <point x="1077" y="-9"/>
      <point x="1140" y="76"/>
      <point x="1140" y="180" type="curve"/>
      <point x="1140" y="286"/>
      <point x="1082" y="371"/>
      <point x="987" y="371" type="curve"/>
      <point x="893" y="371"/>
      <point x="833" y="286"/>
      <point x="833" y="180" type="curve"/>
      <point x="833" y="75"/>
      <point x="896" y="-9"/>
    </contour>
    <contour>
      <point x="987" y="65" type="curve"/>
      <point x="941" y="65"/>
      <point x="916" y="114"/>
      <point x="916" y="180" type="curve"/>
      <point x="916" y="245"/>
      <point x="940" y="295"/>
      <point x="987" y="295" type="curve"/>
      <point x="1033" y="295"/>
      <point x="1057" y="246"/>
      <point x="1057" y="180" type="curve"/>
      <point x="1057" y="115"/>
      <point x="1034" y="65"/>
    </contour>
    <component base="fraction" xOffset="118"/>
  </outline>
</glyph>
<glyph name="guilsinglleft" format="2">
  <advance width="273"/>
  <unicode hex="2039"/>
  <note>
guilsinglleft
</note>
  <outline>
    <contour>
      <point x="114" y="266" type="line"/>
      <point x="113" y="255" type="line"/>
      <point x="232" y="426" type="line"/>
      <point x="169" y="471" type="line"/>
      <point x="7" y="254" type="line"/>
      <point x="7" y="262" type="line"/>
      <point x="170" y="50" type="line"/>
      <point x="233" y="95" type="line"/>
    </contour>
  </outline>
</glyph>
<glyph name="fraction" format="2">
  <advance width="606"/>
  <unicode hex="2044"/>
  <note>
fraction
</note>
  <outline>
    <contour>
      <point x="20" y="0" type="line"/>
      <point x="118" y="0" type="line"/>
      <point x="323" y="307" type="line"/>
      <point x="586" y="700" type="line"/>
      <point x="483" y="700" type="line"/>
      <point x="241" y="335" type="line"/>
    </contour>
  </outline>
</glyph>
<glyph name="colonsign" format="2">
  <advance width="637"/>
  <unicode hex="20A1"/>
  <anchor x="377" y="0" name="bottom"/>
  <anchor x="372" y="700" name="top"/>
  <outline>
    <contour>
      <point x="28" y="-70" type="line"/>
      <point x="105" y="-106" type="line"/>
      <point x="533" y="773" type="line"/>
      <point x="460" y="803" type="line"/>
    </contour>
    <contour>
      <point x="188" y="-103" type="line"/>
      <point x="265" y="-139" type="line"/>
      <point x="693" y="740" type="line"/>
      <point x="620" y="770" type="line"/>
    </contour>
    <component base="C"/>
  </outline>
</glyph>
<glyph name="dong" format="2">
  <advance width="491"/>
  <unicode hex="20AB"/>
  <outline>
    <contour>
      <point x="191" y="146" type="curve"/>
      <point x="264" y="146"/>
      <point x="315" y="219"/>
      <point x="315" y="262" type="curve"/>
      <point x="295" y="266" type="line"/>
      <point x="295" y="156" type="line"/>
      <point x="392" y="156" type="line"/>
      <point x="392" y="700" type="line"/>
      <point x="295" y="700" type="line"/>
      <point x="295" y="404" type="line"/>
      <point x="325" y="377" type="line"/>
      <point x="311" y="450"/>
      <point x="261" y="497"/>
      <point x="195" y="497" type="curve"/>
      <point x="113" y="497"/>
      <point x="40" y="423"/>
      <point x="40" y="321" type="curve"/>
      <point x="40" y="221"/>
      <point x="114" y="146"/>
    </contour>
    <contour>
      <point x="216" y="227" type="curve"/>
      <point x="166" y="227"/>
      <point x="137" y="273"/>
      <point x="137" y="321" type="curve"/>
      <point x="137" y="373"/>
      <point x="166" y="417"/>
      <point x="216" y="417" type="curve"/>
      <point x="265" y="417"/>
      <point x="300" y="373"/>
      <point x="300" y="321" type="curve"/>
      <point x="300" y="273"/>
      <point x="265" y="227"/>
    </contour>
    <contour>
      <point x="41" y="0" type="line"/>
      <point x="430" y="0" type="line"/>
      <point x="430" y="78" type="line"/>
      <point x="41" y="78" type="line"/>
    </contour>
    <contour>
      <point x="203" y="534" type="line"/>
      <point x="466" y="534" type="line"/>
      <point x="466" y="614" type="line"/>
      <point x="203" y="614" type="line"/>
    </contour>
  </outline>
</glyph>
<glyph name="euro" format="2">
  <advance width="646"/>
  <unicode hex="20AC"/>
  <note>
Euro
</note>
  <outline>
    <contour>
      <point x="15" y="222" type="line"/>
      <point x="417" y="221" type="line"/>
      <point x="417" y="314" type="line"/>
      <point x="15" y="316" type="line"/>
    </contour>
    <contour>
      <point x="15" y="368" type="line"/>
      <point x="417" y="367" type="line"/>
      <point x="417" y="460" type="line"/>
      <point x="15" y="461" type="line"/>
    </contour>
    <contour>
      <point x="429" y="-10" type="curve"/>
      <point x="487" y="-10"/>
      <point x="545" y="9"/>
      <point x="591" y="37" type="curve"/>
      <point x="541" y="121" type="line"/>
      <point x="508" y="98"/>
      <point x="470" y="86"/>
      <point x="429" y="86" type="curve"/>
      <point x="296" y="86"/>
      <point x="189" y="180"/>
      <point x="189" y="350" type="curve"/>
      <point x="189" y="503"/>
      <point x="290" y="610"/>
      <point x="429" y="610" type="curve"/>
      <point x="470" y="610"/>
      <point x="509" y="597"/>
      <point x="541" y="576" type="curve"/>
      <point x="590" y="659" type="line"/>
      <point x="544" y="689"/>
      <point x="487" y="706"/>
      <point x="429" y="706" type="curve"/>
      <point x="237" y="706"/>
      <point x="92" y="556"/>
      <point x="92" y="350" type="curve"/>
      <point x="92" y="121"/>
      <point x="248" y="-10"/>
    </contour>
  </outline>
</glyph>
<glyph name="kip" format="2">
  <advance width="759"/>
  <unicode hex="20AD"/>
  <anchor x="363" y="0" name="bottom"/>
  <anchor x="375" y="700" name="top"/>
  <outline>
    <contour>
      <point x="377" y="415" type="line"/>
      <point x="377" y="320" type="line"/>
      <point x="632" y="320" type="line"/>
      <point x="632" y="415" type="line"/>
    </contour>
    <contour>
      <point x="199" y="320" type="line"/>
      <point x="203" y="415" type="line"/>
      <point x="30" y="415" type="line"/>
      <point x="30" y="320" type="line"/>
    </contour>
    <component base="K" xOffset="27"/>
  </outline>
</glyph>
<glyph name="peso" format="2">
  <advance width="775"/>
  <unicode hex="20B1"/>
  <anchor x="401" y="0" name="bottom"/>
  <anchor x="401" y="700" name="top"/>
  <outline>
    <contour>
      <point x="90" y="393" type="line"/>
      <point x="203" y="393" type="line"/>
      <point x="227" y="407" type="line"/>
      <point x="551" y="407" type="line"/>
      <point x="583" y="393" type="line"/>
      <point x="705" y="393" type="line"/>
      <point x="705" y="467" type="line"/>
      <point x="588" y="467" type="line"/>
      <point x="553" y="457" type="line"/>
      <point x="229" y="457" type="line"/>
      <point x="206" y="467" type="line"/>
      <point x="90" y="467" type="line"/>
    </contour>
    <contour>
      <point x="90" y="508" type="line"/>
      <point x="204" y="508" type="line"/>
      <point x="230" y="516" type="line"/>
      <point x="553" y="516" type="line"/>
      <point x="589" y="508" type="line"/>
      <point x="705" y="508" type="line"/>
      <point x="705" y="580" type="line"/>
      <point x="584" y="580" type="line"/>
      <point x="547" y="566" type="line"/>
      <point x="231" y="566" type="line"/>
      <point x="209" y="580" type="line"/>
      <point x="90" y="580" type="line"/>
    </contour>
    <component base="P" xOffset="80"/>
  </outline>
</glyph>
<glyph name="rupeeIndian" format="2">
  <advance width="540"/>
  <unicode hex="20B9"/>
  <outline>
    <contour>
      <point x="217" y="660" type="curve"/>
      <point x="316" y="596" type="line"/>
      <point x="506" y="596" type="line"/>
      <point x="506" y="700" type="line"/>
      <point x="68" y="700" type="line"/>
      <point x="68" y="596" type="line"/>
      <point x="199" y="596" type="line" smooth="yes"/>
      <point x="269" y="596"/>
      <point x="328" y="551"/>
      <point x="328" y="478" type="curve"/>
      <point x="328" y="421"/>
      <point x="291" y="367"/>
      <point x="227" y="367" type="curve"/>
      <point x="119" y="367" type="line"/>
      <point x="119" y="318" type="line"/>
      <point x="160" y="263" type="line"/>
      <point x="217" y="263" type="line"/>
      <point x="341" y="263"/>
      <point x="438" y="365"/>
      <point x="438" y="477" type="curve"/>
      <point x="438" y="590"/>
      <point x="326" y="660"/>
    </contour>
    <contour>
      <point x="233" y="341" type="line"/>
      <point x="122" y="316" type="line"/>
      <point x="347" y="0" type="line"/>
      <point x="478" y="-1" type="line"/>
    </contour>
    <component base="strokeshortcomb" xOffset="192" yOffset="182"/>
  </outline>
</glyph>
<glyph name="liraTurkish" format="2">
  <advance width="609"/>
  <unicode hex="20BA"/>
  <outline>
    <contour>
      <point x="237" y="-10" type="curve"/>
      <point x="391" y="-10"/>
      <point x="548" y="89"/>
      <point x="560" y="193" type="curve"/>
      <point x="468" y="219" type="line"/>
      <point x="433" y="124"/>
      <point x="324" y="87"/>
      <point x="244" y="87" type="curve"/>
      <point x="255" y="52" type="line"/>
      <point x="254" y="700" type="line"/>
      <point x="156" y="700" type="line"/>
      <point x="156" y="0" type="line"/>
      <point x="173" y="-8"/>
      <point x="200" y="-10"/>
    </contour>
    <contour>
      <point x="28" y="404" type="line"/>
      <point x="67" y="336" type="line"/>
      <point x="412" y="528" type="line"/>
      <point x="368" y="595" type="line"/>
    </contour>
    <contour>
      <point x="48" y="244" type="line"/>
      <point x="87" y="176" type="line"/>
      <point x="432" y="368" type="line"/>
      <point x="388" y="435" type="line"/>
    </contour>
  </outline>
</glyph>
<glyph name="ruble" format="2">
  <advance width="719"/>
  <unicode hex="20BD"/>
  <anchor x="406" y="0" name="bottom"/>
  <anchor x="406" y="700" name="top"/>
  <outline>
    <contour>
      <point x="194" y="271" type="line"/>
      <point x="194" y="364" type="line"/>
      <point x="91" y="364" type="line"/>
      <point x="91" y="271" type="line"/>
    </contour>
    <component base="P" xOffset="85"/>
    <component base="strokeshortcomb" xOffset="40" yOffset="-134"/>
  </outline>
</glyph>
<glyph name="literSign" format="2">
  <advance width="539"/>
  <unicode hex="2113"/>
  <note>
uni2113
</note>
  <outline>
    <contour>
      <point x="410" y="107" type="line"/>
      <point x="381" y="88"/>
      <point x="342" y="62"/>
      <point x="314" y="62" type="curve" smooth="yes"/>
      <point x="243" y="62"/>
      <point x="200" y="141"/>
      <point x="200" y="242" type="curve" smooth="yes"/>
      <point x="200" y="355"/>
      <point x="270" y="666"/>
      <point x="387" y="674" type="curve"/>
      <point x="415" y="672"/>
      <point x="436" y="650"/>
      <point x="436" y="612" type="curve" smooth="yes"/>
      <point x="436" y="484"/>
      <point x="306" y="261"/>
      <point x="25" y="124" type="curve"/>
      <point x="57" y="67" type="line"/>
      <point x="393" y="224"/>
      <point x="519" y="473"/>
      <point x="519" y="608" type="curve" smooth="yes"/>
      <point x="519" y="690"/>
      <point x="469" y="746"/>
      <point x="388" y="748" type="curve"/>
      <point x="197" y="744"/>
      <point x="117" y="427"/>
      <point x="117" y="247" type="curve" smooth="yes"/>
      <point x="117" y="99"/>
      <point x="184" y="-17"/>
      <point x="289" y="-17" type="curve" smooth="yes"/>
      <point x="347" y="-17"/>
      <point x="400" y="9"/>
      <point x="442" y="47" type="curve"/>
    </contour>
  </outline>
</glyph>
<glyph name="numero" format="2">
  <advance width="1177"/>
  <unicode hex="2116"/>
  <anchor x="393" y="0" name="bottom"/>
  <anchor x="393" y="700" name="top"/>
  <outline>
    <contour>
      <point x="796" y="193" type="line"/>
      <point x="1142" y="193" type="line"/>
      <point x="1142" y="282" type="line"/>
      <point x="796" y="282" type="line"/>
    </contour>
    <contour>
      <point x="1133.2" y="530.9" type="curve"/>
      <point x="1133.2" y="631"/>
      <point x="1058.4" y="708"/>
      <point x="959.4" y="708" type="curve"/>
      <point x="860.4" y="708"/>
      <point x="787.8" y="631"/>
      <point x="787.8" y="530.9" type="curve"/>
      <point x="787.8" y="431.9"/>
      <point x="860.4" y="358.2"/>
      <point x="959.4" y="358.2" type="curve"/>
      <point x="1058.4" y="358.2"/>
      <point x="1133.2" y="431.9"/>
    </contour>
    <contour>
      <point x="1042" y="531" type="curve"/>
      <point x="1042" y="480"/>
      <point x="1010" y="441"/>
      <point x="959" y="441" type="curve"/>
      <point x="909" y="441"/>
      <point x="878" y="480"/>
      <point x="878" y="531" type="curve"/>
      <point x="878" y="585"/>
      <point x="909" y="625"/>
      <point x="959" y="625" type="curve"/>
      <point x="1010" y="625"/>
      <point x="1042" y="585"/>
    </contour>
    <component base="N"/>
  </outline>
</glyph>
<glyph name="Ohm" format="2">
  <advance width="675"/>
  <unicode hex="2126"/>
  <note>
Ohm
</note>
  <outline>
    <contour>
      <point x="338" y="710" type="curve"/>
      <point x="161" y="710"/>
      <point x="25" y="581"/>
      <point x="25" y="404" type="curve"/>
      <point x="25" y="267"/>
      <point x="110" y="141"/>
      <point x="185" y="65" type="curve"/>
      <point x="210" y="97" type="line"/>
      <point x="39" y="97" type="line"/>
      <point x="39" y="0" type="line"/>
      <point x="287" y="0" type="line"/>
      <point x="287" y="56" type="line"/>
      <point x="221" y="149"/>
      <point x="123" y="226"/>
      <point x="123" y="403" type="curve"/>
      <point x="123" y="524"/>
      <point x="215" y="613"/>
      <point x="338" y="613" type="curve"/>
      <point x="460" y="613"/>
      <point x="553" y="524"/>
      <point x="553" y="403" type="curve"/>
      <point x="553" y="247"/>
      <point x="482" y="175"/>
      <point x="386" y="56" type="curve"/>
      <point x="386" y="0" type="line"/>
      <point x="636" y="0" type="line"/>
      <point x="636" y="97" type="line"/>
      <point x="472" y="97" type="line"/>
      <point x="491" y="66" type="line"/>
      <point x="564" y="140"/>
      <point x="650" y="268"/>
      <point x="650" y="403" type="curve"/>
      <point x="650" y="582"/>
      <point x="514" y="710"/>
    </contour>
  </outline>
</glyph>
<glyph name="estimated" format="2">
  <advance width="629"/>
  <unicode hex="212E"/>
  <note>
estimated
</note>
  <outline>
    <contour>
      <point x="319" y="-11" type="curve" smooth="yes"/>
      <point x="425" y="-11"/>
      <point x="489" y="26"/>
      <point x="550" y="115" type="curve" smooth="yes"/>
      <point x="553" y="119"/>
      <point x="556" y="125"/>
      <point x="556" y="130" type="curve" smooth="yes"/>
      <point x="556" y="143"/>
      <point x="545" y="150"/>
      <point x="534" y="150" type="curve" smooth="yes"/>
      <point x="527" y="150"/>
      <point x="521" y="146"/>
      <point x="517" y="139" type="curve"/>
      <point x="467" y="60"/>
      <point x="403" y="28"/>
      <point x="319" y="28" type="curve" smooth="yes"/>
      <point x="258" y="28"/>
      <point x="202" y="50"/>
      <point x="160" y="92" type="curve" smooth="yes"/>
      <point x="159" y="94"/>
      <point x="158" y="95"/>
      <point x="158" y="98" type="curve" smooth="yes"/>
      <point x="158" y="292" type="line"/>
      <point x="153" y="285" type="line"/>
      <point x="573" y="285" type="line" smooth="yes"/>
      <point x="588" y="285"/>
      <point x="596" y="297"/>
      <point x="595" y="309" type="curve" smooth="yes"/>
      <point x="585" y="470"/>
      <point x="476" y="581"/>
      <point x="319" y="581" type="curve" smooth="yes"/>
      <point x="151" y="581"/>
      <point x="43" y="451"/>
      <point x="43" y="285" type="curve" smooth="yes"/>
      <point x="43" y="120"/>
      <point x="151" y="-11"/>
    </contour>
    <contour>
      <point x="491" y="324" type="line"/>
      <point x="149" y="324" type="line"/>
      <point x="158" y="314" type="line"/>
      <point x="158" y="473" type="line" smooth="yes"/>
      <point x="158" y="476"/>
      <point x="159" y="477"/>
      <point x="160" y="479" type="curve" smooth="yes"/>
      <point x="201" y="522"/>
      <point x="258" y="543"/>
      <point x="318" y="543" type="curve" smooth="yes"/>
      <point x="378" y="543"/>
      <point x="435" y="522"/>
      <point x="479" y="478" type="curve"/>
      <point x="481" y="477"/>
      <point x="482" y="475"/>
      <point x="482" y="473" type="curve" smooth="yes"/>
      <point x="482" y="320" type="line"/>
    </contour>
  </outline>
</glyph>
<glyph name="partialdiff" format="2">
  <advance width="590"/>
  <unicode hex="2202"/>
  <note>
partialdiff
</note>
  <outline>
    <contour>
      <point x="294" y="-7" type="curve"/>
      <point x="463" y="-7"/>
      <point x="550" y="142"/>
      <point x="550" y="280" type="curve"/>
      <point x="550" y="480"/>
      <point x="400" y="700"/>
      <point x="233" y="735" type="curve"/>
      <point x="202" y="656" type="line"/>
      <point x="323" y="613"/>
      <point x="450" y="488"/>
      <point x="459" y="345" type="curve"/>
      <point x="495" y="362" type="line"/>
      <point x="444" y="465"/>
      <point x="387" y="536"/>
      <point x="282" y="536" type="curve"/>
      <point x="160" y="536"/>
      <point x="40" y="417"/>
      <point x="40" y="265" type="curve"/>
      <point x="40" y="113"/>
      <point x="152" y="-7"/>
    </contour>
    <contour>
      <point x="297" y="82" type="curve"/>
      <point x="207" y="82"/>
      <point x="136" y="162"/>
      <point x="136" y="265" type="curve"/>
      <point x="136" y="368"/>
      <point x="207" y="446"/>
      <point x="297" y="446" type="curve"/>
      <point x="389" y="446"/>
      <point x="459" y="365"/>
      <point x="459" y="265" type="curve"/>
      <point x="459" y="162"/>
      <point x="388" y="82"/>
    </contour>
  </outline>
</glyph>
<glyph name="increment" format="2">
  <advance width="711"/>
  <unicode hex="2206"/>
  <note>
increment
</note>
  <outline>
    <contour>
      <point x="719" y="-38" type="line"/>
      <point x="340" y="748" type="line"/>
      <point x="364" y="736" type="line"/>
      <point x="1" y="-28" type="line"/>
      <point x="-18" y="0" type="line"/>
      <point x="724" y="0" type="line"/>
    </contour>
    <contour>
      <point x="139" y="64" type="line"/>
      <point x="363" y="530" type="line"/>
      <point x="347" y="530" type="line"/>
      <point x="573" y="61" type="line"/>
      <point x="598" y="83" type="line"/>
      <point x="122" y="83" type="line"/>
    </contour>
  </outline>
</glyph>
<glyph name="minus" format="2">
  <advance width="580"/>
  <unicode hex="2212"/>
  <note>
minus
</note>
  <outline>
    <contour>
      <point x="50" y="247" type="line"/>
      <point x="530" y="247" type="line"/>
      <point x="530" y="336" type="line"/>
      <point x="50" y="336" type="line"/>
    </contour>
  </outline>
</glyph>
<glyph name="bulletoperator" format="2">
  <advance width="244"/>
  <unicode hex="2219"/>
  <note>
bulletoperator
</note>
  <outline>
    <contour>
      <point x="123" y="229" type="curve" smooth="yes"/>
      <point x="161" y="229"/>
      <point x="194" y="261"/>
      <point x="194" y="301" type="curve" smooth="yes"/>
      <point x="194" y="340"/>
      <point x="161" y="373"/>
      <point x="123" y="373" type="curve" smooth="yes"/>
      <point x="83" y="373"/>
      <point x="50" y="340"/>
      <point x="50" y="301" type="curve" smooth="yes"/>
      <point x="50" y="261"/>
      <point x="83" y="229"/>
    </contour>
  </outline>
</glyph>
<glyph name="infinity" format="2">
  <advance width="867"/>
  <unicode hex="221E"/>
  <outline>
    <contour>
      <point x="213" y="47" type="curve" smooth="yes"/>
      <point x="284" y="47"/>
      <point x="324" y="76"/>
      <point x="371" y="125" type="curve" smooth="yes"/>
      <point x="542" y="306" type="line" smooth="yes"/>
      <point x="570" y="334"/>
      <point x="607" y="355"/>
      <point x="645" y="355" type="curve" smooth="yes"/>
      <point x="691" y="355"/>
      <point x="739" y="320"/>
      <point x="739" y="242" type="curve" smooth="yes"/>
      <point x="739" y="164"/>
      <point x="694" y="129"/>
      <point x="645" y="129" type="curve" smooth="yes"/>
      <point x="609" y="129"/>
      <point x="578" y="145"/>
      <point x="547" y="177" type="curve" smooth="yes"/>
      <point x="379" y="353" type="line" smooth="yes"/>
      <point x="328" y="406"/>
      <point x="288" y="437"/>
      <point x="215" y="437" type="curve" smooth="yes"/>
      <point x="128" y="437"/>
      <point x="45" y="375"/>
      <point x="45" y="242" type="curve" smooth="yes"/>
      <point x="45" y="109"/>
      <point x="125" y="47"/>
    </contour>
    <contour>
      <point x="222" y="129" type="curve" smooth="yes"/>
      <point x="173" y="129"/>
      <point x="128" y="164"/>
      <point x="128" y="242" type="curve" smooth="yes"/>
      <point x="128" y="320"/>
      <point x="175" y="355"/>
      <point x="221" y="355" type="curve" smooth="yes"/>
      <point x="260" y="355"/>
      <point x="297" y="334"/>
      <point x="324" y="306" type="curve" smooth="yes"/>
      <point x="496" y="125" type="line" smooth="yes"/>
      <point x="542" y="77"/>
      <point x="583" y="47"/>
      <point x="654" y="47" type="curve" smooth="yes"/>
      <point x="742" y="47"/>
      <point x="822" y="109"/>
      <point x="822" y="242" type="curve" smooth="yes"/>
      <point x="822" y="375"/>
      <point x="739" y="437"/>
      <point x="652" y="437" type="curve" smooth="yes"/>
      <point x="579" y="437"/>
      <point x="539" y="407"/>
      <point x="488" y="353" type="curve" smooth="yes"/>
      <point x="320" y="177" type="line" smooth="yes"/>
      <point x="290" y="145"/>
      <point x="258" y="129"/>
    </contour>
  </outline>
</glyph>
